<svg xmlns="http://www.w3.org/2000/svg" xmlns:xlink="http://www.w3.org/1999/xlink" width="600" zoomAndPan="magnify" viewBox="0 0 450 449.999984" height="600" preserveAspectRatio="xMidYMid meet" version="1.0"><defs><clipPath id="1f90e53b9d"><path d="M 45 47.386719 L 393.75 47.386719 L 393.75 402.886719 L 45 402.886719 Z M 45 47.386719 " clip-rule="nonzero"/></clipPath><clipPath id="9146e910e1"><path d="M 141 318 L 348.75 318 L 348.75 355.480469 L 141 355.480469 Z M 141 318 " clip-rule="nonzero"/></clipPath><clipPath id="4a9ec9d3b0"><path d="M 0.257812 0.519531 L 60 0.519531 L 60 39 L 0.257812 39 Z M 0.257812 0.519531 " clip-rule="nonzero"/></clipPath><clipPath id="0e1495963e"><path d="M 46 0.519531 L 307 0.519531 L 307 355.480469 L 46 355.480469 Z M 46 0.519531 " clip-rule="nonzero"/></clipPath><clipPath id="06086fb383"><path d="M 331 165 L 348.75 165 L 348.75 184 L 331 184 Z M 331 165 " clip-rule="nonzero"/></clipPath><clipPath id="ed31c4d790"><path d="M 331 192 L 348.75 192 L 348.75 210 L 331 210 Z M 331 192 " clip-rule="nonzero"/></clipPath><clipPath id="70655ba502"><path d="M 331 218 L 348.75 218 L 348.75 237 L 331 237 Z M 331 218 " clip-rule="nonzero"/></clipPath><clipPath id="79d4d686a7"><path d="M 331 245 L 348.75 245 L 348.75 264 L 331 264 Z M 331 245 " clip-rule="nonzero"/></clipPath><clipPath id="ac60d573c9"><path d="M 331 272 L 348.75 272 L 348.75 290 L 331 290 Z M 331 272 " clip-rule="nonzero"/></clipPath><clipPath id="fa30b674b6"><rect x="0" width="349" y="0" height="356"/></clipPath></defs><g clip-path="url(#1f90e53b9d)"><g transform="matrix(1, 0, 0, 1, 45, 47)"><g clip-path="url(#fa30b674b6)"><g clip-path="url(#9146e910e1)"><path fill="#e6c97f" d="M 162.183594 318.796875 L 310.648438 318.796875 C 311.136719 318.796875 311.601562 318.699219 312.042969 318.550781 L 349.023438 318.550781 C 347.328125 341.078125 332.636719 355.382812 310.628906 355.382812 L 141.9375 355.382812 C 144.148438 353.859375 146.230469 352.164062 148.140625 350.296875 C 156.464844 342.152344 161.273438 331.332031 162.183594 318.796875 Z M 162.183594 318.796875 " fill-opacity="1" fill-rule="nonzero"/></g><g clip-path="url(#4a9ec9d3b0)"><path fill="#e6c97f" d="M 17.769531 0.710938 C 18.234375 0.683594 18.703125 0.664062 19.171875 0.648438 C 19.816406 0.671875 20.457031 0.710938 21.09375 0.765625 C 21.121094 0.769531 21.148438 0.769531 21.171875 0.773438 C 21.824219 0.832031 22.476562 0.90625 23.117188 0.992188 C 23.320312 1.019531 23.523438 1.058594 23.726562 1.089844 C 24.179688 1.160156 24.628906 1.226562 25.078125 1.3125 C 25.316406 1.355469 25.550781 1.410156 25.789062 1.460938 C 26.199219 1.542969 26.605469 1.628906 27.007812 1.722656 C 27.257812 1.78125 27.503906 1.851562 27.75 1.914062 C 28.136719 2.015625 28.523438 2.117188 28.90625 2.226562 C 29.160156 2.300781 29.40625 2.378906 29.65625 2.457031 C 30.03125 2.574219 30.40625 2.691406 30.773438 2.816406 C 31.023438 2.902344 31.269531 2.992188 31.515625 3.082031 C 31.878906 3.214844 32.246094 3.351562 32.605469 3.496094 C 32.847656 3.589844 33.089844 3.691406 33.332031 3.792969 C 33.691406 3.941406 34.046875 4.097656 34.402344 4.257812 C 34.636719 4.363281 34.871094 4.472656 35.101562 4.582031 C 35.457031 4.75 35.8125 4.925781 36.160156 5.105469 C 36.382812 5.21875 36.609375 5.332031 36.828125 5.453125 C 37.183594 5.640625 37.53125 5.835938 37.878906 6.035156 C 38.09375 6.152344 38.304688 6.273438 38.511719 6.398438 C 38.867188 6.609375 39.21875 6.824219 39.5625 7.046875 C 39.757812 7.171875 39.957031 7.289062 40.148438 7.417969 C 40.511719 7.65625 40.867188 7.90625 41.226562 8.15625 C 41.394531 8.273438 41.5625 8.386719 41.730469 8.507812 C 42.121094 8.789062 42.503906 9.085938 42.886719 9.378906 C 43.011719 9.476562 43.136719 9.570312 43.261719 9.667969 C 43.746094 10.054688 44.222656 10.449219 44.691406 10.855469 C 44.707031 10.867188 44.722656 10.882812 44.742188 10.894531 C 45.722656 11.75 46.664062 12.648438 47.566406 13.589844 C 47.667969 13.695312 47.765625 13.808594 47.871094 13.917969 C 48.203125 14.277344 48.539062 14.636719 48.859375 15.007812 C 48.996094 15.160156 49.125 15.316406 49.257812 15.472656 C 49.539062 15.804688 49.824219 16.140625 50.097656 16.480469 C 50.238281 16.660156 50.375 16.84375 50.519531 17.023438 C 50.769531 17.351562 51.023438 17.679688 51.265625 18.011719 C 51.410156 18.210938 51.546875 18.410156 51.691406 18.609375 C 51.917969 18.933594 52.148438 19.261719 52.367188 19.597656 C 52.507812 19.808594 52.644531 20.019531 52.78125 20.234375 C 52.992188 20.5625 53.199219 20.894531 53.398438 21.230469 C 53.53125 21.453125 53.664062 21.675781 53.792969 21.902344 C 53.988281 22.234375 54.175781 22.574219 54.359375 22.914062 C 54.484375 23.144531 54.609375 23.378906 54.726562 23.609375 C 54.90625 23.953125 55.078125 24.296875 55.246094 24.644531 C 55.359375 24.882812 55.472656 25.121094 55.585938 25.359375 C 55.75 25.714844 55.902344 26.070312 56.054688 26.429688 C 56.15625 26.667969 56.261719 26.90625 56.359375 27.148438 C 56.511719 27.519531 56.648438 27.890625 56.789062 28.265625 C 56.878906 28.5 56.96875 28.738281 57.054688 28.976562 C 57.191406 29.367188 57.320312 29.765625 57.445312 30.160156 C 57.519531 30.386719 57.597656 30.613281 57.664062 30.839844 C 57.796875 31.273438 57.914062 31.714844 58.03125 32.152344 C 58.085938 32.347656 58.140625 32.539062 58.191406 32.738281 C 58.34375 33.34375 58.480469 33.957031 58.609375 34.570312 C 58.613281 34.601562 58.621094 34.632812 58.628906 34.664062 C 58.757812 35.3125 58.871094 35.96875 58.972656 36.628906 C 59.003906 36.816406 59.023438 37.003906 59.046875 37.195312 C 59.105469 37.617188 59.164062 38.042969 59.207031 38.472656 L 19.21875 38.472656 C 6.527344 38.472656 0.574219 29.152344 0.308594 19.917969 C 0.0429688 10.875 5.34375 1.433594 17.769531 0.710938 Z M 17.769531 0.710938 " fill-opacity="1" fill-rule="nonzero"/></g><g clip-path="url(#0e1495963e)"><path fill="#e6c97f" d="M 54.015625 7.367188 C 53.421875 6.75 52.816406 6.152344 52.199219 5.566406 C 51.980469 5.359375 51.75 5.167969 51.53125 4.964844 C 51.125 4.59375 50.71875 4.222656 50.304688 3.867188 C 50.039062 3.644531 49.769531 3.429688 49.503906 3.210938 C 49.117188 2.894531 48.734375 2.574219 48.339844 2.269531 C 48.054688 2.050781 47.761719 1.839844 47.46875 1.625 C 47.082031 1.339844 46.699219 1.054688 46.308594 0.78125 C 46.230469 0.726562 46.152344 0.664062 46.070312 0.609375 L 285.972656 0.609375 C 297.132812 0.609375 306.214844 9.671875 306.214844 20.8125 L 306.214844 309.679688 L 157.910156 309.679688 C 155.460938 309.679688 153.476562 311.667969 153.476562 314.117188 C 153.476562 341.753906 133.3125 353.601562 115.964844 355.382812 L 107.03125 355.382812 C 88.015625 353.824219 68.710938 340.535156 68.316406 314.296875 L 68.320312 42.902344 C 68.316406 29.59375 63.238281 16.972656 54.015625 7.367188 Z M 203.347656 248.949219 L 275.570312 248.949219 C 278.019531 248.949219 280.003906 246.964844 280.003906 244.515625 C 280.003906 242.066406 278.019531 240.082031 275.570312 240.082031 L 203.347656 240.082031 C 200.898438 240.082031 198.914062 242.066406 198.914062 244.515625 C 198.914062 246.964844 200.898438 248.949219 203.347656 248.949219 Z M 107.054688 222.34375 L 275.570312 222.34375 C 278.019531 222.34375 280.003906 220.355469 280.003906 217.90625 C 280.003906 215.457031 278.019531 213.472656 275.570312 213.472656 L 107.054688 213.472656 C 104.601562 213.472656 102.617188 215.457031 102.617188 217.90625 C 102.617188 220.355469 104.601562 222.34375 107.054688 222.34375 Z M 107.054688 195.734375 L 275.570312 195.734375 C 278.019531 195.734375 280.003906 193.75 280.003906 191.300781 C 280.003906 188.847656 278.019531 186.863281 275.570312 186.863281 L 107.054688 186.863281 C 104.601562 186.863281 102.617188 188.847656 102.617188 191.300781 C 102.617188 193.75 104.601562 195.734375 107.054688 195.734375 Z M 107.054688 169.125 L 275.570312 169.125 C 278.019531 169.125 280.003906 167.140625 280.003906 164.691406 C 280.003906 162.242188 278.019531 160.257812 275.570312 160.257812 L 107.054688 160.257812 C 104.601562 160.257812 102.617188 162.242188 102.617188 164.691406 C 102.617188 167.140625 104.601562 169.125 107.054688 169.125 Z M 107.054688 142.519531 L 275.570312 142.519531 C 278.019531 142.519531 280.003906 140.53125 280.003906 138.082031 C 280.003906 135.632812 278.019531 133.648438 275.570312 133.648438 L 107.054688 133.648438 C 104.601562 133.648438 102.617188 135.632812 102.617188 138.082031 C 102.617188 140.53125 104.601562 142.519531 107.054688 142.519531 Z M 107.054688 115.910156 L 275.570312 115.910156 C 278.019531 115.910156 280.003906 113.925781 280.003906 111.476562 C 280.003906 109.027344 278.019531 107.039062 275.570312 107.039062 L 107.054688 107.039062 C 104.601562 107.039062 102.617188 109.027344 102.617188 111.476562 C 102.617188 113.925781 104.601562 115.910156 107.054688 115.910156 Z M 107.054688 89.300781 L 222.355469 89.300781 C 224.804688 89.300781 226.789062 87.316406 226.789062 84.867188 C 226.789062 82.417969 224.804688 80.433594 222.355469 80.433594 L 107.054688 80.433594 C 104.601562 80.433594 102.617188 82.417969 102.617188 84.867188 C 102.617188 87.316406 104.601562 89.300781 107.054688 89.300781 Z M 107.054688 89.300781 " fill-opacity="1" fill-rule="nonzero"/></g><g clip-path="url(#06086fb383)"><path fill="#e6c97f" d="M 331.164062 165.578125 L 348.902344 165.578125 L 348.902344 183.316406 L 331.164062 183.316406 Z M 331.164062 165.578125 " fill-opacity="1" fill-rule="nonzero"/></g><g clip-path="url(#ed31c4d790)"><path fill="#e6c97f" d="M 331.164062 192.1875 L 348.902344 192.1875 L 348.902344 209.925781 L 331.164062 209.925781 Z M 331.164062 192.1875 " fill-opacity="1" fill-rule="nonzero"/></g><g clip-path="url(#70655ba502)"><path fill="#e6c97f" d="M 331.164062 218.792969 L 348.902344 218.792969 L 348.902344 236.53125 L 331.164062 236.53125 Z M 331.164062 218.792969 " fill-opacity="1" fill-rule="nonzero"/></g><g clip-path="url(#79d4d686a7)"><path fill="#e6c97f" d="M 331.164062 245.402344 L 348.902344 245.402344 L 348.902344 263.140625 L 331.164062 263.140625 Z M 331.164062 245.402344 " fill-opacity="1" fill-rule="nonzero"/></g><g clip-path="url(#ac60d573c9)"><path fill="#e6c97f" d="M 331.164062 272.011719 L 348.902344 272.011719 L 348.902344 289.75 L 331.164062 289.75 Z M 331.164062 272.011719 " fill-opacity="1" fill-rule="nonzero"/></g></g></g></g></svg>