<svg xmlns="http://www.w3.org/2000/svg" xmlns:xlink="http://www.w3.org/1999/xlink" width="600" zoomAndPan="magnify" viewBox="0 0 450 449.999984" height="600" preserveAspectRatio="xMidYMid meet" version="1.0"><defs><clipPath id="9ca15b8ab9"><path d="M 205 53.210938 L 244 53.210938 L 244 130 L 205 130 Z M 205 53.210938 " clip-rule="nonzero"/></clipPath></defs><g clip-path="url(#9ca15b8ab9)"><path fill="#ffcc4d" d="M 243.941406 110.542969 C 243.941406 121.097656 235.371094 129.65625 224.960938 129.65625 C 214.554688 129.65625 205.984375 121.097656 205.984375 110.542969 L 205.984375 72.324219 C 205.984375 61.761719 214.554688 53.210938 224.960938 53.210938 C 235.371094 53.210938 243.941406 61.761719 243.941406 72.324219 Z M 243.941406 110.542969 " fill-opacity="1" fill-rule="nonzero"/></g><path fill="#ffac33" d="M 141.269531 394.816406 C 139.144531 394.816406 136.980469 394.320312 134.949219 393.304688 C 127.964844 389.757812 125.128906 381.160156 128.621094 374.070312 L 213.453125 202.066406 C 215.84375 197.207031 220.738281 194.140625 226.101562 194.140625 C 231.460938 194.140625 236.359375 197.207031 238.75 202.066406 L 323.589844 374.070312 C 327.082031 381.160156 324.253906 389.757812 317.269531 393.304688 C 310.289062 396.835938 301.792969 393.96875 298.300781 386.890625 L 226.109375 240.523438 L 153.929688 386.890625 C 151.441406 391.910156 146.449219 394.816406 141.269531 394.816406 Z M 141.269531 394.816406 " fill-opacity="1" fill-rule="nonzero"/><path fill="#58595b" d="M 226.109375 246.710938 C 223.613281 246.710938 221.214844 245.707031 219.449219 243.910156 L 87.488281 110.128906 C 83.804688 106.386719 83.804688 100.34375 87.488281 96.613281 C 91.167969 92.886719 97.136719 92.886719 100.808594 96.613281 L 226.109375 223.632812 L 351.394531 96.605469 C 355.085938 92.875 361.042969 92.875 364.726562 96.605469 C 368.40625 100.34375 368.40625 106.386719 364.726562 110.117188 L 232.78125 243.910156 C 231.007812 245.695312 228.617188 246.710938 226.109375 246.710938 Z M 226.109375 246.710938 " fill-opacity="1" fill-rule="nonzero"/><path fill="#dd2e44" d="M 376.929688 237.15625 C 376.929688 321.589844 309.414062 390.03125 226.109375 390.03125 C 142.824219 390.03125 75.304688 321.589844 75.304688 237.15625 C 75.304688 152.703125 142.824219 84.261719 226.109375 84.261719 C 309.40625 84.25 376.929688 152.703125 376.929688 237.15625 Z M 376.929688 237.15625 " fill-opacity="1" fill-rule="nonzero"/><path fill="#e6e7e8" d="M 339.21875 237.15625 C 339.21875 300.484375 288.59375 351.820312 226.109375 351.820312 C 163.644531 351.820312 113.011719 300.484375 113.011719 237.15625 C 113.011719 173.816406 163.644531 122.480469 226.109375 122.480469 C 288.59375 122.472656 339.21875 173.816406 339.21875 237.15625 Z M 339.21875 237.15625 " fill-opacity="1" fill-rule="nonzero"/><path fill="#ffcc4d" d="M 339.210938 65.140625 C 323.589844 65.140625 309.460938 71.554688 299.222656 81.933594 L 379.207031 163.007812 C 389.433594 152.636719 395.761719 138.308594 395.761719 122.472656 C 395.761719 90.816406 370.4375 65.140625 339.210938 65.140625 Z M 110.714844 65.140625 C 126.324219 65.140625 140.464844 71.554688 150.703125 81.933594 L 70.71875 163.007812 C 60.492188 152.636719 54.160156 138.308594 54.160156 122.472656 C 54.160156 90.816406 79.476562 65.140625 110.714844 65.140625 Z M 110.714844 65.140625 " fill-opacity="1" fill-rule="nonzero"/><path fill="#414042" d="M 272.40625 242.992188 L 224.960938 242.992188 C 219.722656 242.992188 215.472656 238.75 215.472656 233.503906 L 215.472656 148.101562 C 215.472656 142.863281 219.722656 138.613281 224.960938 138.613281 C 230.199219 138.613281 234.453125 142.863281 234.453125 148.101562 L 234.453125 224.011719 L 272.40625 224.011719 C 277.65625 224.011719 281.894531 228.265625 281.894531 233.503906 C 281.894531 238.75 277.65625 242.992188 272.40625 242.992188 Z M 272.40625 242.992188 " fill-opacity="1" fill-rule="nonzero"/></svg>