<svg xmlns="http://www.w3.org/2000/svg" xmlns:xlink="http://www.w3.org/1999/xlink" width="600" zoomAndPan="magnify" viewBox="0 0 450 449.999984" height="600" preserveAspectRatio="xMidYMid meet" version="1.0"><defs><clipPath id="e4d2ccd33c"><path d="M 0.925781 1.039062 L 279.554688 1.039062 L 279.554688 322.949219 L 0.925781 322.949219 Z M 0.925781 1.039062 " clip-rule="nonzero"/></clipPath><clipPath id="3288610411"><path d="M 29 51 L 251.742188 51 L 251.742188 272 L 29 272 Z M 29 51 " clip-rule="nonzero"/></clipPath><clipPath id="451223b403"><path d="M 73.316406 67.585938 L 316.769531 67.585938 L 316.769531 261.546875 L 73.316406 261.546875 Z M 73.316406 67.585938 " clip-rule="nonzero"/></clipPath><clipPath id="7669e525b6"><path d="M 67.085938 67.585938 L 310.542969 67.585938 L 310.542969 261.546875 L 67.085938 261.546875 Z M 67.085938 67.585938 " clip-rule="nonzero"/></clipPath><clipPath id="8da82db1bb"><rect x="0" width="317" y="0" height="324"/></clipPath></defs><g transform="matrix(1, 0, 0, 1, 66, 63)"><g clip-path="url(#8da82db1bb)"><g clip-path="url(#e4d2ccd33c)"><path fill="#0b3d91" d="M 258.566406 148.382812 C 252.164062 181.632812 239.988281 211.222656 222.367188 236.324219 C 202.136719 265.136719 174.417969 288.34375 139.875 305.414062 C 105.667969 288.355469 78.183594 265.164062 58.085938 236.375 C 40.5625 211.253906 28.421875 181.652344 22.003906 148.378906 C 16.191406 118.296875 16.234375 90.789062 17.285156 73.015625 C 17.632812 67.128906 18.109375 61.941406 18.601562 57.585938 C 27.78125 55.984375 40.035156 53.605469 53.730469 50.28125 C 77.820312 44.441406 111.148438 34.480469 140.378906 19.09375 C 169.59375 34.492188 202.851562 44.453125 226.882812 50.300781 C 240.546875 53.628906 252.664062 55.996094 261.78125 57.589844 C 262.285156 61.941406 262.773438 67.140625 263.144531 73.074219 C 264.25 90.839844 264.355469 118.320312 258.566406 148.382812 Z M 278.933594 72.097656 C 278.121094 59.109375 276.734375 49.269531 275.828125 43.847656 C 267.882812 42.675781 251.128906 39.921875 230.625 34.933594 C 205.410156 28.796875 169.722656 18.003906 140.378906 1.039062 C 111.054688 17.988281 75.28125 28.777344 50 34.914062 C 29.546875 39.871094 12.507812 42.664062 4.5 43.84375 C 3.621094 49.226562 2.273438 58.984375 1.5 72.074219 C 0.386719 90.753906 0.355469 119.679688 6.472656 151.375 C 13.308594 186.832031 26.320312 218.480469 45.117188 245.425781 C 68.121094 278.382812 99.980469 304.453125 139.847656 322.949219 C 180.0625 304.453125 212.171875 278.371094 235.308594 245.40625 C 254.222656 218.46875 267.273438 186.832031 274.097656 151.375 C 280.203125 119.679688 280.09375 90.769531 278.933594 72.097656 " fill-opacity="1" fill-rule="nonzero"/></g><g clip-path="url(#3288610411)"><path fill="#0b3d91" d="M 81.808594 56.796875 C 81.886719 56.660156 83.019531 57.222656 83.71875 57.867188 C 84.421875 58.511719 86.214844 59.066406 87.09375 58.921875 C 87.972656 58.773438 88.203125 59.535156 88.996094 59.328125 C 89.785156 59.125 89.550781 58.113281 90.078125 58.460938 C 90.605469 58.804688 91.101562 59.242188 91.480469 59.945312 C 91.863281 60.644531 93.179688 61.144531 93.355469 60.152344 C 93.527344 59.15625 92.769531 58.394531 93.675781 58.21875 C 94.585938 58.042969 95.285156 57.851562 95.753906 57.550781 C 96.222656 57.253906 96.25 57.71875 97.15625 57.691406 C 98.066406 57.664062 99.46875 56.347656 99.910156 56.785156 C 100.347656 57.222656 100.140625 55.496094 100.726562 55.671875 C 101.3125 55.847656 101.109375 54.769531 101.808594 55.234375 C 102.511719 55.703125 103.242188 55.9375 103.738281 54.945312 C 104.238281 53.945312 105.523438 54.738281 105.609375 53.335938 C 105.699219 51.929688 104.441406 51.636719 105.203125 51.433594 C 105.960938 51.226562 105.992188 51.898438 106.929688 51.433594 C 107.863281 50.964844 108.769531 51.578125 108.859375 52.484375 C 108.949219 53.394531 108.566406 54.652344 108.160156 55.351562 C 107.746094 56.054688 108.625 55.117188 109.5625 55.554688 C 110.5 55.996094 110.46875 56.140625 110.527344 57.195312 C 110.585938 58.25 112.195312 58.101562 111.550781 59.183594 C 110.90625 60.265625 109.414062 60.265625 109.707031 60.910156 C 110 61.554688 109.972656 62.488281 109.648438 63.046875 C 109.328125 63.601562 108.949219 64.710938 109.0625 65.679688 C 109.179688 66.644531 108.976562 67.621094 109.796875 67.972656 C 110.613281 68.320312 111.101562 69.0625 110.75 70.058594 C 110.398438 71.050781 110.613281 71.132812 111.199219 71.578125 C 111.785156 72.027344 112.351562 72.007812 112.800781 72.828125 C 113.246094 73.644531 114.535156 73.292969 115.214844 74.113281 C 115.898438 74.933594 115.722656 74.464844 116.542969 74.113281 C 117.363281 73.761719 117.734375 73.6875 118.027344 72.945312 C 118.316406 72.203125 118.785156 71.695312 119.273438 72.027344 C 119.761719 72.355469 119.644531 72.144531 120.328125 71.753906 C 121.011719 71.363281 121.246094 71.363281 122.140625 71.34375 C 123.039062 71.324219 123.214844 70.601562 123.683594 70.210938 C 124.152344 69.824219 124.859375 69.480469 126.003906 69.917969 C 127.144531 70.359375 126.527344 70.917969 127.671875 70.242188 C 128.808594 69.570312 130.15625 70.242188 130.769531 70.476562 C 131.386719 70.710938 133.230469 71.324219 132.058594 69.597656 C 130.890625 67.871094 130.949219 68.222656 131.386719 67.464844 C 131.824219 66.703125 131.535156 66.03125 132.4375 66.585938 C 133.347656 67.144531 134.195312 67.433594 134.925781 67.199219 C 135.65625 66.964844 136.503906 66.175781 137.238281 66.46875 C 137.96875 66.761719 139.253906 67.757812 140.105469 68.195312 C 140.953125 68.632812 141.273438 69.160156 142.503906 68.488281 C 143.734375 67.816406 146.480469 67.550781 147.15625 68.222656 C 147.824219 68.898438 148.292969 69.453125 149.085938 68.515625 C 149.875 67.582031 150.285156 67.988281 151.191406 65.765625 C 152.097656 63.542969 152.011719 64.304688 153.003906 62.609375 C 154 60.910156 154.03125 60.734375 155.316406 58.890625 C 156.601562 57.046875 156.925781 56.082031 156.894531 55.90625 C 156.867188 55.730469 158.945312 56.523438 159.207031 59.214844 C 159.472656 61.90625 159.296875 63.25 160.171875 64.828125 C 161.050781 66.410156 160.847656 68.515625 161.546875 68.722656 C 162.25 68.925781 163.039062 68.925781 163.976562 70.359375 C 164.910156 71.792969 166.753906 70.886719 166.40625 72.320312 C 166.054688 73.753906 164.65625 76.027344 164.929688 77.234375 C 165.203125 78.445312 164.503906 79.300781 165.4375 79.300781 C 166.375 79.300781 166.800781 78.796875 167.816406 79.769531 C 168.832031 80.746094 170.585938 82.304688 171.914062 82.265625 C 173.242188 82.226562 175.269531 82.304688 174.332031 83.4375 C 173.398438 84.570312 175.1875 84.570312 176.359375 84.570312 C 177.53125 84.570312 177.492188 83.398438 178.699219 84.335938 C 179.910156 85.269531 180.21875 83.554688 181.351562 84.335938 C 182.484375 85.113281 182.835938 85.191406 183.847656 85.582031 C 184.863281 85.972656 187.671875 86.597656 189.660156 87.453125 C 191.652344 88.3125 191.066406 88.039062 191.609375 89.054688 C 192.15625 90.066406 192.082031 88.859375 193.054688 89.054688 C 194.03125 89.25 195.199219 89.484375 195.828125 90.925781 C 196.449219 92.371094 196.097656 94.75 197.539062 94.824219 C 198.984375 94.902344 200.691406 95.023438 201.363281 93.765625 C 202.035156 92.503906 201.773438 93.558594 202.445312 94.054688 C 203.121094 94.550781 205.199219 95.375 205.925781 95.609375 C 206.660156 95.839844 207.214844 96.660156 209.320312 96.277344 C 211.425781 95.898438 211.867188 96.6875 213.210938 97.101562 C 214.558594 97.507812 218.644531 96.816406 219.773438 96.777344 C 220.90625 96.738281 223.441406 97.246094 223.949219 98.027344 C 224.453125 98.804688 225.734375 99.351562 226.433594 99.730469 C 227.136719 100.109375 228.046875 101.371094 229.097656 101.601562 C 230.152344 101.835938 230.296875 102.070312 231.46875 103.476562 C 232.636719 104.878906 233.867188 105.289062 234.625 105.90625 C 235.386719 106.519531 234.773438 106.898438 235.765625 107.132812 C 236.761719 107.367188 236.878906 107.484375 237.667969 108.625 C 238.460938 109.765625 239.335938 108.535156 240.007812 109.179688 C 240.683594 109.824219 242.945312 110.273438 244.191406 109.921875 C 245.441406 109.570312 246.417969 108.167969 247.820312 110.703125 C 249.226562 113.238281 249.925781 114.914062 250.238281 116.472656 C 250.550781 118.035156 249.847656 118.542969 250.628906 119.867188 C 251.40625 121.195312 251.527344 120.804688 251.371094 123.457031 C 251.214844 126.109375 249.28125 131.53125 245.890625 135.335938 C 242.496094 139.136719 243.726562 139.375 241.792969 140.367188 C 239.863281 141.363281 239.453125 141.363281 237.816406 144.699219 C 236.175781 148.03125 232.253906 153.941406 229.859375 154.699219 C 227.457031 155.460938 227.695312 156.535156 227.695312 158.601562 C 227.695312 160.671875 226.367188 162.851562 226.757812 163.558594 C 227.148438 164.257812 229.332031 169.503906 227.753906 172.605469 C 226.171875 175.707031 225.9375 180.601562 226.40625 181.226562 C 226.871094 181.851562 224.609375 181.851562 224.222656 183.449219 C 223.832031 185.046875 224.300781 188.207031 223.636719 190.3125 C 222.972656 192.421875 221.839844 191.328125 221.566406 192.890625 C 221.296875 194.449219 219.5 197.453125 217.355469 198.894531 C 215.210938 200.339844 215.71875 201.703125 216.066406 203.105469 C 216.421875 204.511719 216.574219 205.488281 215.09375 206.109375 C 213.613281 206.734375 211.117188 207.476562 210.800781 209.113281 C 210.492188 210.753906 210.726562 211.105469 209.398438 210.792969 C 208.070312 210.480469 206.082031 210.960938 204.796875 210.894531 C 203.507812 210.832031 205.183594 209.152344 204.210938 209.195312 C 203.238281 209.230469 204.5625 210.308594 203.898438 210.902344 C 203.238281 211.492188 201.949219 210.386719 201.753906 210.902344 C 201.558594 211.417969 198.945312 210.160156 198.4375 211.082031 C 197.929688 212 195.238281 210.441406 195.667969 211.535156 C 196.097656 212.625 196.996094 213.40625 194.886719 213.25 C 192.78125 213.09375 193.71875 213.328125 192.941406 213.757812 C 192.15625 214.1875 191.144531 213.601562 191.183594 214.304688 C 191.222656 215.003906 192.589844 216.175781 191.691406 216.136719 C 190.792969 216.097656 190.285156 214.96875 189.464844 215.160156 C 188.648438 215.355469 187.476562 214.808594 187.441406 215.238281 C 187.398438 215.667969 186.773438 216.703125 185.933594 216.566406 C 185.097656 216.429688 184.613281 216.878906 184.378906 217.113281 C 184.140625 217.347656 182.796875 217.695312 181.976562 218.945312 C 181.160156 220.191406 180.144531 219.882812 179.792969 220.351562 C 179.441406 220.816406 177.375 221.832031 177.332031 222.691406 C 177.296875 223.546875 176.4375 223.859375 175.855469 224.054688 C 175.269531 224.25 175.777344 224.601562 175.269531 225.265625 C 174.761719 225.925781 171.933594 227.332031 173.066406 228.402344 C 174.195312 229.476562 173.515625 229.1875 173.179688 230.21875 C 172.847656 231.25 172.460938 231.757812 172.789062 232.265625 C 173.121094 232.773438 173.746094 235.679688 173.199219 236.789062 C 172.65625 237.902344 173.765625 239.070312 172.984375 240.59375 C 172.207031 242.113281 174.253906 241.839844 170.78125 243.285156 C 167.3125 244.726562 165.476562 249.332031 164.851562 250.699219 C 164.230469 252.0625 158.886719 259.746094 155.414062 260.914062 C 151.945312 262.089844 151.394531 265.722656 151.164062 266.601562 C 150.929688 267.480469 148.824219 270.140625 146.597656 271.546875 C 144.375 272.949219 145.605469 269.382812 144.902344 268.386719 C 144.199219 267.390625 147.183594 266.457031 147.386719 265.839844 C 147.59375 265.226562 146.890625 265.371094 146.070312 264.757812 C 145.253906 264.144531 144.753906 262.15625 144.402344 261.832031 C 144.054688 261.511719 142.96875 261.628906 142.210938 261.128906 C 141.449219 260.632812 140.511719 259.785156 140.191406 259.085938 C 139.871094 258.378906 138.40625 259.113281 137.820312 258.613281 C 137.238281 258.117188 136.972656 257.882812 136.242188 257.796875 C 135.511719 257.707031 134.925781 256.417969 134.371094 255.601562 C 133.8125 254.78125 133.550781 256.652344 132.496094 256.625 C 131.445312 256.59375 131.445312 256.304688 131.238281 255.367188 C 131.035156 254.429688 127.4375 251.300781 127.054688 251.269531 C 126.675781 251.242188 125.535156 250.6875 124.949219 252.035156 C 124.367188 253.378906 123.078125 251.859375 122.757812 251.503906 C 122.433594 251.152344 123.253906 251.742188 123.722656 250.921875 C 124.191406 250.101562 124.453125 249.601562 125.359375 248.960938 C 126.265625 248.316406 127.671875 246.707031 127.671875 246.707031 C 127.671875 246.707031 128.089844 245.3125 129.007812 244.960938 C 129.921875 244.609375 129.824219 243.402344 130.703125 243.109375 C 131.578125 242.816406 132.96875 241.492188 133.21875 240.945312 C 133.472656 240.398438 133.726562 239.753906 134.429688 239.578125 C 135.132812 239.402344 138.085938 238.515625 138.320312 237.550781 C 138.554688 236.585938 139.78125 236.558594 140.804688 235.972656 C 141.832031 235.386719 143.554688 234.246094 144.023438 233.6875 C 144.492188 233.132812 144.34375 232.726562 144.34375 232.019531 C 144.34375 231.320312 145.253906 229.855469 144.785156 229.039062 C 144.316406 228.21875 144.726562 226.375 143.90625 225.90625 C 143.085938 225.441406 142.152344 225.265625 141.273438 225.527344 C 140.394531 225.792969 138.992188 225.90625 139.402344 224.855469 C 139.8125 223.804688 141.996094 219.726562 141.136719 217.5 C 140.28125 215.277344 138.640625 215.941406 137.703125 216.175781 C 136.769531 216.410156 134.464844 216.996094 134.582031 215.042969 C 134.699219 213.09375 134.546875 211.964844 133.6875 211.417969 C 132.828125 210.871094 134.464844 208.996094 133.648438 208.335938 C 132.828125 207.671875 132.59375 206.347656 131.542969 206.890625 C 130.488281 207.4375 129.550781 205.292969 129.007812 205.605469 C 128.460938 205.917969 128.539062 207.085938 126.46875 206.699219 C 124.402344 206.308594 123.117188 206.308594 122.492188 205.992188 C 121.871094 205.683594 119.683594 206.425781 120.230469 205.175781 C 120.777344 203.929688 121.207031 198.230469 120.210938 196.652344 C 119.214844 195.074219 119.917969 194.953125 120.679688 193.84375 C 121.4375 192.734375 119.042969 193.375 120.035156 191.445312 C 121.03125 189.511719 124.132812 185.828125 122.785156 183.429688 C 121.4375 181.03125 121.554688 179.039062 120.445312 179.511719 C 119.332031 179.980469 116.875 177.871094 117.753906 174.945312 C 118.632812 172.019531 117.460938 173.890625 114.183594 173.484375 C 110.90625 173.074219 107.398438 172.664062 107.398438 172.664062 C 107.398438 172.664062 108.390625 170.734375 106.753906 168.507812 C 105.113281 166.285156 106.695312 166.988281 107.160156 165.703125 C 107.628906 164.414062 106.285156 161.898438 106.402344 161.195312 C 106.519531 160.496094 106.929688 158.972656 104.765625 158.152344 C 102.597656 157.335938 102.773438 157.101562 101.488281 157.394531 C 100.199219 157.683594 99.03125 158.5625 97.746094 156.75 C 96.457031 154.9375 96.6875 155.230469 95.226562 155.171875 C 93.765625 155.113281 92.242188 152.652344 91.425781 152.828125 C 90.605469 153.003906 89.085938 152.128906 88.792969 151.660156 C 88.496094 151.191406 87.328125 151.777344 86.683594 151.894531 C 86.042969 152.011719 84.109375 151.542969 83.585938 150.371094 C 83.054688 149.199219 80.558594 149.789062 80.484375 148.5 C 80.40625 147.210938 78.6875 145.730469 78.609375 144.832031 C 78.53125 143.933594 79.15625 143.816406 78.84375 141.945312 C 78.53125 140.074219 79.078125 139.058594 79.117188 137.578125 C 79.15625 136.097656 78.453125 135.316406 77.753906 136.136719 C 77.046875 136.953125 75.605469 135.746094 74.632812 136.371094 C 73.65625 136.992188 67.296875 138.550781 66.675781 140.035156 C 66.050781 141.519531 64.644531 140.074219 63.667969 141.4375 C 62.695312 142.804688 60.042969 144.40625 59.496094 143.898438 C 58.953125 143.390625 54.308594 142.648438 52.863281 143.117188 C 51.425781 143.585938 48.886719 144.558594 49.277344 140.347656 C 49.667969 136.136719 50.761719 133.011719 48.457031 135.082031 C 46.160156 137.148438 46.078125 137.539062 44.128906 137.65625 C 42.179688 137.773438 40.152344 137.890625 40.152344 137.109375 C 40.152344 136.328125 39.878906 134.417969 38.160156 134.417969 C 36.445312 134.417969 34.6875 134.300781 34.457031 134.183594 C 34.21875 134.066406 36.40625 133.09375 35.664062 131.53125 C 34.921875 129.972656 33.558594 129.386719 33.636719 128.917969 C 33.714844 128.449219 32.660156 128.644531 32.621094 127.984375 C 32.582031 127.320312 32.386719 127.046875 31.761719 126.1875 C 31.140625 125.332031 32.152344 125.332031 31.761719 124.898438 C 31.375 124.472656 28.878906 122.792969 30.359375 122.363281 C 31.84375 121.9375 30.476562 120.53125 31.21875 119.984375 C 31.957031 119.441406 35.351562 118.386719 34.882812 117.136719 C 34.414062 115.890625 34.921875 114.484375 35.46875 113.394531 C 36.015625 112.300781 36.367188 111.054688 36.191406 110.292969 C 36.015625 109.53125 37.066406 109.824219 38.589844 108.710938 C 40.109375 107.601562 41.75 106.082031 43.445312 106.140625 C 45.144531 106.195312 47.425781 106.195312 47.773438 105.316406 C 48.125 104.441406 50.234375 103.972656 51.167969 104.910156 C 52.105469 105.847656 52.925781 107.542969 53.453125 103.855469 C 53.976562 100.171875 56.453125 88.742188 56.101562 87.726562 C 55.753906 86.714844 54.445312 85.855469 54.738281 85.171875 C 55.03125 84.488281 54.152344 83.867188 53.257812 82.949219 C 52.359375 82.03125 51.714844 78.269531 52.320312 77.898438 C 52.925781 77.527344 54.523438 77.839844 54.835938 77.292969 C 55.148438 76.746094 57.078125 78.246094 57.195312 76.902344 C 57.3125 75.558594 56.515625 74.601562 55.476562 74.796875 C 54.445312 74.992188 53.273438 75.714844 53.273438 74.582031 C 53.273438 73.453125 52.476562 71.34375 54.152344 71.285156 C 55.832031 71.226562 61.933594 71.558594 62.550781 71.0625 C 63.164062 70.566406 62.519531 69.597656 63.25 70.09375 C 63.984375 70.59375 65.679688 70.359375 66.324219 69.21875 C 66.964844 68.078125 67.523438 68.339844 67.875 69.65625 C 68.226562 70.972656 69.335938 70.300781 68.925781 73.605469 C 68.515625 76.910156 69.335938 73.226562 70.097656 73.898438 C 70.855469 74.570312 71.792969 76.792969 73.257812 76.707031 C 74.71875 76.621094 76.003906 74.691406 77.175781 75.539062 C 78.347656 76.386719 76.621094 76.5625 77.527344 77.058594 C 78.433594 77.558594 78.726562 76.648438 79.984375 75.300781 C 81.242188 73.957031 83.933594 71.585938 84.3125 72.351562 C 84.695312 73.109375 85.691406 71.910156 85.984375 70.710938 C 86.273438 69.511719 87.152344 70.210938 88.011719 69.511719 C 88.871094 68.808594 90.195312 69.824219 90.15625 68.417969 C 90.117188 67.015625 89.144531 67.289062 88.203125 67.597656 C 87.269531 67.914062 85.242188 67.640625 85.941406 66.546875 C 86.648438 65.453125 85.28125 64.871094 85.046875 63.699219 C 84.8125 62.53125 86.449219 61.671875 85.085938 60.617188 C 83.71875 59.5625 81.511719 57.3125 81.808594 56.796875 " fill-opacity="1" fill-rule="nonzero"/></g><g clip-path="url(#451223b403)"><path fill="#ffffff" d="M 316.769531 67.609375 C 246.375 89.503906 187.347656 138.089844 152.335938 202.953125 L 97.523438 161.152344 L 73.316406 182.269531 L 154.625 261.957031 C 191.605469 184.667969 247.347656 117.839844 316.769531 67.609375 " fill-opacity="1" fill-rule="nonzero"/></g><g clip-path="url(#7669e525b6)"><path fill="#4dac34" d="M 310.542969 67.609375 C 240.148438 89.503906 181.121094 138.089844 146.105469 202.953125 L 91.292969 161.152344 L 67.085938 182.269531 L 148.398438 261.957031 C 185.378906 184.667969 241.121094 117.839844 310.542969 67.609375 " fill-opacity="1" fill-rule="nonzero"/></g></g></g></svg>