<svg xmlns="http://www.w3.org/2000/svg" xmlns:xlink="http://www.w3.org/1999/xlink" width="600" zoomAndPan="magnify" viewBox="0 0 450 449.999984" height="600" preserveAspectRatio="xMidYMid meet" version="1.0"><defs><clipPath id="c2bcdd93cd"><path d="M 54 193 L 396 193 L 396 388.425781 L 54 388.425781 Z M 54 193 " clip-rule="nonzero"/></clipPath><clipPath id="67374cb79c"><path d="M 155 61.425781 L 295 61.425781 L 295 102 L 155 102 Z M 155 61.425781 " clip-rule="nonzero"/></clipPath></defs><g clip-path="url(#c2bcdd93cd)"><path fill="#995a25" d="M 70.03125 388.417969 L 379.785156 388.417969 C 388.476562 388.417969 395.589844 381.308594 395.589844 372.816406 L 395.589844 231.039062 C 395.589844 210.109375 378.402344 193.125 357.660156 193.125 L 92.355469 193.125 C 71.414062 193.125 54.425781 210.109375 54.425781 231.039062 L 54.425781 372.816406 C 54.425781 381.308594 61.535156 388.417969 70.03125 388.417969 Z M 70.03125 388.417969 " fill-opacity="1" fill-rule="evenodd"/></g><path fill="#85471e" d="M 395.589844 327.796875 L 395.589844 231.039062 C 395.589844 229.460938 395.390625 227.878906 395.191406 226.300781 L 54.820312 226.300781 C 54.621094 227.878906 54.425781 229.460938 54.425781 231.039062 L 54.425781 327.796875 Z M 395.589844 327.796875 " fill-opacity="1" fill-rule="evenodd"/><path fill="#995a25" d="M 196.855469 67.144531 L 253.15625 67.144531 C 265.601562 67.144531 277.058594 72.28125 285.355469 80.574219 L 285.355469 80.769531 C 293.652344 89.0625 298.789062 100.320312 298.789062 112.957031 L 298.789062 144.945312 C 298.789062 157.582031 293.652344 169.035156 285.355469 177.328125 C 277.058594 185.621094 265.601562 190.757812 253.15625 190.757812 L 196.855469 190.757812 C 184.210938 190.757812 172.753906 185.621094 164.457031 177.328125 C 156.160156 169.035156 151.023438 157.582031 151.023438 144.945312 L 151.023438 112.957031 C 151.023438 100.320312 156.160156 89.0625 164.457031 80.769531 L 164.457031 80.574219 C 172.753906 72.28125 184.210938 67.144531 196.855469 67.144531 Z M 253.15625 86.695312 L 196.855469 86.695312 C 189.546875 86.695312 183.027344 89.65625 178.285156 94.394531 C 173.546875 99.132812 170.582031 105.652344 170.582031 112.957031 L 170.582031 144.945312 C 170.582031 152.253906 173.546875 158.769531 178.285156 163.507812 C 183.027344 168.246094 189.546875 171.207031 196.855469 171.207031 L 253.15625 171.207031 C 260.269531 171.207031 266.984375 168.246094 271.726562 163.507812 C 276.46875 158.769531 279.429688 152.253906 279.429688 144.945312 L 279.429688 112.957031 C 279.429688 105.652344 276.46875 99.132812 271.726562 94.394531 C 266.984375 89.65625 260.269531 86.695312 253.15625 86.695312 Z M 253.15625 86.695312 " fill-opacity="1" fill-rule="nonzero"/><path fill="#ad6d2e" d="M 61.535156 112.957031 L 388.277344 112.957031 C 397.367188 112.957031 404.875 120.460938 404.875 129.542969 L 404.875 279.023438 C 404.875 300.941406 386.894531 318.910156 364.96875 318.910156 L 85.042969 318.910156 C 63.117188 318.910156 45.140625 300.941406 45.140625 279.023438 L 45.140625 129.542969 C 45.140625 120.460938 52.449219 112.957031 61.535156 112.957031 Z M 61.535156 112.957031 " fill-opacity="1" fill-rule="evenodd"/><path fill="#e28f25" d="M 80.105469 112.957031 L 80.105469 275.863281 C 80.105469 277.839844 81.09375 279.8125 82.476562 280.996094 C 83.859375 282.378906 85.636719 283.367188 87.613281 283.367188 L 362.398438 283.367188 C 364.375 283.367188 366.152344 282.378906 367.535156 280.996094 C 368.917969 279.8125 369.710938 277.839844 369.710938 275.863281 L 369.710938 112.957031 L 380.773438 112.957031 L 380.773438 275.863281 C 380.773438 280.996094 378.796875 285.539062 375.4375 288.894531 C 372.082031 292.253906 367.339844 294.425781 362.398438 294.425781 L 87.613281 294.425781 C 82.476562 294.425781 77.933594 292.253906 74.574219 288.894531 C 71.214844 285.539062 69.042969 280.996094 69.042969 275.863281 L 69.042969 112.957031 Z M 80.105469 112.957031 " fill-opacity="1" fill-rule="nonzero"/><g clip-path="url(#67374cb79c)"><path fill="#e28f25" d="M 196.855469 61.417969 L 253.15625 61.417969 C 266.789062 61.417969 279.824219 66.75 289.503906 76.625 C 291.285156 78.402344 292.863281 80.179688 294.445312 82.152344 L 270.144531 101.503906 C 269.355469 100.515625 268.566406 99.332031 267.578125 98.542969 C 263.625 94.59375 258.492188 92.421875 253.15625 92.421875 L 196.855469 92.421875 C 191.324219 92.421875 186.1875 94.59375 182.433594 98.542969 C 181.445312 99.332031 180.65625 100.515625 179.867188 101.503906 L 155.570312 82.152344 C 156.953125 80.179688 158.730469 78.402344 160.308594 76.625 L 160.507812 76.625 C 170.1875 66.75 183.226562 61.417969 196.855469 61.417969 Z M 196.855469 61.417969 " fill-opacity="1" fill-rule="evenodd"/></g><path fill="#85471e" d="M 96.304688 324.636719 L 108.355469 324.636719 L 108.355469 363.339844 C 108.355469 366.695312 105.589844 369.261719 102.230469 369.261719 C 99.070312 369.261719 96.304688 366.695312 96.304688 363.339844 Z M 341.65625 324.636719 L 353.511719 324.636719 L 353.511719 363.339844 C 353.511719 366.695312 350.941406 369.261719 347.585938 369.261719 C 344.421875 369.261719 341.65625 366.695312 341.65625 363.339844 Z M 341.65625 324.636719 " fill-opacity="1" fill-rule="evenodd"/><path fill="#e28f25" d="M 80.105469 141.785156 L 369.710938 141.785156 L 369.710938 153.238281 L 80.105469 153.238281 Z M 80.105469 141.785156 " fill-opacity="1" fill-rule="evenodd"/><path fill="#ce7c29" d="M 80.105469 141.785156 L 89.191406 141.785156 L 89.191406 153.238281 L 80.105469 153.238281 Z M 80.105469 141.785156 " fill-opacity="1" fill-rule="evenodd"/><path fill="#ce7c29" d="M 360.820312 141.785156 L 369.710938 141.785156 L 369.710938 153.238281 L 360.820312 153.238281 Z M 360.820312 141.785156 " fill-opacity="1" fill-rule="evenodd"/><path fill="#ffd753" d="M 185.597656 271.519531 L 264.417969 271.519531 C 269.75 271.519531 274.097656 276.0625 274.097656 281.390625 L 274.097656 297.1875 C 274.097656 302.71875 269.75 307.0625 264.417969 307.0625 L 185.597656 307.0625 C 180.261719 307.0625 175.71875 302.71875 175.71875 297.1875 L 175.71875 281.390625 C 175.71875 276.0625 180.261719 271.519531 185.597656 271.519531 Z M 185.597656 271.519531 " fill-opacity="1" fill-rule="evenodd"/><path fill="#e28f25" d="M 199.027344 307.0625 L 250.785156 307.0625 L 250.785156 334.507812 C 250.785156 339.839844 246.441406 344.183594 241.105469 344.183594 L 208.90625 344.183594 C 203.375 344.183594 199.027344 339.839844 199.027344 334.507812 Z M 199.027344 307.0625 " fill-opacity="1" fill-rule="evenodd"/><path fill="#ce7c29" d="M 199.027344 307.0625 L 250.785156 307.0625 L 250.785156 318.910156 L 199.027344 318.910156 Z M 199.027344 307.0625 " fill-opacity="1" fill-rule="evenodd"/></svg>