<svg xmlns="http://www.w3.org/2000/svg" xmlns:xlink="http://www.w3.org/1999/xlink" width="600" zoomAndPan="magnify" viewBox="0 0 450 449.999984" height="600" preserveAspectRatio="xMidYMid meet" version="1.0"><defs><clipPath id="ba54917a96"><path d="M 30 30.375 L 381 30.375 L 381 218 L 30 218 Z M 30 30.375 " clip-rule="nonzero"/></clipPath><clipPath id="f8077c480d"><path d="M 61 98 L 381 98 L 381 419.625 L 61 419.625 Z M 61 98 " clip-rule="nonzero"/></clipPath><clipPath id="ec84c80622"><path d="M 90 328 L 450 328 L 450 419.625 L 90 419.625 Z M 90 328 " clip-rule="nonzero"/></clipPath><clipPath id="864b9acc57"><path d="M 0 30.375 L 76 30.375 L 76 120 L 0 120 Z M 0 30.375 " clip-rule="nonzero"/></clipPath></defs><g clip-path="url(#ba54917a96)"><path fill="#000000" d="M 373.359375 217.050781 C 371.558594 217.050781 369.835938 216.335938 368.5625 215.0625 C 367.292969 213.792969 366.578125 212.066406 366.578125 210.269531 L 366.578125 94.6875 C 366.5625 81.234375 361.214844 68.339844 351.703125 58.832031 C 342.191406 49.320312 329.296875 43.972656 315.847656 43.957031 L 68.273438 43.957031 L 37.609375 44.25 C 37.589844 44.25 37.566406 44.25 37.542969 44.25 C 35.753906 44.246094 34.035156 43.535156 32.769531 42.269531 C 31.5 41.007812 30.785156 39.289062 30.777344 37.5 C 30.769531 35.710938 31.46875 33.988281 32.722656 32.710938 C 33.980469 31.433594 35.691406 30.707031 37.480469 30.6875 L 68.207031 30.394531 L 315.847656 30.394531 C 332.894531 30.414062 349.234375 37.195312 361.289062 49.246094 C 373.339844 61.300781 380.121094 77.640625 380.140625 94.6875 L 380.140625 210.269531 C 380.140625 211.160156 379.964844 212.042969 379.625 212.863281 C 379.28125 213.6875 378.78125 214.433594 378.152344 215.0625 C 377.523438 215.695312 376.777344 216.191406 375.953125 216.535156 C 375.128906 216.875 374.25 217.050781 373.359375 217.050781 Z M 373.359375 217.050781 " fill-opacity="1" fill-rule="nonzero"/></g><g clip-path="url(#f8077c480d)"><path fill="#000000" d="M 373.359375 419.523438 L 97.71875 419.523438 C 97.457031 419.523438 97.207031 419.519531 96.953125 419.511719 C 87.492188 419.269531 78.5 415.351562 71.882812 408.589844 C 65.261719 401.828125 61.535156 392.757812 61.492188 383.296875 L 61.492188 105.71875 C 61.492188 103.921875 62.207031 102.195312 63.476562 100.925781 C 64.75 99.652344 66.472656 98.9375 68.273438 98.9375 C 70.070312 98.9375 71.796875 99.652344 73.066406 100.925781 C 74.339844 102.195312 75.054688 103.921875 75.054688 105.71875 L 75.054688 383.296875 C 75.078125 389.222656 77.417969 394.90625 81.566406 399.136719 C 85.71875 403.367188 91.355469 405.8125 97.28125 405.953125 C 97.34375 405.953125 97.40625 405.957031 97.46875 405.957031 C 97.554688 405.960938 97.632812 405.960938 97.71875 405.960938 L 371.351562 405.960938 C 372.367188 405.648438 373.441406 405.578125 374.488281 405.753906 C 375.535156 405.929688 376.527344 406.351562 377.378906 406.984375 C 378.234375 407.613281 378.929688 408.433594 379.410156 409.382812 C 379.886719 410.332031 380.140625 411.378906 380.140625 412.441406 L 380.140625 412.742188 C 380.140625 413.632812 379.964844 414.511719 379.625 415.335938 C 379.28125 416.160156 378.78125 416.90625 378.152344 417.535156 C 377.523438 418.164062 376.777344 418.664062 375.953125 419.007812 C 375.128906 419.347656 374.25 419.523438 373.359375 419.523438 Z M 373.359375 419.523438 " fill-opacity="1" fill-rule="nonzero"/></g><g clip-path="url(#ec84c80622)"><path fill="#000000" d="M 365.902344 419.515625 L 97.160156 419.515625 C 95.363281 419.515625 93.636719 418.800781 92.367188 417.53125 C 91.09375 416.257812 90.378906 414.535156 90.378906 412.734375 L 90.378906 412.464844 C 90.378906 410.757812 91.027344 409.109375 92.1875 407.855469 C 93.351562 406.601562 94.945312 405.832031 96.652344 405.703125 C 114.296875 404.375 130.582031 397.757812 142.511719 387.074219 C 154.171875 376.628906 160.59375 363.167969 160.59375 349.164062 L 160.59375 335.628906 C 160.59375 333.832031 161.308594 332.105469 162.582031 330.835938 C 163.851562 329.5625 165.578125 328.847656 167.375 328.847656 L 443.265625 328.847656 C 445.066406 328.847656 446.789062 329.5625 448.0625 330.835938 C 449.332031 332.105469 450.046875 333.832031 450.046875 335.628906 L 450.046875 349.164062 C 450.046875 387.957031 412.300781 419.515625 365.902344 419.515625 Z M 139.734375 405.953125 L 365.902344 405.953125 C 404.824219 405.953125 436.488281 380.480469 436.488281 349.164062 L 436.488281 342.410156 L 174.15625 342.410156 L 174.15625 349.164062 C 174.15625 367.074219 166.128906 384.125 151.558594 397.175781 C 147.890625 400.453125 143.933594 403.390625 139.734375 405.953125 Z M 139.734375 405.953125 " fill-opacity="1" fill-rule="nonzero"/></g><path fill="#000000" d="M 243.917969 243.210938 C 243.027344 243.210938 242.144531 243.035156 241.324219 242.695312 C 240.5 242.355469 239.75 241.855469 239.121094 241.222656 L 183.023438 185.121094 C 181.75 183.851562 181.035156 182.125 181.035156 180.328125 C 181.035156 178.527344 181.75 176.804688 183.023438 175.53125 L 198.296875 160.257812 C 199.566406 158.988281 201.292969 158.273438 203.089844 158.273438 C 204.890625 158.273438 206.613281 158.988281 207.886719 160.257812 L 263.988281 216.359375 C 265.257812 217.632812 265.972656 219.355469 265.972656 221.15625 C 265.972656 222.953125 265.257812 224.679688 263.988281 225.949219 L 248.714844 241.222656 C 248.085938 241.855469 247.335938 242.355469 246.515625 242.695312 C 245.691406 243.035156 244.808594 243.210938 243.917969 243.210938 Z M 197.40625 180.328125 L 243.917969 226.839844 L 249.605469 221.15625 L 203.089844 174.640625 Z M 197.40625 180.328125 " fill-opacity="1" fill-rule="nonzero"/><path fill="#000000" d="M 321.289062 165.839844 C 320.398438 165.839844 319.515625 165.664062 318.695312 165.324219 C 317.871094 164.984375 317.125 164.484375 316.496094 163.855469 L 260.394531 107.753906 C 259.121094 106.480469 258.40625 104.753906 258.40625 102.957031 C 258.40625 101.160156 259.121094 99.433594 260.394531 98.164062 L 275.667969 82.886719 C 276.9375 81.617188 278.664062 80.902344 280.464844 80.902344 C 282.261719 80.902344 283.988281 81.617188 285.257812 82.886719 L 341.359375 138.988281 C 342.628906 140.261719 343.34375 141.984375 343.34375 143.785156 C 343.34375 145.582031 342.628906 147.308594 341.359375 148.578125 L 326.085938 163.855469 C 324.8125 165.125 323.089844 165.839844 321.289062 165.839844 Z M 274.777344 102.957031 L 321.289062 149.46875 L 326.972656 143.785156 L 280.464844 97.273438 Z M 274.777344 102.957031 " fill-opacity="1" fill-rule="nonzero"/><path fill="#000000" d="M 250.804688 219.550781 C 249.914062 219.550781 249.03125 219.375 248.210938 219.035156 C 247.386719 218.695312 246.640625 218.195312 246.011719 217.5625 L 206.683594 178.234375 C 205.410156 176.964844 204.695312 175.238281 204.695312 173.441406 C 204.695312 171.640625 205.410156 169.917969 206.683594 168.644531 L 268.78125 106.546875 C 270.050781 105.277344 271.777344 104.5625 273.574219 104.5625 C 275.371094 104.5625 277.097656 105.277344 278.371094 106.546875 L 317.699219 145.875 C 318.96875 147.148438 319.683594 148.871094 319.683594 150.671875 C 319.683594 152.46875 318.96875 154.195312 317.699219 155.464844 L 255.601562 217.5625 C 254.972656 218.195312 254.222656 218.695312 253.402344 219.035156 C 252.578125 219.375 251.695312 219.550781 250.804688 219.550781 Z M 221.066406 173.441406 L 250.804688 203.179688 L 303.3125 150.671875 L 273.574219 120.933594 Z M 221.066406 173.441406 " fill-opacity="1" fill-rule="nonzero"/><path fill="#000000" d="M 389.519531 316.40625 C 389.230469 316.40625 388.9375 316.402344 388.648438 316.394531 C 384.957031 316.265625 381.328125 315.386719 377.988281 313.804688 C 374.644531 312.226562 371.664062 309.980469 369.222656 307.207031 L 269.476562 193.472656 C 268.34375 192.175781 267.742188 190.5 267.796875 188.777344 C 267.855469 187.058594 268.5625 185.421875 269.78125 184.207031 L 284.339844 169.644531 C 285.558594 168.425781 287.195312 167.71875 288.914062 167.660156 C 290.636719 167.605469 292.3125 168.203125 293.609375 169.339844 L 407.34375 269.085938 C 411.472656 272.707031 414.402344 277.503906 415.734375 282.832031 C 417.070312 288.164062 416.746094 293.773438 414.8125 298.914062 C 412.875 304.054688 409.417969 308.484375 404.898438 311.609375 C 400.378906 314.734375 395.015625 316.410156 389.519531 316.40625 Z M 283.859375 189.304688 L 379.417969 298.265625 C 380.632812 299.648438 382.117188 300.765625 383.78125 301.554688 C 385.445312 302.339844 387.25 302.777344 389.089844 302.835938 C 390.929688 302.898438 392.761719 302.578125 394.472656 301.902344 C 396.1875 301.226562 397.738281 300.207031 399.042969 298.90625 C 400.34375 297.601562 401.363281 296.046875 402.039062 294.335938 C 402.714844 292.625 403.035156 290.792969 402.972656 288.953125 C 402.914062 287.113281 402.476562 285.308594 401.691406 283.644531 C 400.902344 281.980469 399.785156 280.496094 398.402344 279.28125 L 289.441406 183.722656 Z M 283.859375 189.304688 " fill-opacity="1" fill-rule="nonzero"/><path fill="#000000" d="M 204.921875 283.917969 L 123.703125 283.917969 C 121.90625 283.917969 120.179688 283.203125 118.90625 281.929688 C 117.636719 280.660156 116.921875 278.933594 116.921875 277.136719 L 116.921875 253.519531 C 116.921875 251.71875 117.636719 249.996094 118.90625 248.722656 C 120.179688 247.453125 121.90625 246.738281 123.703125 246.738281 L 204.921875 246.738281 C 206.722656 246.738281 208.445312 247.453125 209.71875 248.722656 C 210.988281 249.996094 211.703125 251.71875 211.703125 253.519531 L 211.703125 277.136719 C 211.703125 278.933594 210.988281 280.660156 209.71875 281.929688 C 208.445312 283.203125 206.722656 283.917969 204.921875 283.917969 Z M 130.484375 270.355469 L 198.140625 270.355469 L 198.140625 260.300781 L 130.484375 260.300781 Z M 130.484375 270.355469 " fill-opacity="1" fill-rule="nonzero"/><path fill="#000000" d="M 224.21875 305.230469 L 104.40625 305.230469 C 102.609375 305.230469 100.882812 304.515625 99.609375 303.242188 C 98.339844 301.972656 97.625 300.246094 97.625 298.449219 L 97.625 277.136719 C 97.625 275.335938 98.339844 273.613281 99.609375 272.339844 C 100.882812 271.070312 102.609375 270.355469 104.40625 270.355469 L 224.21875 270.355469 C 226.019531 270.355469 227.742188 271.070312 229.015625 272.339844 C 230.285156 273.613281 231 275.335938 231 277.136719 L 231 298.449219 C 231 300.246094 230.285156 301.972656 229.015625 303.242188 C 227.742188 304.515625 226.019531 305.230469 224.21875 305.230469 Z M 111.1875 291.667969 L 217.4375 291.667969 L 217.4375 283.917969 L 111.1875 283.917969 Z M 111.1875 291.667969 " fill-opacity="1" fill-rule="nonzero"/><g clip-path="url(#864b9acc57)"><path fill="#000000" d="M 68.273438 119.125 L 6.816406 119.125 C 5.019531 119.125 3.292969 118.410156 2.023438 117.136719 C 0.75 115.867188 0.0351562 114.140625 0.0351562 112.34375 L 0.0351562 67.609375 C 0.046875 57.820312 3.941406 48.4375 10.863281 41.511719 C 17.785156 34.589844 27.171875 30.695312 36.960938 30.6875 L 38.128906 30.6875 C 47.921875 30.695312 57.304688 34.589844 64.226562 41.511719 C 71.152344 48.4375 75.042969 57.820312 75.054688 67.609375 L 75.054688 112.34375 C 75.054688 114.140625 74.339844 115.867188 73.070312 117.136719 C 71.796875 118.410156 70.074219 119.125 68.273438 119.125 Z M 13.597656 105.5625 L 61.492188 105.5625 L 61.492188 67.609375 C 61.488281 61.417969 59.023438 55.480469 54.644531 51.097656 C 50.261719 46.71875 44.324219 44.253906 38.128906 44.246094 L 36.960938 44.246094 C 30.765625 44.253906 24.828125 46.71875 20.449219 51.097656 C 16.070312 55.480469 13.605469 61.417969 13.597656 67.609375 Z M 13.597656 105.5625 " fill-opacity="1" fill-rule="nonzero"/></g><path fill="#000000" d="M 232.105469 87.683594 L 108.351562 87.683594 C 106.554688 87.683594 104.828125 86.96875 103.558594 85.695312 C 102.285156 84.425781 101.570312 82.699219 101.570312 80.902344 C 101.570312 79.101562 102.285156 77.378906 103.558594 76.105469 C 104.828125 74.835938 106.554688 74.121094 108.351562 74.121094 L 232.105469 74.121094 C 233.902344 74.121094 235.628906 74.835938 236.898438 76.105469 C 238.171875 77.378906 238.886719 79.101562 238.886719 80.902344 C 238.886719 82.699219 238.171875 84.425781 236.898438 85.695312 C 235.628906 86.96875 233.902344 87.683594 232.105469 87.683594 Z M 232.105469 87.683594 " fill-opacity="1" fill-rule="nonzero"/><path fill="#000000" d="M 223.503906 123.367188 L 108.351562 123.367188 C 106.554688 123.367188 104.828125 122.65625 103.558594 121.382812 C 102.285156 120.113281 101.570312 118.386719 101.570312 116.589844 C 101.570312 114.789062 102.285156 113.066406 103.558594 111.792969 C 104.828125 110.523438 106.554688 109.808594 108.351562 109.808594 L 223.503906 109.808594 C 225.300781 109.808594 227.027344 110.523438 228.300781 111.792969 C 229.570312 113.066406 230.285156 114.789062 230.285156 116.589844 C 230.285156 118.386719 229.570312 120.113281 228.300781 121.382812 C 227.027344 122.65625 225.300781 123.367188 223.503906 123.367188 Z M 223.503906 123.367188 " fill-opacity="1" fill-rule="nonzero"/><path fill="#000000" d="M 176.304688 159.058594 L 108.351562 159.058594 C 106.554688 159.058594 104.828125 158.34375 103.558594 157.070312 C 102.285156 155.800781 101.570312 154.074219 101.570312 152.277344 C 101.570312 150.476562 102.285156 148.753906 103.558594 147.480469 C 104.828125 146.210938 106.554688 145.496094 108.351562 145.496094 L 176.304688 145.496094 C 178.101562 145.496094 179.828125 146.210938 181.097656 147.480469 C 182.371094 148.753906 183.085938 150.476562 183.085938 152.277344 C 183.085938 154.074219 182.371094 155.800781 181.097656 157.070312 C 179.828125 158.34375 178.101562 159.058594 176.304688 159.058594 Z M 176.304688 159.058594 " fill-opacity="1" fill-rule="nonzero"/><path fill="#000000" d="M 321.390625 294.574219 L 255.410156 294.574219 C 253.613281 294.574219 251.886719 293.859375 250.617188 292.585938 C 249.34375 291.316406 248.628906 289.589844 248.628906 287.792969 C 248.628906 285.992188 249.34375 284.269531 250.617188 282.996094 C 251.886719 281.726562 253.613281 281.011719 255.410156 281.011719 L 321.390625 281.011719 C 323.1875 281.011719 324.914062 281.726562 326.183594 282.996094 C 327.457031 284.269531 328.171875 285.992188 328.171875 287.792969 C 328.171875 289.589844 327.457031 291.316406 326.183594 292.585938 C 324.914062 293.859375 323.1875 294.574219 321.390625 294.574219 Z M 321.390625 294.574219 " fill-opacity="1" fill-rule="nonzero"/></svg>