<svg xmlns="http://www.w3.org/2000/svg" xmlns:xlink="http://www.w3.org/1999/xlink" width="600" zoomAndPan="magnify" viewBox="0 0 450 449.999984" height="600" preserveAspectRatio="xMidYMid meet" version="1.0"><defs><clipPath id="0fd37254d8"><path d="M 34.3125 0 L 383 0 L 383 450 L 34.3125 450 Z M 34.3125 0 " clip-rule="nonzero"/></clipPath><clipPath id="410707f726"><path d="M 297 88 L 449.8125 88 L 449.8125 196 L 297 196 Z M 297 88 " clip-rule="nonzero"/></clipPath></defs><g clip-path="url(#0fd37254d8)"><path fill="#000000" d="M 84.429688 8.210938 L 119.410156 8.210938 C 119.84375 3.457031 123.945312 0 128.695312 0 L 287.625 0 C 292.375 0 296.480469 3.671875 296.695312 8.210938 L 331.890625 8.210938 C 345.710938 8.210938 358.019531 14.042969 367.304688 22.898438 C 376.375 31.972656 381.988281 44.503906 381.988281 58.328125 L 381.988281 100.023438 L 365.363281 109.746094 L 365.363281 58.546875 C 365.363281 49.472656 361.691406 40.832031 355.429688 34.996094 C 349.597656 28.949219 340.960938 25.058594 331.890625 25.058594 L 296.695312 25.058594 C 296.261719 29.8125 292.160156 33.484375 287.625 33.484375 L 128.695312 33.484375 C 123.945312 33.484375 119.84375 29.8125 119.410156 25.058594 L 84.429688 25.058594 C 75.359375 25.058594 66.722656 28.734375 60.675781 34.996094 C 54.84375 40.832031 50.957031 49.472656 50.957031 58.546875 L 50.957031 400.097656 C 50.957031 409.167969 54.628906 417.8125 60.675781 423.644531 C 66.722656 429.691406 75.144531 433.582031 84.429688 433.582031 L 332.109375 433.582031 C 341.175781 433.582031 349.816406 429.910156 355.644531 423.644531 C 361.691406 417.8125 365.578125 409.167969 365.578125 400.097656 L 365.578125 189.246094 L 382.207031 179.523438 L 382.207031 399.878906 C 382.207031 413.707031 376.375 426.234375 367.523438 435.308594 C 358.453125 444.382812 345.929688 450 332.109375 450 L 84.429688 450 C 70.609375 450 58.085938 444.167969 49.015625 435.308594 C 39.945312 426.234375 34.332031 413.707031 34.332031 399.878906 L 34.332031 58.328125 C 34.332031 44.503906 39.945312 32.1875 49.015625 22.898438 C 58.085938 13.828125 70.609375 8.210938 84.429688 8.210938 Z M 84.429688 8.210938 " fill-opacity="1" fill-rule="nonzero"/></g><path fill="#000000" d="M 105.160156 241.957031 C 102.566406 239.582031 102.566406 235.695312 105.160156 233.316406 C 107.535156 230.726562 111.421875 230.726562 113.796875 233.316406 L 125.023438 244.550781 L 146.835938 206.960938 C 148.347656 204.152344 152.234375 203.074219 155.253906 204.800781 C 158.0625 206.3125 159.144531 210.203125 157.414062 213.226562 L 132.152344 257.296875 C 131.71875 257.730469 131.503906 258.378906 130.855469 258.808594 C 128.480469 261.1875 124.59375 261.1875 122.21875 258.808594 L 105.160156 241.742188 Z M 105.160156 241.957031 " fill-opacity="1" fill-rule="nonzero"/><path fill="#000000" d="M 180.089844 241.527344 C 176.632812 241.527344 174.042969 238.933594 174.042969 235.476562 C 174.042969 232.019531 176.632812 229.429688 180.089844 229.429688 L 307.277344 229.429688 C 310.730469 229.429688 313.320312 232.019531 313.320312 235.476562 C 313.320312 238.933594 310.730469 241.527344 307.277344 241.527344 Z M 180.089844 241.527344 " fill-opacity="1" fill-rule="nonzero"/><path fill="#000000" d="M 105.160156 306.121094 C 102.566406 303.746094 102.566406 299.855469 105.160156 297.480469 C 107.535156 294.886719 111.421875 294.886719 113.796875 297.480469 L 125.023438 308.714844 L 146.835938 271.125 C 148.347656 268.316406 152.234375 267.234375 155.253906 268.964844 C 158.0625 270.476562 159.144531 274.363281 157.414062 277.386719 L 132.152344 321.460938 C 131.71875 321.890625 131.503906 322.539062 130.855469 322.972656 C 128.480469 325.347656 124.59375 325.347656 122.21875 322.972656 L 105.160156 305.90625 Z M 105.160156 306.121094 " fill-opacity="1" fill-rule="nonzero"/><path fill="#000000" d="M 180.089844 305.6875 C 176.632812 305.6875 174.042969 303.097656 174.042969 299.640625 C 174.042969 296.183594 176.632812 293.589844 180.089844 293.589844 L 307.277344 293.589844 C 310.730469 293.589844 313.320312 296.183594 313.320312 299.640625 C 313.320312 303.097656 310.730469 305.6875 307.277344 305.6875 Z M 180.089844 305.6875 " fill-opacity="1" fill-rule="nonzero"/><path fill="#000000" d="M 105.160156 370.285156 C 102.566406 367.90625 102.566406 364.019531 105.160156 361.640625 C 107.535156 359.050781 111.421875 359.050781 113.796875 361.640625 L 125.023438 372.875 L 146.835938 335.285156 C 148.347656 332.476562 152.234375 331.398438 155.253906 333.125 C 158.0625 334.636719 159.144531 338.527344 157.414062 341.335938 L 132.152344 385.621094 C 131.71875 386.054688 131.503906 386.703125 130.855469 387.132812 C 128.480469 389.511719 124.59375 389.511719 122.21875 387.132812 L 105.160156 370.066406 Z M 105.160156 370.285156 " fill-opacity="1" fill-rule="nonzero"/><path fill="#000000" d="M 180.089844 369.851562 C 176.632812 369.851562 174.042969 367.257812 174.042969 363.800781 C 174.042969 360.34375 176.632812 357.539062 180.089844 357.539062 L 307.277344 357.539062 C 310.730469 357.539062 313.320312 360.34375 313.320312 363.800781 C 313.320312 367.257812 310.730469 369.851562 307.277344 369.851562 Z M 180.089844 369.851562 " fill-opacity="1" fill-rule="nonzero"/><path fill="#000000" d="M 208.375 62.867188 C 239.902344 62.867188 265.382812 88.359375 265.382812 119.898438 C 265.382812 151.441406 239.902344 176.933594 208.375 176.933594 C 176.847656 176.933594 151.367188 151.441406 151.367188 119.898438 C 151.367188 88.359375 176.847656 62.867188 208.375 62.867188 Z M 208.375 90.300781 C 217.445312 90.300781 225.003906 97.648438 225.003906 106.9375 C 225.003906 116.011719 217.660156 123.570312 208.375 123.570312 C 199.308594 123.570312 191.75 116.226562 191.75 106.9375 C 191.75 97.863281 199.089844 90.300781 208.375 90.300781 Z M 196.929688 128.324219 L 219.820312 128.324219 C 230.617188 128.324219 239.253906 136.964844 239.253906 147.769531 L 239.253906 149.28125 L 177.496094 149.28125 L 177.496094 147.769531 C 177.496094 136.964844 186.136719 128.324219 196.929688 128.324219 Z M 196.929688 128.324219 " fill-opacity="1" fill-rule="evenodd"/><g clip-path="url(#410707f726)"><path fill="#000000" d="M 429.28125 90.734375 L 448.28125 123.570312 C 449.792969 126.164062 448.929688 129.40625 446.339844 130.917969 L 335.347656 195.078125 C 334.269531 195.726562 333.1875 195.941406 331.890625 195.726562 L 301.878906 191.191406 C 300.148438 190.972656 298.855469 190.109375 297.988281 188.597656 C 297.125 187.085938 297.125 185.574219 297.558594 184.0625 L 308.570312 155.761719 C 309.003906 154.679688 309.867188 153.601562 310.945312 153.167969 L 421.9375 89.007812 C 424.53125 87.492188 427.769531 88.359375 429.28125 90.949219 Z M 422.800781 100.023438 C 423.449219 101.320312 423.019531 102.832031 421.9375 103.480469 L 322.824219 160.730469 C 321.527344 161.378906 320.015625 160.945312 319.367188 159.867188 C 318.71875 158.570312 319.152344 157.058594 320.230469 156.410156 L 419.347656 99.160156 C 420.640625 98.511719 422.152344 98.945312 422.800781 100.023438 Z M 422.800781 100.023438 " fill-opacity="1" fill-rule="evenodd"/></g></svg>