<svg xmlns="http://www.w3.org/2000/svg" xmlns:xlink="http://www.w3.org/1999/xlink" width="600" zoomAndPan="magnify" viewBox="0 0 450 449.999984" height="600" preserveAspectRatio="xMidYMid meet" version="1.0"><defs><clipPath id="dec2ec0b1d"><path d="M 52.5 0 L 397.5 0 L 397.5 390 L 52.5 390 Z M 52.5 0 " clip-rule="nonzero"/></clipPath></defs><g clip-path="url(#dec2ec0b1d)"><path fill="#000000" d="M 390 0 L 60 0 C 55.875 0 52.5 3.375 52.5 7.5 L 52.5 382.5 C 52.5 386.625 55.875 390 60 390 L 111.226562 390 C 115.351562 390 118.726562 386.625 118.726562 382.5 C 118.726562 378.375 115.351562 375 111.226562 375 L 67.5 375 L 67.5 15 L 382.5 15 L 382.5 375 L 338.773438 375 C 334.648438 375 331.273438 378.375 331.273438 382.5 C 331.273438 386.625 334.648438 390 338.773438 390 L 390 390 C 394.125 390 397.5 386.625 397.5 382.5 L 397.5 7.5 C 397.5 3.375 394.125 0 390 0 Z M 390 0 " fill-opacity="1" fill-rule="nonzero"/></g><path fill="#000000" d="M 312 249.523438 C 269.476562 252.824219 229.574219 226.5 229.125 226.273438 C 226.648438 224.625 223.351562 224.625 220.875 226.273438 C 220.425781 226.5 180.449219 252.824219 138 249.523438 C 134.699219 249.300781 131.625 251.175781 130.425781 254.25 C 129.375 256.875 106.125 317.851562 132.375 374.773438 C 148.199219 409.125 178.5 434.324219 222.523438 449.550781 C 223.351562 449.851562 224.175781 450 225 450 C 225.824219 450 226.648438 449.851562 227.476562 449.550781 C 271.5 434.324219 301.800781 409.125 317.625 374.773438 C 343.875 317.851562 320.625 256.875 319.574219 254.25 C 318.375 251.175781 315.300781 249.300781 312 249.523438 Z M 275.625 312.449219 L 223.125 372.449219 C 221.699219 374.101562 219.601562 375 217.5 375 C 215.925781 375 214.351562 374.476562 213 373.5 L 183 351 C 179.699219 348.523438 179.023438 343.800781 181.5 340.5 C 183.976562 337.199219 188.699219 336.523438 192 339 L 216.449219 357.300781 L 264.375 302.550781 C 267.074219 299.398438 271.800781 299.101562 274.949219 301.875 C 278.023438 304.574219 278.398438 309.300781 275.625 312.449219 Z M 275.625 312.449219 " fill-opacity="1" fill-rule="nonzero"/><path fill="#000000" d="M 112.5 195 L 337.5 195 C 341.625 195 345 191.625 345 187.5 C 345 183.375 341.625 180 337.5 180 L 112.5 180 C 108.375 180 105 183.375 105 187.5 C 105 191.625 108.375 195 112.5 195 Z M 112.5 195 " fill-opacity="1" fill-rule="nonzero"/><path fill="#000000" d="M 112.5 150.75 L 337.5 150.75 C 341.625 150.75 345 147.375 345 143.25 C 345 139.125 341.625 135.75 337.5 135.75 L 112.5 135.75 C 108.375 135.75 105 139.125 105 143.25 C 105 147.375 108.375 150.75 112.5 150.75 Z M 112.5 150.75 " fill-opacity="1" fill-rule="nonzero"/><path fill="#000000" d="M 112.5 106.5 L 337.5 106.5 C 341.625 106.5 345 103.125 345 99 C 345 94.875 341.625 91.5 337.5 91.5 L 112.5 91.5 C 108.375 91.5 105 94.875 105 99 C 105 103.125 108.375 106.5 112.5 106.5 Z M 112.5 106.5 " fill-opacity="1" fill-rule="nonzero"/><path fill="#000000" d="M 112.5 62.25 L 337.5 62.25 C 341.625 62.25 345 58.875 345 54.75 C 345 50.625 341.625 47.25 337.5 47.25 L 112.5 47.25 C 108.375 47.25 105 50.625 105 54.75 C 105 58.875 108.375 62.25 112.5 62.25 Z M 112.5 62.25 " fill-opacity="1" fill-rule="nonzero"/></svg>