<svg xmlns="http://www.w3.org/2000/svg" xmlns:xlink="http://www.w3.org/1999/xlink" width="600" zoomAndPan="magnify" viewBox="0 0 450 449.999984" height="600" preserveAspectRatio="xMidYMid meet" version="1.0"><defs><clipPath id="16801c9cf8"><path d="M 30 45 L 400 45 L 400 414 L 30 414 Z M 30 45 " clip-rule="nonzero"/></clipPath></defs><g clip-path="url(#16801c9cf8)"><path fill="#000000" d="M 215.140625 44.65625 C 113.253906 44.65625 30.4375 127.511719 30.4375 229.449219 C 40.578125 474.578125 389.707031 474.578125 399.84375 229.449219 C 399.84375 127.511719 317.027344 44.65625 215.140625 44.65625 Z M 313.589844 306.976562 C 302.59375 317.632812 289.023438 335.855469 271.324219 332.417969 C 232.152344 327.777344 194.179688 310.585938 164.113281 280.503906 C 136.964844 255.234375 93.667969 177.707031 121.15625 147.453125 C 121.15625 147.453125 137.480469 131.121094 137.480469 131.121094 C 143.835938 124.761719 154.488281 125.105469 160.332031 132.152344 L 176.824219 159.65625 C 186.277344 171.519531 176.140625 181.316406 167.546875 189.222656 C 160.847656 195.929688 160.503906 205.898438 164.457031 214.664062 C 178.027344 245.089844 199.847656 267.09375 230.261719 280.503906 C 239.023438 284.285156 248.988281 284.113281 255.6875 277.410156 L 264.109375 268.984375 C 269.777344 263.3125 278.882812 262.796875 285.070312 268.125 L 312.558594 284.628906 C 319.605469 290.472656 319.949219 301.132812 313.589844 307.492188 Z M 313.589844 306.976562 " fill-opacity="1" fill-rule="nonzero"/></g></svg>