<svg xmlns="http://www.w3.org/2000/svg" xmlns:xlink="http://www.w3.org/1999/xlink" width="600" zoomAndPan="magnify" viewBox="0 0 450 449.999984" height="600" preserveAspectRatio="xMidYMid meet" version="1.0"><path fill="#000000" d="M 425.164062 364.039062 L 283.9375 246.773438 C 279.8125 243.347656 273.828125 243.347656 269.699219 246.773438 L 231.652344 278.367188 C 227.820312 281.542969 222.273438 281.542969 218.445312 278.367188 L 180.398438 246.773438 C 176.269531 243.347656 170.289062 243.347656 166.15625 246.773438 L 24.929688 364.039062 C 22.988281 365.652344 24.128906 368.808594 26.65625 368.808594 L 423.441406 368.808594 C 425.96875 368.808594 427.105469 365.652344 425.164062 364.039062 " fill-opacity="1" fill-rule="nonzero"/><path fill="#000000" d="M 148.515625 220.304688 L 4.484375 100.710938 C 2.726562 99.25 0.0585938 100.5 0.0585938 102.785156 L 0.0585938 347.1875 C 0.0585938 349.472656 2.726562 350.722656 4.484375 349.265625 L 148.515625 229.675781 C 151.449219 227.234375 151.449219 222.738281 148.515625 220.304688 " fill-opacity="1" fill-rule="nonzero"/><path fill="#000000" d="M 24.933594 85.9375 L 219.644531 247.609375 C 222.777344 250.210938 227.320312 250.210938 230.449219 247.609375 L 425.164062 85.9375 C 427.105469 84.324219 425.96875 81.160156 423.441406 81.160156 L 26.65625 81.160156 C 24.128906 81.160156 22.988281 84.324219 24.933594 85.9375 " fill-opacity="1" fill-rule="nonzero"/><path fill="#000000" d="M 445.617188 100.710938 L 301.585938 220.304688 C 298.648438 222.738281 298.648438 227.234375 301.585938 229.675781 L 445.617188 349.265625 C 447.371094 350.722656 450.035156 349.476562 450.035156 347.191406 L 450.035156 102.785156 C 450.035156 100.5 447.371094 99.25 445.617188 100.710938 " fill-opacity="1" fill-rule="nonzero"/></svg>