<svg xmlns="http://www.w3.org/2000/svg" xmlns:xlink="http://www.w3.org/1999/xlink" width="300" zoomAndPan="magnify" viewBox="0 0 224.87999 74.999997" height="100" preserveAspectRatio="xMidYMid meet" version="1.2"><defs/><g id="ab8302d351"><g style="fill:#ffffff;fill-opacity:1;"><g transform="translate(36.830572, 37.241443)"><path style="stroke:none" d="M 3.4375 -34.328125 L 16.671875 -34.328125 C 19.054688 -34.328125 21.210938 -33.9375 23.140625 -33.15625 C 25.078125 -32.375 26.726562 -31.242188 28.09375 -29.765625 C 29.46875 -28.296875 30.523438 -26.5 31.265625 -24.375 C 32.003906 -22.25 32.375 -19.847656 32.375 -17.171875 C 32.375 -14.453125 32.003906 -12.03125 31.265625 -9.90625 C 30.523438 -7.78125 29.46875 -5.984375 28.09375 -4.515625 C 26.726562 -3.046875 25.078125 -1.925781 23.140625 -1.15625 C 21.210938 -0.382812 19.054688 0 16.671875 0 L 3.4375 0 Z M 16.4375 -6.625 C 17.613281 -6.625 18.710938 -6.832031 19.734375 -7.25 C 20.765625 -7.675781 21.671875 -8.332031 22.453125 -9.21875 C 23.242188 -10.101562 23.867188 -11.207031 24.328125 -12.53125 C 24.785156 -13.851562 25.015625 -15.398438 25.015625 -17.171875 C 25.015625 -18.929688 24.785156 -20.472656 24.328125 -21.796875 C 23.867188 -23.117188 23.242188 -24.222656 22.453125 -25.109375 C 21.671875 -25.992188 20.765625 -26.648438 19.734375 -27.078125 C 18.710938 -27.503906 17.613281 -27.71875 16.4375 -27.71875 L 10.796875 -27.71875 L 10.796875 -6.625 Z M 16.4375 -6.625 "/></g></g><g style="fill:#73a1d2;fill-opacity:1;"><g transform="translate(71.171619, 37.241443)"><path style="stroke:none" d="M 3.4375 -34.328125 L 18.140625 -34.328125 C 19.847656 -34.328125 21.410156 -34.054688 22.828125 -33.515625 C 24.253906 -32.984375 25.472656 -32.222656 26.484375 -31.234375 C 27.492188 -30.253906 28.273438 -29.070312 28.828125 -27.6875 C 29.390625 -26.300781 29.671875 -24.753906 29.671875 -23.046875 C 29.671875 -20.890625 29.296875 -19.113281 28.546875 -17.71875 C 27.796875 -16.332031 26.976562 -15.234375 26.09375 -14.421875 C 25.050781 -13.472656 23.875 -12.753906 22.5625 -12.265625 L 30.90625 0 L 22.5625 0 L 14.71875 -11.765625 L 10.796875 -11.765625 L 10.796875 0 L 3.4375 0 Z M 17.65625 -18.390625 C 19.03125 -18.390625 20.148438 -18.796875 21.015625 -19.609375 C 21.878906 -20.429688 22.3125 -21.578125 22.3125 -23.046875 C 22.3125 -24.523438 21.878906 -25.671875 21.015625 -26.484375 C 20.148438 -27.304688 19.03125 -27.71875 17.65625 -27.71875 L 10.796875 -27.71875 L 10.796875 -18.390625 Z M 17.65625 -18.390625 "/></g></g><g style="fill:#f8bc41;fill-opacity:1;"><g transform="translate(103.310716, 37.241443)"><path style="stroke:none" d="M 3.4375 -34.328125 L 17.65625 -34.328125 C 19.425781 -34.328125 21.050781 -34.03125 22.53125 -33.4375 C 24.019531 -32.851562 25.285156 -32.046875 26.328125 -31.015625 C 27.378906 -29.992188 28.195312 -28.753906 28.78125 -27.296875 C 29.375 -25.835938 29.671875 -24.257812 29.671875 -22.5625 C 29.671875 -20.832031 29.375 -19.242188 28.78125 -17.796875 C 28.195312 -16.359375 27.378906 -15.125 26.328125 -14.09375 C 25.285156 -13.070312 24.019531 -12.265625 22.53125 -11.671875 C 21.050781 -11.085938 19.425781 -10.796875 17.65625 -10.796875 L 10.796875 -10.796875 L 10.796875 0 L 3.4375 0 Z M 16.921875 -17.40625 C 18.648438 -17.40625 19.976562 -17.863281 20.90625 -18.78125 C 21.84375 -19.695312 22.3125 -20.957031 22.3125 -22.5625 C 22.3125 -24.164062 21.84375 -25.425781 20.90625 -26.34375 C 19.976562 -27.257812 18.648438 -27.71875 16.921875 -27.71875 L 10.796875 -27.71875 L 10.796875 -17.40625 Z M 16.921875 -17.40625 "/></g></g><g style="fill:#4dac34;fill-opacity:1;"><g transform="translate(134.957888, 37.241443)"><path style="stroke:none" d="M 3.4375 -34.328125 L 17.65625 -34.328125 C 19.425781 -34.328125 21.050781 -34.03125 22.53125 -33.4375 C 24.019531 -32.851562 25.285156 -32.046875 26.328125 -31.015625 C 27.378906 -29.992188 28.195312 -28.753906 28.78125 -27.296875 C 29.375 -25.835938 29.671875 -24.257812 29.671875 -22.5625 C 29.671875 -20.832031 29.375 -19.242188 28.78125 -17.796875 C 28.195312 -16.359375 27.378906 -15.125 26.328125 -14.09375 C 25.285156 -13.070312 24.019531 -12.265625 22.53125 -11.671875 C 21.050781 -11.085938 19.425781 -10.796875 17.65625 -10.796875 L 10.796875 -10.796875 L 10.796875 0 L 3.4375 0 Z M 16.921875 -17.40625 C 18.648438 -17.40625 19.976562 -17.863281 20.90625 -18.78125 C 21.84375 -19.695312 22.3125 -20.957031 22.3125 -22.5625 C 22.3125 -24.164062 21.84375 -25.425781 20.90625 -26.34375 C 19.976562 -27.257812 18.648438 -27.71875 16.921875 -27.71875 L 10.796875 -27.71875 L 10.796875 -17.40625 Z M 16.921875 -17.40625 "/></g></g><g style="fill:#ffffff;fill-opacity:1;"><g transform="translate(166.605061, 37.241443)"><path style="stroke:none" d="M 15.203125 0.484375 C 13.304688 0.484375 11.539062 0.253906 9.90625 -0.203125 C 8.269531 -0.660156 6.835938 -1.335938 5.609375 -2.234375 C 4.390625 -3.128906 3.398438 -4.253906 2.640625 -5.609375 C 1.890625 -6.972656 1.414062 -8.535156 1.21875 -10.296875 L 8.578125 -10.296875 C 8.835938 -8.921875 9.539062 -7.84375 10.6875 -7.0625 C 11.832031 -6.28125 13.335938 -5.890625 15.203125 -5.890625 C 17.523438 -5.890625 19.164062 -6.269531 20.125 -7.03125 C 21.09375 -7.800781 21.578125 -8.804688 21.578125 -10.046875 C 21.578125 -10.898438 21.296875 -11.578125 20.734375 -12.078125 C 20.179688 -12.585938 19.460938 -13 18.578125 -13.3125 C 17.703125 -13.625 16.691406 -13.882812 15.546875 -14.09375 C 14.398438 -14.3125 13.222656 -14.554688 12.015625 -14.828125 C 10.804688 -15.109375 9.628906 -15.460938 8.484375 -15.890625 C 7.335938 -16.316406 6.320312 -16.894531 5.4375 -17.625 C 4.5625 -18.363281 3.84375 -19.304688 3.28125 -20.453125 C 2.726562 -21.597656 2.453125 -23.035156 2.453125 -24.765625 C 2.453125 -26.429688 2.78125 -27.882812 3.4375 -29.125 C 4.09375 -30.375 5 -31.421875 6.15625 -32.265625 C 7.3125 -33.117188 8.664062 -33.757812 10.21875 -34.1875 C 11.78125 -34.613281 13.441406 -34.828125 15.203125 -34.828125 C 17.296875 -34.828125 19.125 -34.570312 20.6875 -34.0625 C 22.257812 -33.550781 23.585938 -32.835938 24.671875 -31.921875 C 25.753906 -31.015625 26.601562 -29.945312 27.21875 -28.71875 C 27.84375 -27.488281 28.253906 -26.171875 28.453125 -24.765625 L 21.09375 -24.765625 C 20.832031 -25.878906 20.226562 -26.769531 19.28125 -27.4375 C 18.332031 -28.113281 17.054688 -28.453125 15.453125 -28.453125 C 13.585938 -28.453125 12.21875 -28.082031 11.34375 -27.34375 C 10.476562 -26.601562 10.046875 -25.742188 10.046875 -24.765625 C 10.046875 -23.878906 10.320312 -23.164062 10.875 -22.625 C 11.4375 -22.09375 12.160156 -21.65625 13.046875 -21.3125 C 13.929688 -20.96875 14.941406 -20.671875 16.078125 -20.421875 C 17.222656 -20.179688 18.398438 -19.910156 19.609375 -19.609375 C 20.828125 -19.316406 22.003906 -18.957031 23.140625 -18.53125 C 24.285156 -18.113281 25.300781 -17.546875 26.1875 -16.828125 C 27.070312 -16.109375 27.789062 -15.207031 28.34375 -14.125 C 28.90625 -13.039062 29.1875 -11.679688 29.1875 -10.046875 C 29.1875 -8.578125 28.882812 -7.203125 28.28125 -5.921875 C 27.675781 -4.648438 26.785156 -3.53125 25.609375 -2.5625 C 24.429688 -1.601562 22.96875 -0.851562 21.21875 -0.3125 C 19.46875 0.21875 17.460938 0.484375 15.203125 0.484375 Z M 15.203125 0.484375 "/></g></g><g style="fill:#ffffff;fill-opacity:1;"><g transform="translate(39.277364, 52.650103)"><path style="stroke:none" d="M 0.6875 -5.59375 L 2.5625 -5.59375 C 2.925781 -5.59375 3.265625 -5.53125 3.578125 -5.40625 C 3.890625 -5.289062 4.15625 -5.113281 4.375 -4.875 C 4.601562 -4.644531 4.773438 -4.351562 4.890625 -4 C 5.015625 -3.65625 5.078125 -3.253906 5.078125 -2.796875 C 5.078125 -2.335938 5.015625 -1.929688 4.890625 -1.578125 C 4.773438 -1.234375 4.601562 -0.941406 4.375 -0.703125 C 4.15625 -0.472656 3.890625 -0.296875 3.578125 -0.171875 C 3.265625 -0.0546875 2.925781 0 2.5625 0 L 0.6875 0 Z M 2.5625 -0.59375 C 2.832031 -0.59375 3.078125 -0.640625 3.296875 -0.734375 C 3.523438 -0.828125 3.71875 -0.96875 3.875 -1.15625 C 4.039062 -1.34375 4.171875 -1.570312 4.265625 -1.84375 C 4.359375 -2.113281 4.40625 -2.429688 4.40625 -2.796875 C 4.40625 -3.160156 4.359375 -3.476562 4.265625 -3.75 C 4.171875 -4.019531 4.039062 -4.25 3.875 -4.4375 C 3.71875 -4.625 3.523438 -4.765625 3.296875 -4.859375 C 3.078125 -4.953125 2.832031 -5 2.5625 -5 L 1.359375 -5 L 1.359375 -0.59375 Z M 2.5625 -0.59375 "/></g></g><g style="fill:#ffffff;fill-opacity:1;"><g transform="translate(44.754888, 52.650103)"><path style="stroke:none" d="M 0.6875 -5.59375 L 4.203125 -5.59375 L 4.203125 -5 L 1.359375 -5 L 1.359375 -3.125 L 4.046875 -3.125 L 4.046875 -2.515625 L 1.359375 -2.515625 L 1.359375 -0.59375 L 4.28125 -0.59375 L 4.28125 0 L 0.6875 0 Z M 0.6875 -5.59375 "/></g></g><g style="fill:#ffffff;fill-opacity:1;"><g transform="translate(49.472752, 52.650103)"><path style="stroke:none" d="M 0.6875 -5.59375 L 2.796875 -5.59375 C 3.078125 -5.59375 3.328125 -5.546875 3.546875 -5.453125 C 3.773438 -5.367188 3.96875 -5.25 4.125 -5.09375 C 4.28125 -4.9375 4.394531 -4.75 4.46875 -4.53125 C 4.550781 -4.320312 4.59375 -4.09375 4.59375 -3.84375 C 4.59375 -3.59375 4.550781 -3.359375 4.46875 -3.140625 C 4.394531 -2.929688 4.28125 -2.75 4.125 -2.59375 C 3.96875 -2.4375 3.773438 -2.3125 3.546875 -2.21875 C 3.328125 -2.125 3.078125 -2.078125 2.796875 -2.078125 L 1.359375 -2.078125 L 1.359375 0 L 0.6875 0 Z M 2.765625 -2.6875 C 3.117188 -2.6875 3.398438 -2.789062 3.609375 -3 C 3.816406 -3.21875 3.921875 -3.5 3.921875 -3.84375 C 3.921875 -4.1875 3.816406 -4.460938 3.609375 -4.671875 C 3.398438 -4.890625 3.117188 -5 2.765625 -5 L 1.359375 -5 L 1.359375 -2.6875 Z M 2.765625 -2.6875 "/></g></g><g style="fill:#ffffff;fill-opacity:1;"><g transform="translate(54.150636, 52.650103)"><path style="stroke:none" d="M 2.125 -5.59375 L 2.875 -5.59375 L 5 0 L 4.3125 0 L 3.796875 -1.40625 L 1.203125 -1.40625 L 0.6875 0 L 0 0 Z M 3.5625 -2 L 2.515625 -4.84375 L 2.484375 -4.84375 L 1.4375 -2 Z M 3.5625 -2 "/></g></g><g style="fill:#ffffff;fill-opacity:1;"><g transform="translate(59.14837, 52.650103)"><path style="stroke:none" d="M 0.6875 -5.59375 L 2.84375 -5.59375 C 3.113281 -5.59375 3.351562 -5.550781 3.5625 -5.46875 C 3.78125 -5.394531 3.96875 -5.28125 4.125 -5.125 C 4.28125 -4.976562 4.394531 -4.800781 4.46875 -4.59375 C 4.550781 -4.394531 4.59375 -4.171875 4.59375 -3.921875 C 4.59375 -3.640625 4.546875 -3.394531 4.453125 -3.1875 C 4.359375 -2.988281 4.238281 -2.820312 4.09375 -2.6875 C 3.945312 -2.550781 3.785156 -2.445312 3.609375 -2.375 C 3.429688 -2.300781 3.253906 -2.253906 3.078125 -2.234375 L 4.6875 0 L 3.921875 0 L 2.3125 -2.234375 L 1.359375 -2.234375 L 1.359375 0 L 0.6875 0 Z M 2.796875 -2.84375 C 3.160156 -2.84375 3.4375 -2.941406 3.625 -3.140625 C 3.820312 -3.335938 3.921875 -3.597656 3.921875 -3.921875 C 3.921875 -4.242188 3.820312 -4.503906 3.625 -4.703125 C 3.4375 -4.898438 3.160156 -5 2.796875 -5 L 1.359375 -5 L 1.359375 -2.84375 Z M 2.796875 -2.84375 "/></g></g><g style="fill:#ffffff;fill-opacity:1;"><g transform="translate(64.066144, 52.650103)"><path style="stroke:none" d="M 2 -5 L 0.203125 -5 L 0.203125 -5.59375 L 4.484375 -5.59375 L 4.484375 -5 L 2.6875 -5 L 2.6875 0 L 2 0 Z M 2 -5 "/></g></g><g style="fill:#ffffff;fill-opacity:1;"><g transform="translate(68.184287, 52.650103)"><path style="stroke:none" d="M 2.125 -5.59375 L 2.875 -5.59375 L 5 0 L 4.3125 0 L 3.796875 -1.40625 L 1.203125 -1.40625 L 0.6875 0 L 0 0 Z M 3.5625 -2 L 2.515625 -4.84375 L 2.484375 -4.84375 L 1.4375 -2 Z M 3.5625 -2 "/></g></g><g style="fill:#ffffff;fill-opacity:1;"><g transform="translate(73.182021, 52.650103)"><path style="stroke:none" d="M 0.6875 -5.59375 L 1.765625 -5.59375 L 3.4375 -1 L 3.484375 -1 L 5.15625 -5.59375 L 6.234375 -5.59375 L 6.234375 0 L 5.5625 0 L 5.5625 -4.765625 L 5.515625 -4.765625 L 3.765625 0 L 3.15625 0 L 1.40625 -4.765625 L 1.359375 -4.765625 L 1.359375 0 L 0.6875 0 Z M 0.6875 -5.59375 "/></g></g><g style="fill:#ffffff;fill-opacity:1;"><g transform="translate(80.098886, 52.650103)"><path style="stroke:none" d="M 0.6875 -5.59375 L 4.203125 -5.59375 L 4.203125 -5 L 1.359375 -5 L 1.359375 -3.125 L 4.046875 -3.125 L 4.046875 -2.515625 L 1.359375 -2.515625 L 1.359375 -0.59375 L 4.28125 -0.59375 L 4.28125 0 L 0.6875 0 Z M 0.6875 -5.59375 "/></g></g><g style="fill:#ffffff;fill-opacity:1;"><g transform="translate(84.81675, 52.650103)"><path style="stroke:none" d="M 0.6875 -5.59375 L 1.640625 -5.59375 L 4.4375 -0.84375 L 4.484375 -0.84375 L 4.484375 -5.59375 L 5.15625 -5.59375 L 5.15625 0 L 4.203125 0 L 1.40625 -4.765625 L 1.359375 -4.765625 L 1.359375 0 L 0.6875 0 Z M 0.6875 -5.59375 "/></g></g><g style="fill:#ffffff;fill-opacity:1;"><g transform="translate(90.654104, 52.650103)"><path style="stroke:none" d="M 2 -5 L 0.203125 -5 L 0.203125 -5.59375 L 4.484375 -5.59375 L 4.484375 -5 L 2.6875 -5 L 2.6875 0 L 2 0 Z M 2 -5 "/></g></g><g style="fill:#ffffff;fill-opacity:1;"><g transform="translate(95.172058, 52.650103)"><path style="stroke:none" d="M 2.921875 0.078125 C 2.554688 0.078125 2.21875 0.0195312 1.90625 -0.09375 C 1.59375 -0.21875 1.320312 -0.398438 1.09375 -0.640625 C 0.875 -0.890625 0.703125 -1.191406 0.578125 -1.546875 C 0.460938 -1.910156 0.40625 -2.328125 0.40625 -2.796875 C 0.40625 -3.265625 0.460938 -3.675781 0.578125 -4.03125 C 0.703125 -4.394531 0.875 -4.695312 1.09375 -4.9375 C 1.320312 -5.1875 1.59375 -5.375 1.90625 -5.5 C 2.21875 -5.625 2.554688 -5.6875 2.921875 -5.6875 C 3.285156 -5.6875 3.625 -5.625 3.9375 -5.5 C 4.25 -5.375 4.515625 -5.1875 4.734375 -4.9375 C 4.960938 -4.695312 5.132812 -4.394531 5.25 -4.03125 C 5.375 -3.675781 5.4375 -3.265625 5.4375 -2.796875 C 5.4375 -2.328125 5.375 -1.910156 5.25 -1.546875 C 5.132812 -1.191406 4.960938 -0.890625 4.734375 -0.640625 C 4.515625 -0.398438 4.25 -0.21875 3.9375 -0.09375 C 3.625 0.0195312 3.285156 0.078125 2.921875 0.078125 Z M 2.921875 -0.515625 C 3.191406 -0.515625 3.4375 -0.5625 3.65625 -0.65625 C 3.882812 -0.757812 4.078125 -0.90625 4.234375 -1.09375 C 4.398438 -1.289062 4.53125 -1.53125 4.625 -1.8125 C 4.71875 -2.101562 4.765625 -2.429688 4.765625 -2.796875 C 4.765625 -3.171875 4.71875 -3.5 4.625 -3.78125 C 4.53125 -4.0625 4.398438 -4.296875 4.234375 -4.484375 C 4.078125 -4.679688 3.882812 -4.828125 3.65625 -4.921875 C 3.4375 -5.023438 3.191406 -5.078125 2.921875 -5.078125 C 2.648438 -5.078125 2.398438 -5.023438 2.171875 -4.921875 C 1.953125 -4.828125 1.757812 -4.679688 1.59375 -4.484375 C 1.4375 -4.296875 1.3125 -4.0625 1.21875 -3.78125 C 1.125 -3.5 1.078125 -3.171875 1.078125 -2.796875 C 1.078125 -2.429688 1.125 -2.101562 1.21875 -1.8125 C 1.3125 -1.53125 1.4375 -1.289062 1.59375 -1.09375 C 1.757812 -0.90625 1.953125 -0.757812 2.171875 -0.65625 C 2.398438 -0.5625 2.648438 -0.515625 2.921875 -0.515625 Z M 2.921875 -0.515625 "/></g></g><g style="fill:#ffffff;fill-opacity:1;"><g transform="translate(101.009412, 52.650103)"><path style="stroke:none" d=""/></g></g><g style="fill:#ffffff;fill-opacity:1;"><g transform="translate(102.768614, 52.650103)"><path style="stroke:none" d="M 0.6875 -5.59375 L 2.5625 -5.59375 C 2.925781 -5.59375 3.265625 -5.53125 3.578125 -5.40625 C 3.890625 -5.289062 4.15625 -5.113281 4.375 -4.875 C 4.601562 -4.644531 4.773438 -4.351562 4.890625 -4 C 5.015625 -3.65625 5.078125 -3.253906 5.078125 -2.796875 C 5.078125 -2.335938 5.015625 -1.929688 4.890625 -1.578125 C 4.773438 -1.234375 4.601562 -0.941406 4.375 -0.703125 C 4.15625 -0.472656 3.890625 -0.296875 3.578125 -0.171875 C 3.265625 -0.0546875 2.925781 0 2.5625 0 L 0.6875 0 Z M 2.5625 -0.59375 C 2.832031 -0.59375 3.078125 -0.640625 3.296875 -0.734375 C 3.523438 -0.828125 3.71875 -0.96875 3.875 -1.15625 C 4.039062 -1.34375 4.171875 -1.570312 4.265625 -1.84375 C 4.359375 -2.113281 4.40625 -2.429688 4.40625 -2.796875 C 4.40625 -3.160156 4.359375 -3.476562 4.265625 -3.75 C 4.171875 -4.019531 4.039062 -4.25 3.875 -4.4375 C 3.71875 -4.625 3.523438 -4.765625 3.296875 -4.859375 C 3.078125 -4.953125 2.832031 -5 2.5625 -5 L 1.359375 -5 L 1.359375 -0.59375 Z M 2.5625 -0.59375 "/></g></g><g style="fill:#ffffff;fill-opacity:1;"><g transform="translate(108.246138, 52.650103)"><path style="stroke:none" d="M 2.921875 0.078125 C 2.554688 0.078125 2.21875 0.0195312 1.90625 -0.09375 C 1.59375 -0.21875 1.320312 -0.398438 1.09375 -0.640625 C 0.875 -0.890625 0.703125 -1.191406 0.578125 -1.546875 C 0.460938 -1.910156 0.40625 -2.328125 0.40625 -2.796875 C 0.40625 -3.265625 0.460938 -3.675781 0.578125 -4.03125 C 0.703125 -4.394531 0.875 -4.695312 1.09375 -4.9375 C 1.320312 -5.1875 1.59375 -5.375 1.90625 -5.5 C 2.21875 -5.625 2.554688 -5.6875 2.921875 -5.6875 C 3.285156 -5.6875 3.625 -5.625 3.9375 -5.5 C 4.25 -5.375 4.515625 -5.1875 4.734375 -4.9375 C 4.960938 -4.695312 5.132812 -4.394531 5.25 -4.03125 C 5.375 -3.675781 5.4375 -3.265625 5.4375 -2.796875 C 5.4375 -2.328125 5.375 -1.910156 5.25 -1.546875 C 5.132812 -1.191406 4.960938 -0.890625 4.734375 -0.640625 C 4.515625 -0.398438 4.25 -0.21875 3.9375 -0.09375 C 3.625 0.0195312 3.285156 0.078125 2.921875 0.078125 Z M 2.921875 -0.515625 C 3.191406 -0.515625 3.4375 -0.5625 3.65625 -0.65625 C 3.882812 -0.757812 4.078125 -0.90625 4.234375 -1.09375 C 4.398438 -1.289062 4.53125 -1.53125 4.625 -1.8125 C 4.71875 -2.101562 4.765625 -2.429688 4.765625 -2.796875 C 4.765625 -3.171875 4.71875 -3.5 4.625 -3.78125 C 4.53125 -4.0625 4.398438 -4.296875 4.234375 -4.484375 C 4.078125 -4.679688 3.882812 -4.828125 3.65625 -4.921875 C 3.4375 -5.023438 3.191406 -5.078125 2.921875 -5.078125 C 2.648438 -5.078125 2.398438 -5.023438 2.171875 -4.921875 C 1.953125 -4.828125 1.757812 -4.679688 1.59375 -4.484375 C 1.4375 -4.296875 1.3125 -4.0625 1.21875 -3.78125 C 1.125 -3.5 1.078125 -3.171875 1.078125 -2.796875 C 1.078125 -2.429688 1.125 -2.101562 1.21875 -1.8125 C 1.3125 -1.53125 1.4375 -1.289062 1.59375 -1.09375 C 1.757812 -0.90625 1.953125 -0.757812 2.171875 -0.65625 C 2.398438 -0.5625 2.648438 -0.515625 2.921875 -0.515625 Z M 2.921875 -0.515625 "/></g></g><g style="fill:#ffffff;fill-opacity:1;"><g transform="translate(114.083493, 52.650103)"><path style="stroke:none" d="M 2.359375 0.078125 C 1.796875 0.078125 1.335938 -0.0546875 0.984375 -0.328125 C 0.640625 -0.609375 0.414062 -0.976562 0.3125 -1.4375 L 1 -1.4375 C 1.101562 -1.132812 1.269531 -0.90625 1.5 -0.75 C 1.726562 -0.59375 2.015625 -0.515625 2.359375 -0.515625 C 2.816406 -0.515625 3.15625 -0.609375 3.375 -0.796875 C 3.601562 -0.992188 3.71875 -1.234375 3.71875 -1.515625 C 3.71875 -1.703125 3.671875 -1.847656 3.578125 -1.953125 C 3.484375 -2.066406 3.359375 -2.160156 3.203125 -2.234375 C 3.054688 -2.304688 2.882812 -2.363281 2.6875 -2.40625 C 2.5 -2.457031 2.300781 -2.507812 2.09375 -2.5625 C 1.894531 -2.613281 1.695312 -2.675781 1.5 -2.75 C 1.3125 -2.820312 1.140625 -2.914062 0.984375 -3.03125 C 0.835938 -3.15625 0.71875 -3.304688 0.625 -3.484375 C 0.53125 -3.660156 0.484375 -3.882812 0.484375 -4.15625 C 0.484375 -4.363281 0.523438 -4.5625 0.609375 -4.75 C 0.691406 -4.9375 0.8125 -5.097656 0.96875 -5.234375 C 1.125 -5.367188 1.316406 -5.476562 1.546875 -5.5625 C 1.785156 -5.644531 2.054688 -5.6875 2.359375 -5.6875 C 2.859375 -5.6875 3.273438 -5.566406 3.609375 -5.328125 C 3.953125 -5.097656 4.175781 -4.757812 4.28125 -4.3125 L 3.59375 -4.3125 C 3.519531 -4.539062 3.378906 -4.722656 3.171875 -4.859375 C 2.972656 -5.003906 2.703125 -5.078125 2.359375 -5.078125 C 1.960938 -5.078125 1.660156 -4.988281 1.453125 -4.8125 C 1.253906 -4.632812 1.15625 -4.414062 1.15625 -4.15625 C 1.15625 -3.96875 1.203125 -3.8125 1.296875 -3.6875 C 1.390625 -3.570312 1.507812 -3.472656 1.65625 -3.390625 C 1.8125 -3.316406 1.988281 -3.253906 2.1875 -3.203125 C 2.382812 -3.148438 2.582031 -3.097656 2.78125 -3.046875 C 2.976562 -2.992188 3.171875 -2.929688 3.359375 -2.859375 C 3.554688 -2.796875 3.734375 -2.707031 3.890625 -2.59375 C 4.046875 -2.476562 4.171875 -2.332031 4.265625 -2.15625 C 4.359375 -1.988281 4.40625 -1.773438 4.40625 -1.515625 C 4.40625 -1.304688 4.359375 -1.101562 4.265625 -0.90625 C 4.179688 -0.71875 4.050781 -0.550781 3.875 -0.40625 C 3.695312 -0.257812 3.484375 -0.140625 3.234375 -0.046875 C 2.984375 0.0351562 2.691406 0.078125 2.359375 0.078125 Z M 2.359375 0.078125 "/></g></g><g style="fill:#ffffff;fill-opacity:1;"><g transform="translate(118.801356, 52.650103)"><path style="stroke:none" d=""/></g></g><g style="fill:#ffffff;fill-opacity:1;"><g transform="translate(120.560558, 52.650103)"><path style="stroke:none" d="M 0.6875 -5.59375 L 2.84375 -5.59375 C 3.113281 -5.59375 3.351562 -5.550781 3.5625 -5.46875 C 3.78125 -5.394531 3.96875 -5.28125 4.125 -5.125 C 4.28125 -4.976562 4.394531 -4.800781 4.46875 -4.59375 C 4.550781 -4.394531 4.59375 -4.171875 4.59375 -3.921875 C 4.59375 -3.640625 4.546875 -3.394531 4.453125 -3.1875 C 4.359375 -2.988281 4.238281 -2.820312 4.09375 -2.6875 C 3.945312 -2.550781 3.785156 -2.445312 3.609375 -2.375 C 3.429688 -2.300781 3.253906 -2.253906 3.078125 -2.234375 L 4.6875 0 L 3.921875 0 L 2.3125 -2.234375 L 1.359375 -2.234375 L 1.359375 0 L 0.6875 0 Z M 2.796875 -2.84375 C 3.160156 -2.84375 3.4375 -2.941406 3.625 -3.140625 C 3.820312 -3.335938 3.921875 -3.597656 3.921875 -3.921875 C 3.921875 -4.242188 3.820312 -4.503906 3.625 -4.703125 C 3.4375 -4.898438 3.160156 -5 2.796875 -5 L 1.359375 -5 L 1.359375 -2.84375 Z M 2.796875 -2.84375 "/></g></g><g style="fill:#ffffff;fill-opacity:1;"><g transform="translate(125.638262, 52.650103)"><path style="stroke:none" d="M 0.6875 -5.59375 L 4.203125 -5.59375 L 4.203125 -5 L 1.359375 -5 L 1.359375 -3.125 L 4.046875 -3.125 L 4.046875 -2.515625 L 1.359375 -2.515625 L 1.359375 -0.59375 L 4.28125 -0.59375 L 4.28125 0 L 0.6875 0 Z M 0.6875 -5.59375 "/></g></g><g style="fill:#ffffff;fill-opacity:1;"><g transform="translate(130.356125, 52.650103)"><path style="stroke:none" d="M 2.921875 0.078125 C 2.554688 0.078125 2.21875 0.0195312 1.90625 -0.09375 C 1.59375 -0.21875 1.320312 -0.398438 1.09375 -0.640625 C 0.875 -0.890625 0.703125 -1.191406 0.578125 -1.546875 C 0.460938 -1.910156 0.40625 -2.328125 0.40625 -2.796875 C 0.40625 -3.265625 0.460938 -3.675781 0.578125 -4.03125 C 0.703125 -4.394531 0.875 -4.695312 1.09375 -4.9375 C 1.320312 -5.1875 1.59375 -5.375 1.90625 -5.5 C 2.21875 -5.625 2.554688 -5.6875 2.921875 -5.6875 C 3.460938 -5.6875 3.925781 -5.554688 4.3125 -5.296875 C 4.695312 -5.035156 4.992188 -4.644531 5.203125 -4.125 L 4.484375 -4.125 C 4.316406 -4.457031 4.101562 -4.695312 3.84375 -4.84375 C 3.59375 -5 3.285156 -5.078125 2.921875 -5.078125 C 2.648438 -5.078125 2.398438 -5.023438 2.171875 -4.921875 C 1.953125 -4.828125 1.757812 -4.679688 1.59375 -4.484375 C 1.4375 -4.296875 1.3125 -4.0625 1.21875 -3.78125 C 1.125 -3.5 1.078125 -3.171875 1.078125 -2.796875 C 1.078125 -2.429688 1.125 -2.101562 1.21875 -1.8125 C 1.3125 -1.53125 1.4375 -1.289062 1.59375 -1.09375 C 1.757812 -0.90625 1.953125 -0.757812 2.171875 -0.65625 C 2.398438 -0.5625 2.648438 -0.515625 2.921875 -0.515625 C 3.203125 -0.515625 3.445312 -0.566406 3.65625 -0.671875 C 3.875 -0.773438 4.054688 -0.90625 4.203125 -1.0625 C 4.347656 -1.226562 4.457031 -1.410156 4.53125 -1.609375 C 4.601562 -1.816406 4.640625 -2.023438 4.640625 -2.234375 L 2.921875 -2.234375 L 2.921875 -2.84375 L 5.3125 -2.84375 L 5.3125 -2.515625 C 5.3125 -2.117188 5.253906 -1.757812 5.140625 -1.4375 C 5.035156 -1.113281 4.878906 -0.835938 4.671875 -0.609375 C 4.460938 -0.390625 4.207031 -0.21875 3.90625 -0.09375 C 3.613281 0.0195312 3.285156 0.078125 2.921875 0.078125 Z M 2.921875 0.078125 "/></g></g><g style="fill:#ffffff;fill-opacity:1;"><g transform="translate(136.07354, 52.650103)"><path style="stroke:none" d="M 0.6875 -5.59375 L 1.359375 -5.59375 L 1.359375 0 L 0.6875 0 Z M 0.6875 -5.59375 "/></g></g><g style="fill:#ffffff;fill-opacity:1;"><g transform="translate(138.112622, 52.650103)"><path style="stroke:none" d="M 0.6875 -5.59375 L 1.765625 -5.59375 L 3.4375 -1 L 3.484375 -1 L 5.15625 -5.59375 L 6.234375 -5.59375 L 6.234375 0 L 5.5625 0 L 5.5625 -4.765625 L 5.515625 -4.765625 L 3.765625 0 L 3.15625 0 L 1.40625 -4.765625 L 1.359375 -4.765625 L 1.359375 0 L 0.6875 0 Z M 0.6875 -5.59375 "/></g></g><g style="fill:#ffffff;fill-opacity:1;"><g transform="translate(145.029487, 52.650103)"><path style="stroke:none" d="M 0.6875 -5.59375 L 4.203125 -5.59375 L 4.203125 -5 L 1.359375 -5 L 1.359375 -3.125 L 4.046875 -3.125 L 4.046875 -2.515625 L 1.359375 -2.515625 L 1.359375 -0.59375 L 4.28125 -0.59375 L 4.28125 0 L 0.6875 0 Z M 0.6875 -5.59375 "/></g></g><g style="fill:#ffffff;fill-opacity:1;"><g transform="translate(149.747351, 52.650103)"><path style="stroke:none" d="M 2.359375 0.078125 C 1.796875 0.078125 1.335938 -0.0546875 0.984375 -0.328125 C 0.640625 -0.609375 0.414062 -0.976562 0.3125 -1.4375 L 1 -1.4375 C 1.101562 -1.132812 1.269531 -0.90625 1.5 -0.75 C 1.726562 -0.59375 2.015625 -0.515625 2.359375 -0.515625 C 2.816406 -0.515625 3.15625 -0.609375 3.375 -0.796875 C 3.601562 -0.992188 3.71875 -1.234375 3.71875 -1.515625 C 3.71875 -1.703125 3.671875 -1.847656 3.578125 -1.953125 C 3.484375 -2.066406 3.359375 -2.160156 3.203125 -2.234375 C 3.054688 -2.304688 2.882812 -2.363281 2.6875 -2.40625 C 2.5 -2.457031 2.300781 -2.507812 2.09375 -2.5625 C 1.894531 -2.613281 1.695312 -2.675781 1.5 -2.75 C 1.3125 -2.820312 1.140625 -2.914062 0.984375 -3.03125 C 0.835938 -3.15625 0.71875 -3.304688 0.625 -3.484375 C 0.53125 -3.660156 0.484375 -3.882812 0.484375 -4.15625 C 0.484375 -4.363281 0.523438 -4.5625 0.609375 -4.75 C 0.691406 -4.9375 0.8125 -5.097656 0.96875 -5.234375 C 1.125 -5.367188 1.316406 -5.476562 1.546875 -5.5625 C 1.785156 -5.644531 2.054688 -5.6875 2.359375 -5.6875 C 2.859375 -5.6875 3.273438 -5.566406 3.609375 -5.328125 C 3.953125 -5.097656 4.175781 -4.757812 4.28125 -4.3125 L 3.59375 -4.3125 C 3.519531 -4.539062 3.378906 -4.722656 3.171875 -4.859375 C 2.972656 -5.003906 2.703125 -5.078125 2.359375 -5.078125 C 1.960938 -5.078125 1.660156 -4.988281 1.453125 -4.8125 C 1.253906 -4.632812 1.15625 -4.414062 1.15625 -4.15625 C 1.15625 -3.96875 1.203125 -3.8125 1.296875 -3.6875 C 1.390625 -3.570312 1.507812 -3.472656 1.65625 -3.390625 C 1.8125 -3.316406 1.988281 -3.253906 2.1875 -3.203125 C 2.382812 -3.148438 2.582031 -3.097656 2.78125 -3.046875 C 2.976562 -2.992188 3.171875 -2.929688 3.359375 -2.859375 C 3.554688 -2.796875 3.734375 -2.707031 3.890625 -2.59375 C 4.046875 -2.476562 4.171875 -2.332031 4.265625 -2.15625 C 4.359375 -1.988281 4.40625 -1.773438 4.40625 -1.515625 C 4.40625 -1.304688 4.359375 -1.101562 4.265625 -0.90625 C 4.179688 -0.71875 4.050781 -0.550781 3.875 -0.40625 C 3.695312 -0.257812 3.484375 -0.140625 3.234375 -0.046875 C 2.984375 0.0351562 2.691406 0.078125 2.359375 0.078125 Z M 2.359375 0.078125 "/></g></g><g style="fill:#ffffff;fill-opacity:1;"><g transform="translate(154.465214, 52.650103)"><path style="stroke:none" d=""/></g></g><g style="fill:#ffffff;fill-opacity:1;"><g transform="translate(156.224416, 52.650103)"><path style="stroke:none" d="M 0.6875 -5.59375 L 2.796875 -5.59375 C 3.078125 -5.59375 3.328125 -5.546875 3.546875 -5.453125 C 3.773438 -5.367188 3.96875 -5.25 4.125 -5.09375 C 4.28125 -4.9375 4.394531 -4.75 4.46875 -4.53125 C 4.550781 -4.320312 4.59375 -4.09375 4.59375 -3.84375 C 4.59375 -3.59375 4.550781 -3.359375 4.46875 -3.140625 C 4.394531 -2.929688 4.28125 -2.75 4.125 -2.59375 C 3.96875 -2.4375 3.773438 -2.3125 3.546875 -2.21875 C 3.328125 -2.125 3.078125 -2.078125 2.796875 -2.078125 L 1.359375 -2.078125 L 1.359375 0 L 0.6875 0 Z M 2.765625 -2.6875 C 3.117188 -2.6875 3.398438 -2.789062 3.609375 -3 C 3.816406 -3.21875 3.921875 -3.5 3.921875 -3.84375 C 3.921875 -4.1875 3.816406 -4.460938 3.609375 -4.671875 C 3.398438 -4.890625 3.117188 -5 2.765625 -5 L 1.359375 -5 L 1.359375 -2.6875 Z M 2.765625 -2.6875 "/></g></g><g style="fill:#ffffff;fill-opacity:1;"><g transform="translate(161.22215, 52.650103)"><path style="stroke:none" d="M 0.6875 -5.59375 L 2.84375 -5.59375 C 3.113281 -5.59375 3.351562 -5.550781 3.5625 -5.46875 C 3.78125 -5.394531 3.96875 -5.28125 4.125 -5.125 C 4.28125 -4.976562 4.394531 -4.800781 4.46875 -4.59375 C 4.550781 -4.394531 4.59375 -4.171875 4.59375 -3.921875 C 4.59375 -3.640625 4.546875 -3.394531 4.453125 -3.1875 C 4.359375 -2.988281 4.238281 -2.820312 4.09375 -2.6875 C 3.945312 -2.550781 3.785156 -2.445312 3.609375 -2.375 C 3.429688 -2.300781 3.253906 -2.253906 3.078125 -2.234375 L 4.6875 0 L 3.921875 0 L 2.3125 -2.234375 L 1.359375 -2.234375 L 1.359375 0 L 0.6875 0 Z M 2.796875 -2.84375 C 3.160156 -2.84375 3.4375 -2.941406 3.625 -3.140625 C 3.820312 -3.335938 3.921875 -3.597656 3.921875 -3.921875 C 3.921875 -4.242188 3.820312 -4.503906 3.625 -4.703125 C 3.4375 -4.898438 3.160156 -5 2.796875 -5 L 1.359375 -5 L 1.359375 -2.84375 Z M 2.796875 -2.84375 "/></g></g><g style="fill:#ffffff;fill-opacity:1;"><g transform="translate(166.299854, 52.650103)"><path style="stroke:none" d="M 2.921875 0.078125 C 2.554688 0.078125 2.21875 0.0195312 1.90625 -0.09375 C 1.59375 -0.21875 1.320312 -0.398438 1.09375 -0.640625 C 0.875 -0.890625 0.703125 -1.191406 0.578125 -1.546875 C 0.460938 -1.910156 0.40625 -2.328125 0.40625 -2.796875 C 0.40625 -3.265625 0.460938 -3.675781 0.578125 -4.03125 C 0.703125 -4.394531 0.875 -4.695312 1.09375 -4.9375 C 1.320312 -5.1875 1.59375 -5.375 1.90625 -5.5 C 2.21875 -5.625 2.554688 -5.6875 2.921875 -5.6875 C 3.285156 -5.6875 3.625 -5.625 3.9375 -5.5 C 4.25 -5.375 4.515625 -5.1875 4.734375 -4.9375 C 4.960938 -4.695312 5.132812 -4.394531 5.25 -4.03125 C 5.375 -3.675781 5.4375 -3.265625 5.4375 -2.796875 C 5.4375 -2.328125 5.375 -1.910156 5.25 -1.546875 C 5.132812 -1.191406 4.960938 -0.890625 4.734375 -0.640625 C 4.515625 -0.398438 4.25 -0.21875 3.9375 -0.09375 C 3.625 0.0195312 3.285156 0.078125 2.921875 0.078125 Z M 2.921875 -0.515625 C 3.191406 -0.515625 3.4375 -0.5625 3.65625 -0.65625 C 3.882812 -0.757812 4.078125 -0.90625 4.234375 -1.09375 C 4.398438 -1.289062 4.53125 -1.53125 4.625 -1.8125 C 4.71875 -2.101562 4.765625 -2.429688 4.765625 -2.796875 C 4.765625 -3.171875 4.71875 -3.5 4.625 -3.78125 C 4.53125 -4.0625 4.398438 -4.296875 4.234375 -4.484375 C 4.078125 -4.679688 3.882812 -4.828125 3.65625 -4.921875 C 3.4375 -5.023438 3.191406 -5.078125 2.921875 -5.078125 C 2.648438 -5.078125 2.398438 -5.023438 2.171875 -4.921875 C 1.953125 -4.828125 1.757812 -4.679688 1.59375 -4.484375 C 1.4375 -4.296875 1.3125 -4.0625 1.21875 -3.78125 C 1.125 -3.5 1.078125 -3.171875 1.078125 -2.796875 C 1.078125 -2.429688 1.125 -2.101562 1.21875 -1.8125 C 1.3125 -1.53125 1.4375 -1.289062 1.59375 -1.09375 C 1.757812 -0.90625 1.953125 -0.757812 2.171875 -0.65625 C 2.398438 -0.5625 2.648438 -0.515625 2.921875 -0.515625 Z M 3.359375 -7.28125 L 4.125 -7.28125 L 3.203125 -6.15625 L 2.640625 -6.15625 Z M 3.359375 -7.28125 "/></g></g><g style="fill:#ffffff;fill-opacity:1;"><g transform="translate(172.137208, 52.650103)"><path style="stroke:none" d="M 0.6875 -5.59375 L 2.796875 -5.59375 C 3.078125 -5.59375 3.328125 -5.546875 3.546875 -5.453125 C 3.773438 -5.367188 3.96875 -5.25 4.125 -5.09375 C 4.28125 -4.9375 4.394531 -4.75 4.46875 -4.53125 C 4.550781 -4.320312 4.59375 -4.09375 4.59375 -3.84375 C 4.59375 -3.59375 4.550781 -3.359375 4.46875 -3.140625 C 4.394531 -2.929688 4.28125 -2.75 4.125 -2.59375 C 3.96875 -2.4375 3.773438 -2.3125 3.546875 -2.21875 C 3.328125 -2.125 3.078125 -2.078125 2.796875 -2.078125 L 1.359375 -2.078125 L 1.359375 0 L 0.6875 0 Z M 2.765625 -2.6875 C 3.117188 -2.6875 3.398438 -2.789062 3.609375 -3 C 3.816406 -3.21875 3.921875 -3.5 3.921875 -3.84375 C 3.921875 -4.1875 3.816406 -4.460938 3.609375 -4.671875 C 3.398438 -4.890625 3.117188 -5 2.765625 -5 L 1.359375 -5 L 1.359375 -2.6875 Z M 2.765625 -2.6875 "/></g></g><g style="fill:#ffffff;fill-opacity:1;"><g transform="translate(177.134942, 52.650103)"><path style="stroke:none" d="M 0.6875 -5.59375 L 2.84375 -5.59375 C 3.113281 -5.59375 3.351562 -5.550781 3.5625 -5.46875 C 3.78125 -5.394531 3.96875 -5.28125 4.125 -5.125 C 4.28125 -4.976562 4.394531 -4.800781 4.46875 -4.59375 C 4.550781 -4.394531 4.59375 -4.171875 4.59375 -3.921875 C 4.59375 -3.640625 4.546875 -3.394531 4.453125 -3.1875 C 4.359375 -2.988281 4.238281 -2.820312 4.09375 -2.6875 C 3.945312 -2.550781 3.785156 -2.445312 3.609375 -2.375 C 3.429688 -2.300781 3.253906 -2.253906 3.078125 -2.234375 L 4.6875 0 L 3.921875 0 L 2.3125 -2.234375 L 1.359375 -2.234375 L 1.359375 0 L 0.6875 0 Z M 2.796875 -2.84375 C 3.160156 -2.84375 3.4375 -2.941406 3.625 -3.140625 C 3.820312 -3.335938 3.921875 -3.597656 3.921875 -3.921875 C 3.921875 -4.242188 3.820312 -4.503906 3.625 -4.703125 C 3.4375 -4.898438 3.160156 -5 2.796875 -5 L 1.359375 -5 L 1.359375 -2.84375 Z M 2.796875 -2.84375 "/></g></g><g style="fill:#ffffff;fill-opacity:1;"><g transform="translate(182.212646, 52.650103)"><path style="stroke:none" d="M 0.6875 -5.59375 L 1.359375 -5.59375 L 1.359375 0 L 0.6875 0 Z M 0.6875 -5.59375 "/></g></g><g style="fill:#ffffff;fill-opacity:1;"><g transform="translate(184.251728, 52.650103)"><path style="stroke:none" d="M 2.921875 0.078125 C 2.554688 0.078125 2.21875 0.0195312 1.90625 -0.09375 C 1.59375 -0.21875 1.320312 -0.398438 1.09375 -0.640625 C 0.875 -0.890625 0.703125 -1.191406 0.578125 -1.546875 C 0.460938 -1.910156 0.40625 -2.328125 0.40625 -2.796875 C 0.40625 -3.265625 0.460938 -3.675781 0.578125 -4.03125 C 0.703125 -4.394531 0.875 -4.695312 1.09375 -4.9375 C 1.320312 -5.1875 1.59375 -5.375 1.90625 -5.5 C 2.21875 -5.625 2.554688 -5.6875 2.921875 -5.6875 C 3.285156 -5.6875 3.625 -5.625 3.9375 -5.5 C 4.25 -5.375 4.515625 -5.1875 4.734375 -4.9375 C 4.960938 -4.695312 5.132812 -4.394531 5.25 -4.03125 C 5.375 -3.675781 5.4375 -3.265625 5.4375 -2.796875 C 5.4375 -2.328125 5.375 -1.910156 5.25 -1.546875 C 5.132812 -1.191406 4.960938 -0.890625 4.734375 -0.640625 C 4.515625 -0.398438 4.25 -0.21875 3.9375 -0.09375 C 3.625 0.0195312 3.285156 0.078125 2.921875 0.078125 Z M 2.921875 -0.515625 C 3.191406 -0.515625 3.4375 -0.5625 3.65625 -0.65625 C 3.882812 -0.757812 4.078125 -0.90625 4.234375 -1.09375 C 4.398438 -1.289062 4.53125 -1.53125 4.625 -1.8125 C 4.71875 -2.101562 4.765625 -2.429688 4.765625 -2.796875 C 4.765625 -3.171875 4.71875 -3.5 4.625 -3.78125 C 4.53125 -4.0625 4.398438 -4.296875 4.234375 -4.484375 C 4.078125 -4.679688 3.882812 -4.828125 3.65625 -4.921875 C 3.4375 -5.023438 3.191406 -5.078125 2.921875 -5.078125 C 2.648438 -5.078125 2.398438 -5.023438 2.171875 -4.921875 C 1.953125 -4.828125 1.757812 -4.679688 1.59375 -4.484375 C 1.4375 -4.296875 1.3125 -4.0625 1.21875 -3.78125 C 1.125 -3.5 1.078125 -3.171875 1.078125 -2.796875 C 1.078125 -2.429688 1.125 -2.101562 1.21875 -1.8125 C 1.3125 -1.53125 1.4375 -1.289062 1.59375 -1.09375 C 1.757812 -0.90625 1.953125 -0.757812 2.171875 -0.65625 C 2.398438 -0.5625 2.648438 -0.515625 2.921875 -0.515625 Z M 2.921875 -0.515625 "/></g></g><g style="fill:#ffffff;fill-opacity:1;"><g transform="translate(190.089082, 52.650103)"><path style="stroke:none" d="M 2.359375 0.078125 C 1.796875 0.078125 1.335938 -0.0546875 0.984375 -0.328125 C 0.640625 -0.609375 0.414062 -0.976562 0.3125 -1.4375 L 1 -1.4375 C 1.101562 -1.132812 1.269531 -0.90625 1.5 -0.75 C 1.726562 -0.59375 2.015625 -0.515625 2.359375 -0.515625 C 2.816406 -0.515625 3.15625 -0.609375 3.375 -0.796875 C 3.601562 -0.992188 3.71875 -1.234375 3.71875 -1.515625 C 3.71875 -1.703125 3.671875 -1.847656 3.578125 -1.953125 C 3.484375 -2.066406 3.359375 -2.160156 3.203125 -2.234375 C 3.054688 -2.304688 2.882812 -2.363281 2.6875 -2.40625 C 2.5 -2.457031 2.300781 -2.507812 2.09375 -2.5625 C 1.894531 -2.613281 1.695312 -2.675781 1.5 -2.75 C 1.3125 -2.820312 1.140625 -2.914062 0.984375 -3.03125 C 0.835938 -3.15625 0.71875 -3.304688 0.625 -3.484375 C 0.53125 -3.660156 0.484375 -3.882812 0.484375 -4.15625 C 0.484375 -4.363281 0.523438 -4.5625 0.609375 -4.75 C 0.691406 -4.9375 0.8125 -5.097656 0.96875 -5.234375 C 1.125 -5.367188 1.316406 -5.476562 1.546875 -5.5625 C 1.785156 -5.644531 2.054688 -5.6875 2.359375 -5.6875 C 2.859375 -5.6875 3.273438 -5.566406 3.609375 -5.328125 C 3.953125 -5.097656 4.175781 -4.757812 4.28125 -4.3125 L 3.59375 -4.3125 C 3.519531 -4.539062 3.378906 -4.722656 3.171875 -4.859375 C 2.972656 -5.003906 2.703125 -5.078125 2.359375 -5.078125 C 1.960938 -5.078125 1.660156 -4.988281 1.453125 -4.8125 C 1.253906 -4.632812 1.15625 -4.414062 1.15625 -4.15625 C 1.15625 -3.96875 1.203125 -3.8125 1.296875 -3.6875 C 1.390625 -3.570312 1.507812 -3.472656 1.65625 -3.390625 C 1.8125 -3.316406 1.988281 -3.253906 2.1875 -3.203125 C 2.382812 -3.148438 2.582031 -3.097656 2.78125 -3.046875 C 2.976562 -2.992188 3.171875 -2.929688 3.359375 -2.859375 C 3.554688 -2.796875 3.734375 -2.707031 3.890625 -2.59375 C 4.046875 -2.476562 4.171875 -2.332031 4.265625 -2.15625 C 4.359375 -1.988281 4.40625 -1.773438 4.40625 -1.515625 C 4.40625 -1.304688 4.359375 -1.101562 4.265625 -0.90625 C 4.179688 -0.71875 4.050781 -0.550781 3.875 -0.40625 C 3.695312 -0.257812 3.484375 -0.140625 3.234375 -0.046875 C 2.984375 0.0351562 2.691406 0.078125 2.359375 0.078125 Z M 2.359375 0.078125 "/></g></g><g style="fill:#ffffff;fill-opacity:1;"><g transform="translate(69.575941, 63.31187)"><path style="stroke:none" d="M 0.6875 -5.59375 L 2.5625 -5.59375 C 2.925781 -5.59375 3.265625 -5.53125 3.578125 -5.40625 C 3.890625 -5.289062 4.15625 -5.113281 4.375 -4.875 C 4.601562 -4.644531 4.773438 -4.351562 4.890625 -4 C 5.015625 -3.65625 5.078125 -3.253906 5.078125 -2.796875 C 5.078125 -2.335938 5.015625 -1.929688 4.890625 -1.578125 C 4.773438 -1.234375 4.601562 -0.941406 4.375 -0.703125 C 4.15625 -0.472656 3.890625 -0.296875 3.578125 -0.171875 C 3.265625 -0.0546875 2.925781 0 2.5625 0 L 0.6875 0 Z M 2.5625 -0.59375 C 2.832031 -0.59375 3.078125 -0.640625 3.296875 -0.734375 C 3.523438 -0.828125 3.71875 -0.96875 3.875 -1.15625 C 4.039062 -1.34375 4.171875 -1.570312 4.265625 -1.84375 C 4.359375 -2.113281 4.40625 -2.429688 4.40625 -2.796875 C 4.40625 -3.160156 4.359375 -3.476562 4.265625 -3.75 C 4.171875 -4.019531 4.039062 -4.25 3.875 -4.4375 C 3.71875 -4.625 3.523438 -4.765625 3.296875 -4.859375 C 3.078125 -4.953125 2.832031 -5 2.5625 -5 L 1.359375 -5 L 1.359375 -0.59375 Z M 2.5625 -0.59375 "/></g></g><g style="fill:#ffffff;fill-opacity:1;"><g transform="translate(75.053465, 63.31187)"><path style="stroke:none" d="M 0.6875 -5.59375 L 4.203125 -5.59375 L 4.203125 -5 L 1.359375 -5 L 1.359375 -3.125 L 4.046875 -3.125 L 4.046875 -2.515625 L 1.359375 -2.515625 L 1.359375 -0.59375 L 4.28125 -0.59375 L 4.28125 0 L 0.6875 0 Z M 0.6875 -5.59375 "/></g></g><g style="fill:#ffffff;fill-opacity:1;"><g transform="translate(79.771329, 63.31187)"><path style="stroke:none" d=""/></g></g><g style="fill:#ffffff;fill-opacity:1;"><g transform="translate(81.539193, 63.31187)"><path style="stroke:none" d="M 0.5625 -5.59375 L 2.875 -5.59375 C 3.164062 -5.59375 3.429688 -5.546875 3.671875 -5.453125 C 3.921875 -5.359375 4.128906 -5.226562 4.296875 -5.0625 C 4.460938 -4.894531 4.59375 -4.691406 4.6875 -4.453125 C 4.789062 -4.210938 4.84375 -3.957031 4.84375 -3.6875 C 4.84375 -3.394531 4.789062 -3.128906 4.6875 -2.890625 C 4.59375 -2.660156 4.460938 -2.460938 4.296875 -2.296875 C 4.128906 -2.128906 3.921875 -2 3.671875 -1.90625 C 3.429688 -1.8125 3.164062 -1.765625 2.875 -1.765625 L 1.765625 -1.765625 L 1.765625 0 L 0.5625 0 Z M 2.765625 -2.84375 C 3.046875 -2.84375 3.257812 -2.914062 3.40625 -3.0625 C 3.5625 -3.207031 3.640625 -3.414062 3.640625 -3.6875 C 3.640625 -3.945312 3.5625 -4.148438 3.40625 -4.296875 C 3.257812 -4.441406 3.046875 -4.515625 2.765625 -4.515625 L 1.765625 -4.515625 L 1.765625 -2.84375 Z M 2.765625 -2.84375 "/></g></g><g style="fill:#ffffff;fill-opacity:1;"><g transform="translate(86.696857, 63.31187)"><path style="stroke:none" d="M 0.5625 -5.59375 L 2.953125 -5.59375 C 3.234375 -5.59375 3.488281 -5.546875 3.71875 -5.453125 C 3.957031 -5.367188 4.15625 -5.25 4.3125 -5.09375 C 4.476562 -4.9375 4.609375 -4.742188 4.703125 -4.515625 C 4.796875 -4.285156 4.84375 -4.035156 4.84375 -3.765625 C 4.84375 -3.410156 4.78125 -3.117188 4.65625 -2.890625 C 4.53125 -2.660156 4.394531 -2.484375 4.25 -2.359375 C 4.082031 -2.203125 3.894531 -2.082031 3.6875 -2 L 5.046875 0 L 3.6875 0 L 2.40625 -1.921875 L 1.765625 -1.921875 L 1.765625 0 L 0.5625 0 Z M 2.875 -3 C 3.101562 -3 3.285156 -3.066406 3.421875 -3.203125 C 3.566406 -3.335938 3.640625 -3.523438 3.640625 -3.765625 C 3.640625 -4.003906 3.566406 -4.1875 3.421875 -4.3125 C 3.285156 -4.445312 3.101562 -4.515625 2.875 -4.515625 L 1.765625 -4.515625 L 1.765625 -3 Z M 2.875 -3 "/></g></g><g style="fill:#ffffff;fill-opacity:1;"><g transform="translate(91.934491, 63.31187)"><path style="stroke:none" d="M 0.5625 -5.59375 L 4.359375 -5.59375 L 4.359375 -4.515625 L 1.765625 -4.515625 L 1.765625 -3.3125 L 4.203125 -3.3125 L 4.203125 -2.3125 L 1.765625 -2.3125 L 1.765625 -1.078125 L 4.4375 -1.078125 L 4.4375 0 L 0.5625 0 Z M 0.5625 -5.59375 "/></g></g><g style="fill:#ffffff;fill-opacity:1;"><g transform="translate(96.732325, 63.31187)"><path style="stroke:none" d="M 0 -5.59375 L 1.28125 -5.59375 L 2.640625 -1.359375 L 2.6875 -1.359375 L 4.046875 -5.59375 L 5.3125 -5.59375 L 3.4375 0 L 1.875 0 Z M 0 -5.59375 "/></g></g><g style="fill:#ffffff;fill-opacity:1;"><g transform="translate(102.049919, 63.31187)"><path style="stroke:none" d="M 0.5625 -5.59375 L 1.765625 -5.59375 L 1.765625 0 L 0.5625 0 Z M 0.5625 -5.59375 "/></g></g><g style="fill:#ffffff;fill-opacity:1;"><g transform="translate(104.368871, 63.31187)"><path style="stroke:none" d="M 0.5625 -5.59375 L 2.71875 -5.59375 C 3.101562 -5.59375 3.453125 -5.53125 3.765625 -5.40625 C 4.085938 -5.28125 4.359375 -5.097656 4.578125 -4.859375 C 4.804688 -4.617188 4.976562 -4.320312 5.09375 -3.96875 C 5.21875 -3.625 5.28125 -3.234375 5.28125 -2.796875 C 5.28125 -2.359375 5.21875 -1.960938 5.09375 -1.609375 C 4.976562 -1.265625 4.804688 -0.972656 4.578125 -0.734375 C 4.359375 -0.492188 4.085938 -0.3125 3.765625 -0.1875 C 3.453125 -0.0625 3.101562 0 2.71875 0 L 0.5625 0 Z M 2.6875 -1.078125 C 2.875 -1.078125 3.050781 -1.109375 3.21875 -1.171875 C 3.382812 -1.242188 3.53125 -1.351562 3.65625 -1.5 C 3.789062 -1.644531 3.894531 -1.828125 3.96875 -2.046875 C 4.039062 -2.265625 4.078125 -2.515625 4.078125 -2.796875 C 4.078125 -3.085938 4.039062 -3.335938 3.96875 -3.546875 C 3.894531 -3.765625 3.789062 -3.945312 3.65625 -4.09375 C 3.53125 -4.238281 3.382812 -4.34375 3.21875 -4.40625 C 3.050781 -4.476562 2.875 -4.515625 2.6875 -4.515625 L 1.765625 -4.515625 L 1.765625 -1.078125 Z M 2.6875 -1.078125 "/></g></g><g style="fill:#ffffff;fill-opacity:1;"><g transform="translate(109.966336, 63.31187)"><path style="stroke:none" d="M 0.5625 -5.59375 L 4.359375 -5.59375 L 4.359375 -4.515625 L 1.765625 -4.515625 L 1.765625 -3.3125 L 4.203125 -3.3125 L 4.203125 -2.3125 L 1.765625 -2.3125 L 1.765625 -1.078125 L 4.4375 -1.078125 L 4.4375 0 L 0.5625 0 Z M 2.15625 -7.359375 L 2.921875 -7.359375 L 4 -6.109375 L 3.078125 -6.109375 L 2.5625 -6.75 L 2.53125 -6.75 L 2 -6.109375 L 1.078125 -6.109375 Z M 2.15625 -7.359375 "/></g></g><g style="fill:#ffffff;fill-opacity:1;"><g transform="translate(114.764169, 63.31187)"><path style="stroke:none" d="M 0.5625 -5.59375 L 2.125 -5.59375 L 4.234375 -1.765625 L 4.28125 -1.765625 L 4.28125 -5.59375 L 5.484375 -5.59375 L 5.484375 0 L 3.921875 0 L 1.796875 -3.84375 L 1.765625 -3.84375 L 1.765625 0 L 0.5625 0 Z M 0.5625 -5.59375 "/></g></g><g style="fill:#ffffff;fill-opacity:1;"><g transform="translate(120.801434, 63.31187)"><path style="stroke:none" d="M 2.953125 0.078125 C 2.554688 0.078125 2.195312 0.015625 1.875 -0.109375 C 1.550781 -0.234375 1.273438 -0.421875 1.046875 -0.671875 C 0.816406 -0.921875 0.632812 -1.222656 0.5 -1.578125 C 0.375 -1.929688 0.3125 -2.335938 0.3125 -2.796875 C 0.3125 -3.253906 0.375 -3.660156 0.5 -4.015625 C 0.632812 -4.378906 0.816406 -4.679688 1.046875 -4.921875 C 1.273438 -5.171875 1.550781 -5.359375 1.875 -5.484375 C 2.195312 -5.617188 2.554688 -5.6875 2.953125 -5.6875 C 3.304688 -5.6875 3.617188 -5.640625 3.890625 -5.546875 C 4.160156 -5.453125 4.394531 -5.320312 4.59375 -5.15625 C 4.789062 -5 4.957031 -4.804688 5.09375 -4.578125 C 5.226562 -4.359375 5.332031 -4.113281 5.40625 -3.84375 L 4.15625 -3.84375 C 4.113281 -3.957031 4.054688 -4.054688 3.984375 -4.140625 C 3.910156 -4.234375 3.828125 -4.3125 3.734375 -4.375 C 3.640625 -4.445312 3.53125 -4.5 3.40625 -4.53125 C 3.28125 -4.570312 3.128906 -4.59375 2.953125 -4.59375 C 2.742188 -4.59375 2.550781 -4.554688 2.375 -4.484375 C 2.207031 -4.410156 2.054688 -4.296875 1.921875 -4.140625 C 1.796875 -3.992188 1.695312 -3.804688 1.625 -3.578125 C 1.550781 -3.359375 1.515625 -3.097656 1.515625 -2.796875 C 1.515625 -2.503906 1.550781 -2.242188 1.625 -2.015625 C 1.695312 -1.785156 1.796875 -1.59375 1.921875 -1.4375 C 2.054688 -1.289062 2.207031 -1.179688 2.375 -1.109375 C 2.550781 -1.035156 2.742188 -1 2.953125 -1 C 3.128906 -1 3.28125 -1.015625 3.40625 -1.046875 C 3.53125 -1.085938 3.640625 -1.140625 3.734375 -1.203125 C 3.828125 -1.273438 3.910156 -1.359375 3.984375 -1.453125 C 4.054688 -1.546875 4.113281 -1.648438 4.15625 -1.765625 L 5.40625 -1.765625 C 5.332031 -1.492188 5.226562 -1.242188 5.09375 -1.015625 C 4.957031 -0.796875 4.789062 -0.601562 4.59375 -0.4375 C 4.394531 -0.269531 4.160156 -0.140625 3.890625 -0.046875 C 3.617188 0.0351562 3.304688 0.078125 2.953125 0.078125 Z M 2.953125 0.078125 "/></g></g><g style="fill:#ffffff;fill-opacity:1;"><g transform="translate(126.438879, 63.31187)"><path style="stroke:none" d="M 0.5625 -5.59375 L 1.765625 -5.59375 L 1.765625 0 L 0.5625 0 Z M 0.5625 -5.59375 "/></g></g><g style="fill:#ffffff;fill-opacity:1;"><g transform="translate(128.75783, 63.31187)"><path style="stroke:none" d="M 1.953125 -5.59375 L 3.4375 -5.59375 L 5.4375 0 L 4.203125 0 L 3.84375 -1.046875 L 1.5625 -1.046875 L 1.203125 0 L -0.046875 0 Z M 3.453125 -2.125 L 2.71875 -4.234375 L 2.6875 -4.234375 L 1.953125 -2.125 Z M 3.453125 -2.125 "/></g></g><g style="fill:#ffffff;fill-opacity:1;"><g transform="translate(133.915494, 63.31187)"><path style="stroke:none" d=""/></g></g><g style="fill:#ffffff;fill-opacity:1;"><g transform="translate(135.754666, 63.31187)"><path style="stroke:none" d="M 2.484375 0.078125 C 2.171875 0.078125 1.878906 0.0390625 1.609375 -0.03125 C 1.347656 -0.101562 1.113281 -0.210938 0.90625 -0.359375 C 0.707031 -0.503906 0.546875 -0.6875 0.421875 -0.90625 C 0.304688 -1.132812 0.234375 -1.394531 0.203125 -1.6875 L 1.40625 -1.6875 C 1.445312 -1.457031 1.5625 -1.273438 1.75 -1.140625 C 1.9375 -1.015625 2.179688 -0.953125 2.484375 -0.953125 C 2.859375 -0.953125 3.125 -1.015625 3.28125 -1.140625 C 3.4375 -1.273438 3.515625 -1.441406 3.515625 -1.640625 C 3.515625 -1.773438 3.46875 -1.882812 3.375 -1.96875 C 3.289062 -2.050781 3.175781 -2.117188 3.03125 -2.171875 C 2.882812 -2.222656 2.71875 -2.265625 2.53125 -2.296875 C 2.34375 -2.335938 2.148438 -2.378906 1.953125 -2.421875 C 1.753906 -2.460938 1.5625 -2.519531 1.375 -2.59375 C 1.195312 -2.664062 1.035156 -2.757812 0.890625 -2.875 C 0.742188 -3 0.625 -3.148438 0.53125 -3.328125 C 0.445312 -3.515625 0.40625 -3.753906 0.40625 -4.046875 C 0.40625 -4.316406 0.457031 -4.550781 0.5625 -4.75 C 0.664062 -4.957031 0.8125 -5.128906 1 -5.265625 C 1.1875 -5.398438 1.40625 -5.503906 1.65625 -5.578125 C 1.914062 -5.648438 2.191406 -5.6875 2.484375 -5.6875 C 2.816406 -5.6875 3.113281 -5.644531 3.375 -5.5625 C 3.632812 -5.476562 3.847656 -5.359375 4.015625 -5.203125 C 4.191406 -5.054688 4.332031 -4.882812 4.4375 -4.6875 C 4.539062 -4.488281 4.609375 -4.273438 4.640625 -4.046875 L 3.4375 -4.046875 C 3.394531 -4.222656 3.296875 -4.363281 3.140625 -4.46875 C 2.984375 -4.582031 2.773438 -4.640625 2.515625 -4.640625 C 2.210938 -4.640625 1.988281 -4.578125 1.84375 -4.453125 C 1.707031 -4.335938 1.640625 -4.203125 1.640625 -4.046875 C 1.640625 -3.898438 1.679688 -3.78125 1.765625 -3.6875 C 1.859375 -3.601562 1.976562 -3.53125 2.125 -3.46875 C 2.269531 -3.414062 2.4375 -3.367188 2.625 -3.328125 C 2.8125 -3.285156 3.003906 -3.238281 3.203125 -3.1875 C 3.398438 -3.144531 3.59375 -3.085938 3.78125 -3.015625 C 3.96875 -2.953125 4.128906 -2.859375 4.265625 -2.734375 C 4.410156 -2.617188 4.53125 -2.472656 4.625 -2.296875 C 4.71875 -2.128906 4.765625 -1.910156 4.765625 -1.640625 C 4.765625 -1.398438 4.710938 -1.175781 4.609375 -0.96875 C 4.515625 -0.757812 4.367188 -0.578125 4.171875 -0.421875 C 3.984375 -0.265625 3.742188 -0.140625 3.453125 -0.046875 C 3.171875 0.0351562 2.847656 0.078125 2.484375 0.078125 Z M 2.484375 0.078125 "/></g></g><g style="fill:#ffffff;fill-opacity:1;"><g transform="translate(140.7524, 63.31187)"><path style="stroke:none" d="M 2.953125 0.078125 C 2.554688 0.078125 2.195312 0.015625 1.875 -0.109375 C 1.550781 -0.234375 1.273438 -0.421875 1.046875 -0.671875 C 0.816406 -0.921875 0.632812 -1.222656 0.5 -1.578125 C 0.375 -1.929688 0.3125 -2.335938 0.3125 -2.796875 C 0.3125 -3.253906 0.375 -3.660156 0.5 -4.015625 C 0.632812 -4.378906 0.816406 -4.679688 1.046875 -4.921875 C 1.273438 -5.171875 1.550781 -5.359375 1.875 -5.484375 C 2.195312 -5.617188 2.554688 -5.6875 2.953125 -5.6875 C 3.359375 -5.6875 3.722656 -5.617188 4.046875 -5.484375 C 4.367188 -5.359375 4.644531 -5.171875 4.875 -4.921875 C 5.101562 -4.679688 5.28125 -4.378906 5.40625 -4.015625 C 5.53125 -3.660156 5.59375 -3.253906 5.59375 -2.796875 C 5.59375 -2.335938 5.53125 -1.929688 5.40625 -1.578125 C 5.28125 -1.222656 5.101562 -0.921875 4.875 -0.671875 C 4.644531 -0.421875 4.367188 -0.234375 4.046875 -0.109375 C 3.722656 0.015625 3.359375 0.078125 2.953125 0.078125 Z M 2.953125 -1 C 3.160156 -1 3.351562 -1.035156 3.53125 -1.109375 C 3.707031 -1.179688 3.859375 -1.289062 3.984375 -1.4375 C 4.117188 -1.59375 4.222656 -1.785156 4.296875 -2.015625 C 4.367188 -2.242188 4.40625 -2.503906 4.40625 -2.796875 C 4.40625 -3.097656 4.367188 -3.359375 4.296875 -3.578125 C 4.222656 -3.804688 4.117188 -3.992188 3.984375 -4.140625 C 3.859375 -4.296875 3.707031 -4.410156 3.53125 -4.484375 C 3.351562 -4.554688 3.160156 -4.59375 2.953125 -4.59375 C 2.742188 -4.59375 2.550781 -4.554688 2.375 -4.484375 C 2.207031 -4.410156 2.054688 -4.296875 1.921875 -4.140625 C 1.796875 -3.992188 1.695312 -3.804688 1.625 -3.578125 C 1.550781 -3.359375 1.515625 -3.097656 1.515625 -2.796875 C 1.515625 -2.503906 1.550781 -2.242188 1.625 -2.015625 C 1.695312 -1.785156 1.796875 -1.59375 1.921875 -1.4375 C 2.054688 -1.289062 2.207031 -1.179688 2.375 -1.109375 C 2.550781 -1.035156 2.742188 -1 2.953125 -1 Z M 2.953125 -1 "/></g></g><g style="fill:#ffffff;fill-opacity:1;"><g transform="translate(146.669724, 63.31187)"><path style="stroke:none" d="M 2.953125 0.078125 C 2.554688 0.078125 2.195312 0.015625 1.875 -0.109375 C 1.550781 -0.234375 1.273438 -0.421875 1.046875 -0.671875 C 0.816406 -0.921875 0.632812 -1.222656 0.5 -1.578125 C 0.375 -1.929688 0.3125 -2.335938 0.3125 -2.796875 C 0.3125 -3.253906 0.375 -3.660156 0.5 -4.015625 C 0.632812 -4.378906 0.816406 -4.679688 1.046875 -4.921875 C 1.273438 -5.171875 1.550781 -5.359375 1.875 -5.484375 C 2.195312 -5.617188 2.554688 -5.6875 2.953125 -5.6875 C 3.304688 -5.6875 3.617188 -5.640625 3.890625 -5.546875 C 4.160156 -5.453125 4.394531 -5.320312 4.59375 -5.15625 C 4.789062 -5 4.957031 -4.804688 5.09375 -4.578125 C 5.226562 -4.359375 5.332031 -4.113281 5.40625 -3.84375 L 4.15625 -3.84375 C 4.113281 -3.957031 4.054688 -4.054688 3.984375 -4.140625 C 3.910156 -4.234375 3.828125 -4.3125 3.734375 -4.375 C 3.640625 -4.445312 3.53125 -4.5 3.40625 -4.53125 C 3.28125 -4.570312 3.128906 -4.59375 2.953125 -4.59375 C 2.742188 -4.59375 2.550781 -4.554688 2.375 -4.484375 C 2.207031 -4.410156 2.054688 -4.296875 1.921875 -4.140625 C 1.796875 -3.992188 1.695312 -3.804688 1.625 -3.578125 C 1.550781 -3.359375 1.515625 -3.097656 1.515625 -2.796875 C 1.515625 -2.503906 1.550781 -2.242188 1.625 -2.015625 C 1.695312 -1.785156 1.796875 -1.59375 1.921875 -1.4375 C 2.054688 -1.289062 2.207031 -1.179688 2.375 -1.109375 C 2.550781 -1.035156 2.742188 -1 2.953125 -1 C 3.128906 -1 3.28125 -1.015625 3.40625 -1.046875 C 3.53125 -1.085938 3.640625 -1.140625 3.734375 -1.203125 C 3.828125 -1.273438 3.910156 -1.359375 3.984375 -1.453125 C 4.054688 -1.546875 4.113281 -1.648438 4.15625 -1.765625 L 5.40625 -1.765625 C 5.332031 -1.492188 5.226562 -1.242188 5.09375 -1.015625 C 4.957031 -0.796875 4.789062 -0.601562 4.59375 -0.4375 C 4.394531 -0.269531 4.160156 -0.140625 3.890625 -0.046875 C 3.617188 0.0351562 3.304688 0.078125 2.953125 0.078125 Z M 2.953125 0.078125 "/></g></g><g style="fill:#ffffff;fill-opacity:1;"><g transform="translate(152.307169, 63.31187)"><path style="stroke:none" d="M 0.5625 -5.59375 L 1.765625 -5.59375 L 1.765625 0 L 0.5625 0 Z M 0.5625 -5.59375 "/></g></g><g style="fill:#ffffff;fill-opacity:1;"><g transform="translate(154.626121, 63.31187)"><path style="stroke:none" d="M 1.953125 -5.59375 L 3.4375 -5.59375 L 5.4375 0 L 4.203125 0 L 3.84375 -1.046875 L 1.5625 -1.046875 L 1.203125 0 L -0.046875 0 Z M 3.453125 -2.125 L 2.71875 -4.234375 L 2.6875 -4.234375 L 1.953125 -2.125 Z M 3.453125 -2.125 "/></g></g><g style="fill:#ffffff;fill-opacity:1;"><g transform="translate(160.023675, 63.31187)"><path style="stroke:none" d="M 0.5625 -5.59375 L 1.765625 -5.59375 L 1.765625 -1.078125 L 4.3125 -1.078125 L 4.3125 0 L 0.5625 0 Z M 0.5625 -5.59375 "/></g></g></g></svg>