<svg xmlns="http://www.w3.org/2000/svg" xmlns:xlink="http://www.w3.org/1999/xlink" width="300" zoomAndPan="magnify" viewBox="0 0 224.87999 74.999997" height="100" preserveAspectRatio="xMidYMid meet" version="1.2"><defs/><g id="df9eba86dd"><g style="fill:#1a5da9;fill-opacity:1;"><g transform="translate(127.785414, 32.50482)"><path style="stroke:none" d="M 4.015625 0.140625 C 3.046875 0.140625 2.265625 -0.09375 1.671875 -0.5625 C 1.085938 -1.03125 0.710938 -1.660156 0.546875 -2.453125 L 1.703125 -2.453125 C 1.867188 -1.929688 2.148438 -1.539062 2.546875 -1.28125 C 2.941406 -1.019531 3.429688 -0.890625 4.015625 -0.890625 C 4.785156 -0.890625 5.363281 -1.050781 5.75 -1.375 C 6.132812 -1.695312 6.328125 -2.097656 6.328125 -2.578125 C 6.328125 -2.890625 6.242188 -3.140625 6.078125 -3.328125 C 5.921875 -3.515625 5.710938 -3.671875 5.453125 -3.796875 C 5.203125 -3.921875 4.910156 -4.023438 4.578125 -4.109375 C 4.242188 -4.191406 3.90625 -4.273438 3.5625 -4.359375 C 3.226562 -4.453125 2.894531 -4.554688 2.5625 -4.671875 C 2.226562 -4.796875 1.929688 -4.957031 1.671875 -5.15625 C 1.421875 -5.363281 1.210938 -5.617188 1.046875 -5.921875 C 0.890625 -6.222656 0.8125 -6.601562 0.8125 -7.0625 C 0.8125 -7.414062 0.878906 -7.75 1.015625 -8.0625 C 1.160156 -8.382812 1.367188 -8.660156 1.640625 -8.890625 C 1.910156 -9.128906 2.242188 -9.316406 2.640625 -9.453125 C 3.046875 -9.585938 3.503906 -9.65625 4.015625 -9.65625 C 4.859375 -9.65625 5.566406 -9.457031 6.140625 -9.0625 C 6.722656 -8.664062 7.097656 -8.09375 7.265625 -7.34375 L 6.109375 -7.34375 C 5.972656 -7.71875 5.734375 -8.023438 5.390625 -8.265625 C 5.046875 -8.503906 4.585938 -8.625 4.015625 -8.625 C 3.328125 -8.625 2.8125 -8.472656 2.46875 -8.171875 C 2.132812 -7.878906 1.96875 -7.507812 1.96875 -7.0625 C 1.96875 -6.738281 2.046875 -6.472656 2.203125 -6.265625 C 2.367188 -6.066406 2.578125 -5.898438 2.828125 -5.765625 C 3.085938 -5.640625 3.382812 -5.53125 3.71875 -5.4375 C 4.050781 -5.351562 4.382812 -5.265625 4.71875 -5.171875 C 5.0625 -5.085938 5.394531 -4.988281 5.71875 -4.875 C 6.050781 -4.757812 6.347656 -4.601562 6.609375 -4.40625 C 6.867188 -4.21875 7.078125 -3.976562 7.234375 -3.6875 C 7.390625 -3.394531 7.46875 -3.023438 7.46875 -2.578125 C 7.46875 -2.222656 7.394531 -1.878906 7.25 -1.546875 C 7.101562 -1.222656 6.878906 -0.9375 6.578125 -0.6875 C 6.285156 -0.4375 5.925781 -0.234375 5.5 -0.078125 C 5.070312 0.0664062 4.578125 0.140625 4.015625 0.140625 Z M 4.015625 0.140625 "/></g></g><g style="fill:#1a5da9;fill-opacity:1;"><g transform="translate(135.801476, 32.50482)"><path style="stroke:none" d="M 3.875 0.140625 C 3.394531 0.140625 2.953125 0.0625 2.546875 -0.09375 C 2.148438 -0.257812 1.804688 -0.5 1.515625 -0.8125 C 1.234375 -1.125 1.007812 -1.503906 0.84375 -1.953125 C 0.6875 -2.410156 0.609375 -2.9375 0.609375 -3.53125 C 0.609375 -4.132812 0.6875 -4.660156 0.84375 -5.109375 C 1.007812 -5.566406 1.234375 -5.953125 1.515625 -6.265625 C 1.796875 -6.578125 2.128906 -6.8125 2.515625 -6.96875 C 2.910156 -7.125 3.34375 -7.203125 3.8125 -7.203125 C 4.351562 -7.203125 4.820312 -7.097656 5.21875 -6.890625 C 5.613281 -6.691406 5.945312 -6.429688 6.21875 -6.109375 C 6.488281 -5.785156 6.6875 -5.429688 6.8125 -5.046875 C 6.9375 -4.660156 7 -4.289062 7 -3.9375 C 7 -3.84375 6.992188 -3.753906 6.984375 -3.671875 C 6.972656 -3.585938 6.960938 -3.515625 6.953125 -3.453125 C 6.953125 -3.378906 6.945312 -3.316406 6.9375 -3.265625 L 1.625 -3.265625 C 1.664062 -2.441406 1.894531 -1.828125 2.3125 -1.421875 C 2.738281 -1.015625 3.257812 -0.8125 3.875 -0.8125 C 4.6875 -0.8125 5.296875 -1.148438 5.703125 -1.828125 L 6.796875 -1.828125 C 6.554688 -1.179688 6.175781 -0.691406 5.65625 -0.359375 C 5.144531 -0.0234375 4.550781 0.140625 3.875 0.140625 Z M 5.984375 -4.140625 C 5.910156 -4.828125 5.671875 -5.347656 5.265625 -5.703125 C 4.867188 -6.066406 4.382812 -6.25 3.8125 -6.25 C 3.226562 -6.25 2.734375 -6.066406 2.328125 -5.703125 C 1.929688 -5.347656 1.695312 -4.828125 1.625 -4.140625 Z M 5.984375 -4.140625 "/></g></g><g style="fill:#1a5da9;fill-opacity:1;"><g transform="translate(143.409945, 32.50482)"><path style="stroke:none" d="M 3.875 0.140625 C 3.394531 0.140625 2.953125 0.0625 2.546875 -0.09375 C 2.148438 -0.257812 1.804688 -0.5 1.515625 -0.8125 C 1.234375 -1.125 1.007812 -1.503906 0.84375 -1.953125 C 0.6875 -2.410156 0.609375 -2.9375 0.609375 -3.53125 C 0.609375 -4.132812 0.6875 -4.660156 0.84375 -5.109375 C 1.007812 -5.566406 1.234375 -5.953125 1.515625 -6.265625 C 1.804688 -6.578125 2.148438 -6.8125 2.546875 -6.96875 C 2.953125 -7.125 3.394531 -7.203125 3.875 -7.203125 C 4.550781 -7.203125 5.144531 -7.035156 5.65625 -6.703125 C 6.175781 -6.378906 6.554688 -5.890625 6.796875 -5.234375 L 5.703125 -5.234375 C 5.296875 -5.910156 4.6875 -6.25 3.875 -6.25 C 3.550781 -6.25 3.25 -6.191406 2.96875 -6.078125 C 2.695312 -5.960938 2.460938 -5.785156 2.265625 -5.546875 C 2.066406 -5.316406 1.910156 -5.035156 1.796875 -4.703125 C 1.679688 -4.367188 1.625 -3.976562 1.625 -3.53125 C 1.625 -3.09375 1.679688 -2.703125 1.796875 -2.359375 C 1.910156 -2.023438 2.066406 -1.742188 2.265625 -1.515625 C 2.460938 -1.285156 2.695312 -1.109375 2.96875 -0.984375 C 3.25 -0.867188 3.550781 -0.8125 3.875 -0.8125 C 4.6875 -0.8125 5.296875 -1.148438 5.703125 -1.828125 L 6.796875 -1.828125 C 6.554688 -1.179688 6.175781 -0.691406 5.65625 -0.359375 C 5.144531 -0.0234375 4.550781 0.140625 3.875 0.140625 Z M 3.875 0.140625 "/></g></g><g style="fill:#1a5da9;fill-opacity:1;"><g transform="translate(150.67874, 32.50482)"><path style="stroke:none" d="M 0.953125 -7.0625 L 1.765625 -7.0625 L 1.90625 -6.109375 L 1.96875 -6.109375 C 2.175781 -6.460938 2.429688 -6.707031 2.734375 -6.84375 C 3.046875 -6.988281 3.425781 -7.0625 3.875 -7.0625 L 4.625 -7.0625 L 4.625 -6.109375 L 3.875 -6.109375 C 3.601562 -6.109375 3.347656 -6.0625 3.109375 -5.96875 C 2.878906 -5.882812 2.675781 -5.765625 2.5 -5.609375 C 2.332031 -5.460938 2.203125 -5.28125 2.109375 -5.0625 C 2.015625 -4.84375 1.96875 -4.601562 1.96875 -4.34375 L 1.96875 0 L 0.953125 0 Z M 0.953125 -7.0625 "/></g></g><g style="fill:#1a5da9;fill-opacity:1;"><g transform="translate(155.501968, 32.50482)"><path style="stroke:none" d="M 3.875 0.140625 C 3.394531 0.140625 2.953125 0.0625 2.546875 -0.09375 C 2.148438 -0.257812 1.804688 -0.5 1.515625 -0.8125 C 1.234375 -1.125 1.007812 -1.503906 0.84375 -1.953125 C 0.6875 -2.410156 0.609375 -2.9375 0.609375 -3.53125 C 0.609375 -4.132812 0.6875 -4.660156 0.84375 -5.109375 C 1.007812 -5.566406 1.234375 -5.953125 1.515625 -6.265625 C 1.796875 -6.578125 2.128906 -6.8125 2.515625 -6.96875 C 2.910156 -7.125 3.34375 -7.203125 3.8125 -7.203125 C 4.351562 -7.203125 4.820312 -7.097656 5.21875 -6.890625 C 5.613281 -6.691406 5.945312 -6.429688 6.21875 -6.109375 C 6.488281 -5.785156 6.6875 -5.429688 6.8125 -5.046875 C 6.9375 -4.660156 7 -4.289062 7 -3.9375 C 7 -3.84375 6.992188 -3.753906 6.984375 -3.671875 C 6.972656 -3.585938 6.960938 -3.515625 6.953125 -3.453125 C 6.953125 -3.378906 6.945312 -3.316406 6.9375 -3.265625 L 1.625 -3.265625 C 1.664062 -2.441406 1.894531 -1.828125 2.3125 -1.421875 C 2.738281 -1.015625 3.257812 -0.8125 3.875 -0.8125 C 4.6875 -0.8125 5.296875 -1.148438 5.703125 -1.828125 L 6.796875 -1.828125 C 6.554688 -1.179688 6.175781 -0.691406 5.65625 -0.359375 C 5.144531 -0.0234375 4.550781 0.140625 3.875 0.140625 Z M 5.984375 -4.140625 C 5.910156 -4.828125 5.671875 -5.347656 5.265625 -5.703125 C 4.867188 -6.066406 4.382812 -6.25 3.8125 -6.25 C 3.226562 -6.25 2.734375 -6.066406 2.328125 -5.703125 C 1.929688 -5.347656 1.695312 -4.828125 1.625 -4.140625 Z M 5.984375 -4.140625 "/></g></g><g style="fill:#1a5da9;fill-opacity:1;"><g transform="translate(163.110437, 32.50482)"><path style="stroke:none" d="M 3.1875 0 C 2.675781 0 2.253906 -0.164062 1.921875 -0.5 C 1.585938 -0.832031 1.421875 -1.253906 1.421875 -1.765625 L 1.421875 -6.109375 L 0.34375 -6.109375 L 0.34375 -7.0625 L 1.421875 -7.0625 L 1.5625 -8.96875 L 2.453125 -8.96875 L 2.453125 -7.0625 L 4.28125 -7.0625 L 4.28125 -6.109375 L 2.453125 -6.109375 L 2.453125 -1.765625 C 2.453125 -1.523438 2.523438 -1.328125 2.671875 -1.171875 C 2.828125 -1.023438 3.023438 -0.953125 3.265625 -0.953125 L 4.28125 -0.953125 L 4.28125 0 Z M 3.1875 0 "/></g></g><g style="fill:#1a5da9;fill-opacity:1;"><g transform="translate(167.933665, 32.50482)"><path style="stroke:none" d="M 2.984375 0.140625 C 2.617188 0.140625 2.28125 0.0820312 1.96875 -0.03125 C 1.664062 -0.144531 1.410156 -0.296875 1.203125 -0.484375 C 0.992188 -0.679688 0.832031 -0.910156 0.71875 -1.171875 C 0.601562 -1.441406 0.546875 -1.726562 0.546875 -2.03125 C 0.546875 -2.34375 0.601562 -2.628906 0.71875 -2.890625 C 0.832031 -3.160156 1 -3.390625 1.21875 -3.578125 C 1.445312 -3.773438 1.726562 -3.929688 2.0625 -4.046875 C 2.394531 -4.160156 2.769531 -4.21875 3.1875 -4.21875 L 5.171875 -4.21875 L 5.171875 -4.6875 C 5.171875 -5.164062 5.015625 -5.546875 4.703125 -5.828125 C 4.390625 -6.109375 3.976562 -6.25 3.46875 -6.25 C 3.019531 -6.25 2.660156 -6.15625 2.390625 -5.96875 C 2.117188 -5.789062 1.929688 -5.546875 1.828125 -5.234375 L 0.75 -5.234375 C 0.914062 -5.890625 1.238281 -6.378906 1.71875 -6.703125 C 2.207031 -7.035156 2.789062 -7.203125 3.46875 -7.203125 C 3.894531 -7.203125 4.273438 -7.140625 4.609375 -7.015625 C 4.941406 -6.898438 5.222656 -6.734375 5.453125 -6.515625 C 5.691406 -6.296875 5.875 -6.03125 6 -5.71875 C 6.125 -5.414062 6.1875 -5.070312 6.1875 -4.6875 L 6.1875 0 L 5.375 0 L 5.234375 -0.953125 L 5.171875 -0.953125 C 5.097656 -0.835938 4.992188 -0.710938 4.859375 -0.578125 C 4.722656 -0.453125 4.5625 -0.332031 4.375 -0.21875 C 4.195312 -0.113281 3.988281 -0.03125 3.75 0.03125 C 3.507812 0.101562 3.253906 0.140625 2.984375 0.140625 Z M 2.984375 -0.8125 C 3.328125 -0.8125 3.632812 -0.863281 3.90625 -0.96875 C 4.175781 -1.070312 4.398438 -1.210938 4.578125 -1.390625 C 4.765625 -1.566406 4.910156 -1.773438 5.015625 -2.015625 C 5.117188 -2.253906 5.171875 -2.507812 5.171875 -2.78125 L 5.171875 -3.265625 L 3.1875 -3.265625 C 2.644531 -3.265625 2.238281 -3.15625 1.96875 -2.9375 C 1.695312 -2.71875 1.5625 -2.414062 1.5625 -2.03125 C 1.5625 -1.65625 1.6875 -1.359375 1.9375 -1.140625 C 2.195312 -0.921875 2.546875 -0.8125 2.984375 -0.8125 Z M 2.984375 -0.8125 "/></g></g><g style="fill:#1a5da9;fill-opacity:1;"><g transform="translate(174.998669, 32.50482)"><path style="stroke:none" d="M 0.953125 -7.0625 L 1.765625 -7.0625 L 1.90625 -6.109375 L 1.96875 -6.109375 C 2.175781 -6.460938 2.429688 -6.707031 2.734375 -6.84375 C 3.046875 -6.988281 3.425781 -7.0625 3.875 -7.0625 L 4.625 -7.0625 L 4.625 -6.109375 L 3.875 -6.109375 C 3.601562 -6.109375 3.347656 -6.0625 3.109375 -5.96875 C 2.878906 -5.882812 2.675781 -5.765625 2.5 -5.609375 C 2.332031 -5.460938 2.203125 -5.28125 2.109375 -5.0625 C 2.015625 -4.84375 1.96875 -4.601562 1.96875 -4.34375 L 1.96875 0 L 0.953125 0 Z M 0.953125 -7.0625 "/></g></g><g style="fill:#1a5da9;fill-opacity:1;"><g transform="translate(179.821897, 32.50482)"><path style="stroke:none" d="M 0.953125 -7.0625 L 1.96875 -7.0625 L 1.96875 0 L 0.953125 0 Z M 1.46875 -8.09375 C 1.269531 -8.09375 1.097656 -8.160156 0.953125 -8.296875 C 0.816406 -8.429688 0.75 -8.597656 0.75 -8.796875 C 0.75 -8.992188 0.816406 -9.160156 0.953125 -9.296875 C 1.085938 -9.441406 1.257812 -9.515625 1.46875 -9.515625 C 1.664062 -9.515625 1.832031 -9.441406 1.96875 -9.296875 C 2.101562 -9.160156 2.171875 -8.992188 2.171875 -8.796875 C 2.171875 -8.609375 2.101562 -8.441406 1.96875 -8.296875 C 1.832031 -8.160156 1.664062 -8.09375 1.46875 -8.09375 Z M 1.46875 -8.09375 "/></g></g><g style="fill:#1a5da9;fill-opacity:1;"><g transform="translate(182.742999, 32.50482)"><path style="stroke:none" d="M 2.984375 0.140625 C 2.617188 0.140625 2.28125 0.0820312 1.96875 -0.03125 C 1.664062 -0.144531 1.410156 -0.296875 1.203125 -0.484375 C 0.992188 -0.679688 0.832031 -0.910156 0.71875 -1.171875 C 0.601562 -1.441406 0.546875 -1.726562 0.546875 -2.03125 C 0.546875 -2.34375 0.601562 -2.628906 0.71875 -2.890625 C 0.832031 -3.160156 1 -3.390625 1.21875 -3.578125 C 1.445312 -3.773438 1.726562 -3.929688 2.0625 -4.046875 C 2.394531 -4.160156 2.769531 -4.21875 3.1875 -4.21875 L 5.171875 -4.21875 L 5.171875 -4.6875 C 5.171875 -5.164062 5.015625 -5.546875 4.703125 -5.828125 C 4.390625 -6.109375 3.976562 -6.25 3.46875 -6.25 C 3.019531 -6.25 2.660156 -6.15625 2.390625 -5.96875 C 2.117188 -5.789062 1.929688 -5.546875 1.828125 -5.234375 L 0.75 -5.234375 C 0.914062 -5.890625 1.238281 -6.378906 1.71875 -6.703125 C 2.207031 -7.035156 2.789062 -7.203125 3.46875 -7.203125 C 3.894531 -7.203125 4.273438 -7.140625 4.609375 -7.015625 C 4.941406 -6.898438 5.222656 -6.734375 5.453125 -6.515625 C 5.691406 -6.296875 5.875 -6.03125 6 -5.71875 C 6.125 -5.414062 6.1875 -5.070312 6.1875 -4.6875 L 6.1875 0 L 5.375 0 L 5.234375 -0.953125 L 5.171875 -0.953125 C 5.097656 -0.835938 4.992188 -0.710938 4.859375 -0.578125 C 4.722656 -0.453125 4.5625 -0.332031 4.375 -0.21875 C 4.195312 -0.113281 3.988281 -0.03125 3.75 0.03125 C 3.507812 0.101562 3.253906 0.140625 2.984375 0.140625 Z M 2.984375 -0.8125 C 3.328125 -0.8125 3.632812 -0.863281 3.90625 -0.96875 C 4.175781 -1.070312 4.398438 -1.210938 4.578125 -1.390625 C 4.765625 -1.566406 4.910156 -1.773438 5.015625 -2.015625 C 5.117188 -2.253906 5.171875 -2.507812 5.171875 -2.78125 L 5.171875 -3.265625 L 3.1875 -3.265625 C 2.644531 -3.265625 2.238281 -3.15625 1.96875 -2.9375 C 1.695312 -2.71875 1.5625 -2.414062 1.5625 -2.03125 C 1.5625 -1.65625 1.6875 -1.359375 1.9375 -1.140625 C 2.195312 -0.921875 2.546875 -0.8125 2.984375 -0.8125 Z M 2.984375 -0.8125 "/></g></g><g style="fill:#1a5da9;fill-opacity:1;"><g transform="translate(189.808003, 32.50482)"><path style="stroke:none" d=""/></g></g><g style="fill:#1a5da9;fill-opacity:1;"><g transform="translate(192.797047, 32.50482)"><path style="stroke:none" d="M 3.671875 0.140625 C 3.222656 0.140625 2.8125 0.0625 2.4375 -0.09375 C 2.070312 -0.257812 1.753906 -0.5 1.484375 -0.8125 C 1.210938 -1.125 1 -1.503906 0.84375 -1.953125 C 0.6875 -2.410156 0.609375 -2.9375 0.609375 -3.53125 C 0.609375 -4.132812 0.6875 -4.660156 0.84375 -5.109375 C 1 -5.566406 1.210938 -5.953125 1.484375 -6.265625 C 1.753906 -6.578125 2.070312 -6.8125 2.4375 -6.96875 C 2.8125 -7.125 3.222656 -7.203125 3.671875 -7.203125 C 4.179688 -7.203125 4.625 -7.109375 5 -6.921875 C 5.375 -6.734375 5.675781 -6.488281 5.90625 -6.1875 L 5.984375 -6.1875 L 5.984375 -9.515625 L 7 -9.515625 L 7 0 L 6.1875 0 L 6.046875 -0.953125 L 5.984375 -0.953125 C 5.742188 -0.609375 5.425781 -0.335938 5.03125 -0.140625 C 4.632812 0.046875 4.179688 0.140625 3.671875 0.140625 Z M 3.8125 -0.8125 C 4.457031 -0.8125 4.976562 -1.039062 5.375 -1.5 C 5.78125 -1.96875 5.984375 -2.644531 5.984375 -3.53125 C 5.984375 -4.414062 5.78125 -5.085938 5.375 -5.546875 C 4.976562 -6.015625 4.457031 -6.25 3.8125 -6.25 C 3.15625 -6.25 2.625 -6.015625 2.21875 -5.546875 C 1.820312 -5.085938 1.625 -4.414062 1.625 -3.53125 C 1.625 -2.644531 1.820312 -1.96875 2.21875 -1.5 C 2.625 -1.039062 3.15625 -0.8125 3.8125 -0.8125 Z M 3.8125 -0.8125 "/></g></g><g style="fill:#1a5da9;fill-opacity:1;"><g transform="translate(200.813109, 32.50482)"><path style="stroke:none" d="M 3.875 0.140625 C 3.394531 0.140625 2.953125 0.0625 2.546875 -0.09375 C 2.148438 -0.257812 1.804688 -0.5 1.515625 -0.8125 C 1.234375 -1.125 1.007812 -1.503906 0.84375 -1.953125 C 0.6875 -2.410156 0.609375 -2.9375 0.609375 -3.53125 C 0.609375 -4.132812 0.6875 -4.660156 0.84375 -5.109375 C 1.007812 -5.566406 1.234375 -5.953125 1.515625 -6.265625 C 1.796875 -6.578125 2.128906 -6.8125 2.515625 -6.96875 C 2.910156 -7.125 3.34375 -7.203125 3.8125 -7.203125 C 4.351562 -7.203125 4.820312 -7.097656 5.21875 -6.890625 C 5.613281 -6.691406 5.945312 -6.429688 6.21875 -6.109375 C 6.488281 -5.785156 6.6875 -5.429688 6.8125 -5.046875 C 6.9375 -4.660156 7 -4.289062 7 -3.9375 C 7 -3.84375 6.992188 -3.753906 6.984375 -3.671875 C 6.972656 -3.585938 6.960938 -3.515625 6.953125 -3.453125 C 6.953125 -3.378906 6.945312 -3.316406 6.9375 -3.265625 L 1.625 -3.265625 C 1.664062 -2.441406 1.894531 -1.828125 2.3125 -1.421875 C 2.738281 -1.015625 3.257812 -0.8125 3.875 -0.8125 C 4.6875 -0.8125 5.296875 -1.148438 5.703125 -1.828125 L 6.796875 -1.828125 C 6.554688 -1.179688 6.175781 -0.691406 5.65625 -0.359375 C 5.144531 -0.0234375 4.550781 0.140625 3.875 0.140625 Z M 5.984375 -4.140625 C 5.910156 -4.828125 5.671875 -5.347656 5.265625 -5.703125 C 4.867188 -6.066406 4.382812 -6.25 3.8125 -6.25 C 3.226562 -6.25 2.734375 -6.066406 2.328125 -5.703125 C 1.929688 -5.347656 1.695312 -4.828125 1.625 -4.140625 Z M 5.984375 -4.140625 "/></g></g><g style="fill:#1a5da9;fill-opacity:1;"><g transform="translate(208.42597, 32.50482)"><path style="stroke:none" d=""/></g></g><g style="fill:#1a5da9;fill-opacity:1;"><g transform="translate(4.040812, 48.983819)"><path style="stroke:none" d="M 0.875 -8.8125 L 4.65625 -8.8125 C 5.09375 -8.8125 5.492188 -8.742188 5.859375 -8.609375 C 6.222656 -8.472656 6.535156 -8.273438 6.796875 -8.015625 C 7.054688 -7.765625 7.257812 -7.460938 7.40625 -7.109375 C 7.550781 -6.753906 7.625 -6.359375 7.625 -5.921875 C 7.625 -5.367188 7.523438 -4.910156 7.328125 -4.546875 C 7.140625 -4.191406 6.929688 -3.910156 6.703125 -3.703125 C 6.429688 -3.460938 6.128906 -3.273438 5.796875 -3.140625 L 7.9375 0 L 5.796875 0 L 3.78125 -3.015625 L 2.765625 -3.015625 L 2.765625 0 L 0.875 0 Z M 4.53125 -4.71875 C 4.882812 -4.71875 5.171875 -4.820312 5.390625 -5.03125 C 5.617188 -5.25 5.734375 -5.546875 5.734375 -5.921875 C 5.734375 -6.296875 5.617188 -6.585938 5.390625 -6.796875 C 5.171875 -7.003906 4.882812 -7.109375 4.53125 -7.109375 L 2.765625 -7.109375 L 2.765625 -4.71875 Z M 4.53125 -4.71875 "/></g></g><g style="fill:#1a5da9;fill-opacity:1;"><g transform="translate(12.287853, 48.983819)"><path style="stroke:none" d="M 3.71875 0.125 C 3.207031 0.125 2.75 0.046875 2.34375 -0.109375 C 1.945312 -0.265625 1.601562 -0.488281 1.3125 -0.78125 C 1.03125 -1.070312 0.8125 -1.429688 0.65625 -1.859375 C 0.507812 -2.285156 0.4375 -2.78125 0.4375 -3.34375 C 0.4375 -3.894531 0.507812 -4.382812 0.65625 -4.8125 C 0.8125 -5.238281 1.03125 -5.597656 1.3125 -5.890625 C 1.601562 -6.179688 1.945312 -6.40625 2.34375 -6.5625 C 2.75 -6.71875 3.207031 -6.796875 3.71875 -6.796875 C 4.207031 -6.796875 4.644531 -6.710938 5.03125 -6.546875 C 5.425781 -6.390625 5.765625 -6.160156 6.046875 -5.859375 C 6.328125 -5.566406 6.539062 -5.210938 6.6875 -4.796875 C 6.84375 -4.390625 6.921875 -3.945312 6.921875 -3.46875 C 6.921875 -3.375 6.914062 -3.285156 6.90625 -3.203125 C 6.90625 -3.117188 6.898438 -3.039062 6.890625 -2.96875 C 6.878906 -2.894531 6.867188 -2.828125 6.859375 -2.765625 L 2.265625 -2.765625 C 2.335938 -2.390625 2.484375 -2.078125 2.703125 -1.828125 C 2.929688 -1.578125 3.269531 -1.453125 3.71875 -1.453125 C 4.0625 -1.453125 4.3125 -1.503906 4.46875 -1.609375 C 4.632812 -1.722656 4.78125 -1.878906 4.90625 -2.078125 L 6.796875 -2.078125 C 6.722656 -1.796875 6.609375 -1.519531 6.453125 -1.25 C 6.296875 -0.988281 6.09375 -0.753906 5.84375 -0.546875 C 5.601562 -0.335938 5.304688 -0.171875 4.953125 -0.046875 C 4.597656 0.0664062 4.1875 0.125 3.71875 0.125 Z M 5.09375 -4.09375 C 5.0625 -4.238281 5.007812 -4.375 4.9375 -4.5 C 4.875 -4.632812 4.785156 -4.753906 4.671875 -4.859375 C 4.554688 -4.972656 4.414062 -5.0625 4.25 -5.125 C 4.09375 -5.1875 3.914062 -5.21875 3.71875 -5.21875 C 3.300781 -5.21875 2.976562 -5.109375 2.75 -4.890625 C 2.519531 -4.679688 2.359375 -4.414062 2.265625 -4.09375 Z M 5.09375 -4.09375 "/></g></g><g style="fill:#1a5da9;fill-opacity:1;"><g transform="translate(19.653528, 48.983819)"><path style="stroke:none" d="M 3.71875 2.515625 C 3.207031 2.515625 2.769531 2.457031 2.40625 2.34375 C 2.050781 2.226562 1.75 2.066406 1.5 1.859375 C 1.257812 1.648438 1.0625 1.410156 0.90625 1.140625 C 0.757812 0.867188 0.644531 0.570312 0.5625 0.25 L 2.390625 0.25 C 2.460938 0.46875 2.613281 0.632812 2.84375 0.75 C 3.070312 0.875 3.363281 0.9375 3.71875 0.9375 C 4.15625 0.9375 4.492188 0.832031 4.734375 0.625 C 4.972656 0.414062 5.09375 0.125 5.09375 -0.25 L 5.09375 -1.203125 L 5.03125 -1.203125 C 4.96875 -1.117188 4.882812 -1.03125 4.78125 -0.9375 C 4.675781 -0.84375 4.546875 -0.753906 4.390625 -0.671875 C 4.242188 -0.585938 4.078125 -0.515625 3.890625 -0.453125 C 3.703125 -0.398438 3.5 -0.375 3.28125 -0.375 C 2.84375 -0.375 2.453125 -0.441406 2.109375 -0.578125 C 1.765625 -0.722656 1.46875 -0.929688 1.21875 -1.203125 C 0.96875 -1.472656 0.773438 -1.804688 0.640625 -2.203125 C 0.503906 -2.609375 0.4375 -3.070312 0.4375 -3.59375 C 0.4375 -4.113281 0.503906 -4.570312 0.640625 -4.96875 C 0.773438 -5.363281 0.96875 -5.695312 1.21875 -5.96875 C 1.46875 -6.25 1.765625 -6.457031 2.109375 -6.59375 C 2.453125 -6.726562 2.84375 -6.796875 3.28125 -6.796875 C 3.6875 -6.796875 4.039062 -6.703125 4.34375 -6.515625 C 4.65625 -6.335938 4.90625 -6.140625 5.09375 -5.921875 L 5.15625 -5.921875 L 5.359375 -6.671875 L 6.859375 -6.671875 L 6.859375 -0.25 C 6.859375 0.632812 6.601562 1.316406 6.09375 1.796875 C 5.582031 2.273438 4.789062 2.515625 3.71875 2.515625 Z M 3.65625 -1.953125 C 4.09375 -1.953125 4.441406 -2.097656 4.703125 -2.390625 C 4.960938 -2.679688 5.09375 -3.082031 5.09375 -3.59375 C 5.09375 -4.09375 4.960938 -4.488281 4.703125 -4.78125 C 4.441406 -5.070312 4.09375 -5.21875 3.65625 -5.21875 C 3.207031 -5.21875 2.851562 -5.070312 2.59375 -4.78125 C 2.332031 -4.488281 2.203125 -4.09375 2.203125 -3.59375 C 2.203125 -3.082031 2.332031 -2.679688 2.59375 -2.390625 C 2.851562 -2.097656 3.207031 -1.953125 3.65625 -1.953125 Z M 3.65625 -1.953125 "/></g></g><g style="fill:#1a5da9;fill-opacity:1;"><g transform="translate(27.271021, 48.983819)"><path style="stroke:none" d="M 0.75 -6.671875 L 2.515625 -6.671875 L 2.515625 0 L 0.75 0 Z M 1.640625 -7.375 C 1.347656 -7.375 1.101562 -7.46875 0.90625 -7.65625 C 0.71875 -7.851562 0.625 -8.09375 0.625 -8.375 C 0.625 -8.65625 0.71875 -8.890625 0.90625 -9.078125 C 1.101562 -9.273438 1.347656 -9.375 1.640625 -9.375 C 1.921875 -9.375 2.15625 -9.273438 2.34375 -9.078125 C 2.539062 -8.890625 2.640625 -8.65625 2.640625 -8.375 C 2.640625 -8.09375 2.539062 -7.851562 2.34375 -7.65625 C 2.15625 -7.46875 1.921875 -7.375 1.640625 -7.375 Z M 1.640625 -7.375 "/></g></g><g style="fill:#1a5da9;fill-opacity:1;"><g transform="translate(30.544653, 48.983819)"><path style="stroke:none" d="M 0.75 -6.671875 L 2.265625 -6.671875 L 2.453125 -5.921875 L 2.515625 -5.921875 C 2.710938 -6.203125 2.9375 -6.414062 3.1875 -6.5625 C 3.4375 -6.71875 3.738281 -6.796875 4.09375 -6.796875 C 4.375 -6.796875 4.617188 -6.757812 4.828125 -6.6875 C 5.035156 -6.613281 5.210938 -6.519531 5.359375 -6.40625 C 5.503906 -6.300781 5.617188 -6.1875 5.703125 -6.0625 C 5.796875 -5.9375 5.867188 -5.828125 5.921875 -5.734375 L 5.984375 -5.734375 C 6.035156 -5.828125 6.109375 -5.9375 6.203125 -6.0625 C 6.304688 -6.1875 6.441406 -6.300781 6.609375 -6.40625 C 6.773438 -6.519531 6.972656 -6.613281 7.203125 -6.6875 C 7.429688 -6.757812 7.695312 -6.796875 8 -6.796875 C 8.351562 -6.796875 8.679688 -6.734375 8.984375 -6.609375 C 9.285156 -6.492188 9.546875 -6.320312 9.765625 -6.09375 C 9.984375 -5.863281 10.148438 -5.582031 10.265625 -5.25 C 10.390625 -4.925781 10.453125 -4.5625 10.453125 -4.15625 L 10.453125 0 L 8.6875 0 L 8.6875 -3.90625 C 8.6875 -4.132812 8.65625 -4.332031 8.59375 -4.5 C 8.539062 -4.675781 8.460938 -4.816406 8.359375 -4.921875 C 8.265625 -5.023438 8.144531 -5.097656 8 -5.140625 C 7.863281 -5.191406 7.71875 -5.21875 7.5625 -5.21875 C 7.269531 -5.21875 7.015625 -5.109375 6.796875 -4.890625 C 6.585938 -4.679688 6.484375 -4.351562 6.484375 -3.90625 L 6.484375 0 L 4.71875 0 L 4.71875 -3.90625 C 4.71875 -4.132812 4.6875 -4.332031 4.625 -4.5 C 4.570312 -4.675781 4.492188 -4.816406 4.390625 -4.921875 C 4.296875 -5.023438 4.175781 -5.097656 4.03125 -5.140625 C 3.894531 -5.191406 3.75 -5.21875 3.59375 -5.21875 C 3.300781 -5.21875 3.046875 -5.097656 2.828125 -4.859375 C 2.617188 -4.628906 2.515625 -4.3125 2.515625 -3.90625 L 2.515625 0 L 0.75 0 Z M 0.75 -6.671875 "/></g></g><g style="fill:#1a5da9;fill-opacity:1;"><g transform="translate(41.687598, 48.983819)"><path style="stroke:none" d="M 3.71875 0.125 C 3.207031 0.125 2.75 0.046875 2.34375 -0.109375 C 1.945312 -0.265625 1.601562 -0.488281 1.3125 -0.78125 C 1.03125 -1.070312 0.8125 -1.429688 0.65625 -1.859375 C 0.507812 -2.285156 0.4375 -2.78125 0.4375 -3.34375 C 0.4375 -3.894531 0.507812 -4.382812 0.65625 -4.8125 C 0.8125 -5.238281 1.03125 -5.597656 1.3125 -5.890625 C 1.601562 -6.179688 1.945312 -6.40625 2.34375 -6.5625 C 2.75 -6.71875 3.207031 -6.796875 3.71875 -6.796875 C 4.207031 -6.796875 4.644531 -6.710938 5.03125 -6.546875 C 5.425781 -6.390625 5.765625 -6.160156 6.046875 -5.859375 C 6.328125 -5.566406 6.539062 -5.210938 6.6875 -4.796875 C 6.84375 -4.390625 6.921875 -3.945312 6.921875 -3.46875 C 6.921875 -3.375 6.914062 -3.285156 6.90625 -3.203125 C 6.90625 -3.117188 6.898438 -3.039062 6.890625 -2.96875 C 6.878906 -2.894531 6.867188 -2.828125 6.859375 -2.765625 L 2.265625 -2.765625 C 2.335938 -2.390625 2.484375 -2.078125 2.703125 -1.828125 C 2.929688 -1.578125 3.269531 -1.453125 3.71875 -1.453125 C 4.0625 -1.453125 4.3125 -1.503906 4.46875 -1.609375 C 4.632812 -1.722656 4.78125 -1.878906 4.90625 -2.078125 L 6.796875 -2.078125 C 6.722656 -1.796875 6.609375 -1.519531 6.453125 -1.25 C 6.296875 -0.988281 6.09375 -0.753906 5.84375 -0.546875 C 5.601562 -0.335938 5.304688 -0.171875 4.953125 -0.046875 C 4.597656 0.0664062 4.1875 0.125 3.71875 0.125 Z M 5.09375 -4.09375 C 5.0625 -4.238281 5.007812 -4.375 4.9375 -4.5 C 4.875 -4.632812 4.785156 -4.753906 4.671875 -4.859375 C 4.554688 -4.972656 4.414062 -5.0625 4.25 -5.125 C 4.09375 -5.1875 3.914062 -5.21875 3.71875 -5.21875 C 3.300781 -5.21875 2.976562 -5.109375 2.75 -4.890625 C 2.519531 -4.679688 2.359375 -4.414062 2.265625 -4.09375 Z M 5.09375 -4.09375 "/></g></g><g style="fill:#1a5da9;fill-opacity:1;"><g transform="translate(49.053273, 48.983819)"><path style="stroke:none" d="M 3.21875 0.125 C 2.726562 0.125 2.304688 0.0664062 1.953125 -0.046875 C 1.597656 -0.171875 1.300781 -0.332031 1.0625 -0.53125 C 0.832031 -0.726562 0.648438 -0.957031 0.515625 -1.21875 C 0.390625 -1.488281 0.300781 -1.773438 0.25 -2.078125 L 2.140625 -2.078125 C 2.171875 -1.921875 2.273438 -1.773438 2.453125 -1.640625 C 2.640625 -1.515625 2.894531 -1.453125 3.21875 -1.453125 C 3.644531 -1.453125 3.9375 -1.503906 4.09375 -1.609375 C 4.257812 -1.710938 4.34375 -1.828125 4.34375 -1.953125 C 4.34375 -2.117188 4.25 -2.238281 4.0625 -2.3125 C 3.875 -2.394531 3.632812 -2.460938 3.34375 -2.515625 C 3.0625 -2.578125 2.753906 -2.640625 2.421875 -2.703125 C 2.085938 -2.773438 1.78125 -2.890625 1.5 -3.046875 C 1.21875 -3.203125 0.976562 -3.414062 0.78125 -3.6875 C 0.59375 -3.957031 0.5 -4.320312 0.5 -4.78125 C 0.5 -5.070312 0.554688 -5.335938 0.671875 -5.578125 C 0.796875 -5.816406 0.96875 -6.023438 1.1875 -6.203125 C 1.414062 -6.390625 1.695312 -6.535156 2.03125 -6.640625 C 2.375 -6.742188 2.769531 -6.796875 3.21875 -6.796875 C 3.6875 -6.796875 4.09375 -6.738281 4.4375 -6.625 C 4.78125 -6.519531 5.066406 -6.375 5.296875 -6.1875 C 5.523438 -6 5.703125 -5.78125 5.828125 -5.53125 C 5.960938 -5.28125 6.054688 -5.007812 6.109375 -4.71875 L 4.21875 -4.71875 C 4.1875 -4.84375 4.097656 -4.957031 3.953125 -5.0625 C 3.804688 -5.164062 3.5625 -5.21875 3.21875 -5.21875 C 2.925781 -5.21875 2.703125 -5.175781 2.546875 -5.09375 C 2.398438 -5.007812 2.328125 -4.90625 2.328125 -4.78125 C 2.328125 -4.613281 2.421875 -4.492188 2.609375 -4.421875 C 2.796875 -4.347656 3.03125 -4.28125 3.3125 -4.21875 C 3.601562 -4.15625 3.914062 -4.085938 4.25 -4.015625 C 4.582031 -3.953125 4.890625 -3.84375 5.171875 -3.6875 C 5.460938 -3.539062 5.703125 -3.328125 5.890625 -3.046875 C 6.078125 -2.773438 6.171875 -2.410156 6.171875 -1.953125 C 6.171875 -1.679688 6.117188 -1.421875 6.015625 -1.171875 C 5.921875 -0.929688 5.757812 -0.710938 5.53125 -0.515625 C 5.3125 -0.328125 5.007812 -0.171875 4.625 -0.046875 C 4.25 0.0664062 3.78125 0.125 3.21875 0.125 Z M 3.21875 0.125 "/></g></g><g style="fill:#1a5da9;fill-opacity:1;"><g transform="translate(55.537582, 48.983819)"><path style="stroke:none" d=""/></g></g><g style="fill:#1a5da9;fill-opacity:1;"><g transform="translate(58.433486, 48.983819)"><path style="stroke:none" d="M 0.875 -8.8125 L 4.53125 -8.8125 C 4.988281 -8.8125 5.40625 -8.734375 5.78125 -8.578125 C 6.164062 -8.429688 6.492188 -8.222656 6.765625 -7.953125 C 7.035156 -7.691406 7.242188 -7.375 7.390625 -7 C 7.546875 -6.632812 7.625 -6.234375 7.625 -5.796875 C 7.625 -5.347656 7.546875 -4.9375 7.390625 -4.5625 C 7.242188 -4.195312 7.035156 -3.878906 6.765625 -3.609375 C 6.492188 -3.347656 6.164062 -3.140625 5.78125 -2.984375 C 5.40625 -2.835938 4.988281 -2.765625 4.53125 -2.765625 L 2.765625 -2.765625 L 2.765625 0 L 0.875 0 Z M 4.34375 -4.46875 C 4.789062 -4.46875 5.132812 -4.582031 5.375 -4.8125 C 5.613281 -5.050781 5.734375 -5.378906 5.734375 -5.796875 C 5.734375 -6.203125 5.613281 -6.519531 5.375 -6.75 C 5.132812 -6.988281 4.789062 -7.109375 4.34375 -7.109375 L 2.765625 -7.109375 L 2.765625 -4.46875 Z M 4.34375 -4.46875 "/></g></g><g style="fill:#1a5da9;fill-opacity:1;"><g transform="translate(66.554617, 48.983819)"><path style="stroke:none" d="M 0.75 -6.671875 L 2.265625 -6.671875 L 2.453125 -5.921875 L 2.515625 -5.921875 C 2.710938 -6.203125 2.941406 -6.394531 3.203125 -6.5 C 3.472656 -6.613281 3.769531 -6.671875 4.09375 -6.671875 L 4.90625 -6.671875 L 4.90625 -4.96875 L 4.21875 -4.96875 C 3.675781 -4.96875 3.253906 -4.820312 2.953125 -4.53125 C 2.660156 -4.238281 2.515625 -3.84375 2.515625 -3.34375 L 2.515625 0 L 0.75 0 Z M 0.75 -6.671875 "/></g></g><g style="fill:#1a5da9;fill-opacity:1;"><g transform="translate(71.653935, 48.983819)"><path style="stroke:none" d="M 3.71875 0.125 C 3.207031 0.125 2.75 0.046875 2.34375 -0.109375 C 1.945312 -0.265625 1.601562 -0.488281 1.3125 -0.78125 C 1.03125 -1.070312 0.8125 -1.429688 0.65625 -1.859375 C 0.507812 -2.285156 0.4375 -2.78125 0.4375 -3.34375 C 0.4375 -3.894531 0.507812 -4.382812 0.65625 -4.8125 C 0.8125 -5.238281 1.03125 -5.597656 1.3125 -5.890625 C 1.601562 -6.179688 1.945312 -6.40625 2.34375 -6.5625 C 2.75 -6.71875 3.207031 -6.796875 3.71875 -6.796875 C 4.21875 -6.796875 4.671875 -6.71875 5.078125 -6.5625 C 5.484375 -6.40625 5.828125 -6.179688 6.109375 -5.890625 C 6.390625 -5.597656 6.601562 -5.238281 6.75 -4.8125 C 6.90625 -4.382812 6.984375 -3.894531 6.984375 -3.34375 C 6.984375 -2.78125 6.90625 -2.285156 6.75 -1.859375 C 6.601562 -1.429688 6.390625 -1.070312 6.109375 -0.78125 C 5.828125 -0.488281 5.484375 -0.265625 5.078125 -0.109375 C 4.671875 0.046875 4.21875 0.125 3.71875 0.125 Z M 3.71875 -1.453125 C 3.914062 -1.453125 4.109375 -1.484375 4.296875 -1.546875 C 4.484375 -1.617188 4.644531 -1.734375 4.78125 -1.890625 C 4.914062 -2.046875 5.019531 -2.242188 5.09375 -2.484375 C 5.175781 -2.722656 5.21875 -3.007812 5.21875 -3.34375 C 5.21875 -3.664062 5.175781 -3.945312 5.09375 -4.1875 C 5.019531 -4.425781 4.914062 -4.625 4.78125 -4.78125 C 4.644531 -4.9375 4.484375 -5.046875 4.296875 -5.109375 C 4.109375 -5.179688 3.914062 -5.21875 3.71875 -5.21875 C 3.507812 -5.21875 3.3125 -5.179688 3.125 -5.109375 C 2.945312 -5.046875 2.785156 -4.9375 2.640625 -4.78125 C 2.503906 -4.625 2.394531 -4.425781 2.3125 -4.1875 C 2.238281 -3.945312 2.203125 -3.664062 2.203125 -3.34375 C 2.203125 -3.007812 2.238281 -2.722656 2.3125 -2.484375 C 2.394531 -2.242188 2.503906 -2.046875 2.640625 -1.890625 C 2.785156 -1.734375 2.945312 -1.617188 3.125 -1.546875 C 3.3125 -1.484375 3.507812 -1.453125 3.71875 -1.453125 Z M 4.21875 -9.578125 L 5.84375 -9.578125 L 4.40625 -7.6875 L 3.078125 -7.6875 Z M 4.21875 -9.578125 "/></g></g><g style="fill:#1a5da9;fill-opacity:1;"><g transform="translate(79.082564, 48.983819)"><path style="stroke:none" d="M 0.75 -6.671875 L 2.265625 -6.671875 L 2.453125 -5.921875 L 2.515625 -5.921875 C 2.703125 -6.140625 2.945312 -6.335938 3.25 -6.515625 C 3.550781 -6.703125 3.9375 -6.796875 4.40625 -6.796875 C 4.832031 -6.796875 5.222656 -6.722656 5.578125 -6.578125 C 5.929688 -6.429688 6.234375 -6.210938 6.484375 -5.921875 C 6.742188 -5.628906 6.941406 -5.265625 7.078125 -4.828125 C 7.222656 -4.398438 7.296875 -3.90625 7.296875 -3.34375 C 7.296875 -2.769531 7.222656 -2.269531 7.078125 -1.84375 C 6.941406 -1.414062 6.742188 -1.050781 6.484375 -0.75 C 6.234375 -0.457031 5.929688 -0.238281 5.578125 -0.09375 C 5.222656 0.0507812 4.832031 0.125 4.40625 0.125 C 4.15625 0.125 3.929688 0.0976562 3.734375 0.046875 C 3.535156 -0.00390625 3.359375 -0.0703125 3.203125 -0.15625 C 3.054688 -0.25 2.929688 -0.34375 2.828125 -0.4375 C 2.722656 -0.53125 2.640625 -0.613281 2.578125 -0.6875 L 2.515625 -0.6875 L 2.515625 2.515625 L 0.75 2.515625 Z M 4.03125 -1.453125 C 4.226562 -1.453125 4.421875 -1.484375 4.609375 -1.546875 C 4.796875 -1.617188 4.957031 -1.734375 5.09375 -1.890625 C 5.226562 -2.046875 5.335938 -2.242188 5.421875 -2.484375 C 5.503906 -2.722656 5.546875 -3.007812 5.546875 -3.34375 C 5.546875 -3.664062 5.503906 -3.945312 5.421875 -4.1875 C 5.335938 -4.425781 5.226562 -4.625 5.09375 -4.78125 C 4.957031 -4.9375 4.796875 -5.046875 4.609375 -5.109375 C 4.421875 -5.179688 4.226562 -5.21875 4.03125 -5.21875 C 3.832031 -5.21875 3.640625 -5.179688 3.453125 -5.109375 C 3.265625 -5.046875 3.101562 -4.9375 2.96875 -4.78125 C 2.832031 -4.625 2.722656 -4.425781 2.640625 -4.1875 C 2.554688 -3.945312 2.515625 -3.664062 2.515625 -3.34375 C 2.515625 -3.007812 2.554688 -2.722656 2.640625 -2.484375 C 2.722656 -2.242188 2.832031 -2.046875 2.96875 -1.890625 C 3.101562 -1.734375 3.265625 -1.617188 3.453125 -1.546875 C 3.640625 -1.484375 3.832031 -1.453125 4.03125 -1.453125 Z M 4.03125 -1.453125 "/></g></g><g style="fill:#1a5da9;fill-opacity:1;"><g transform="translate(86.825967, 48.983819)"><path style="stroke:none" d="M 0.75 -6.671875 L 2.265625 -6.671875 L 2.453125 -5.921875 L 2.515625 -5.921875 C 2.710938 -6.203125 2.941406 -6.394531 3.203125 -6.5 C 3.472656 -6.613281 3.769531 -6.671875 4.09375 -6.671875 L 4.90625 -6.671875 L 4.90625 -4.96875 L 4.21875 -4.96875 C 3.675781 -4.96875 3.253906 -4.820312 2.953125 -4.53125 C 2.660156 -4.238281 2.515625 -3.84375 2.515625 -3.34375 L 2.515625 0 L 0.75 0 Z M 0.75 -6.671875 "/></g></g><g style="fill:#1a5da9;fill-opacity:1;"><g transform="translate(91.925285, 48.983819)"><path style="stroke:none" d="M 0.75 -6.671875 L 2.515625 -6.671875 L 2.515625 0 L 0.75 0 Z M 1.640625 -7.375 C 1.347656 -7.375 1.101562 -7.46875 0.90625 -7.65625 C 0.71875 -7.851562 0.625 -8.09375 0.625 -8.375 C 0.625 -8.65625 0.71875 -8.890625 0.90625 -9.078125 C 1.101562 -9.273438 1.347656 -9.375 1.640625 -9.375 C 1.921875 -9.375 2.15625 -9.273438 2.34375 -9.078125 C 2.539062 -8.890625 2.640625 -8.65625 2.640625 -8.375 C 2.640625 -8.09375 2.539062 -7.851562 2.34375 -7.65625 C 2.15625 -7.46875 1.921875 -7.375 1.640625 -7.375 Z M 1.640625 -7.375 "/></g></g><g style="fill:#1a5da9;fill-opacity:1;"><g transform="translate(95.198917, 48.983819)"><path style="stroke:none" d="M 3.71875 0.125 C 3.207031 0.125 2.75 0.046875 2.34375 -0.109375 C 1.945312 -0.265625 1.601562 -0.488281 1.3125 -0.78125 C 1.03125 -1.070312 0.8125 -1.429688 0.65625 -1.859375 C 0.507812 -2.285156 0.4375 -2.78125 0.4375 -3.34375 C 0.4375 -3.894531 0.507812 -4.382812 0.65625 -4.8125 C 0.8125 -5.238281 1.03125 -5.597656 1.3125 -5.890625 C 1.601562 -6.179688 1.945312 -6.40625 2.34375 -6.5625 C 2.75 -6.71875 3.207031 -6.796875 3.71875 -6.796875 C 4.21875 -6.796875 4.671875 -6.71875 5.078125 -6.5625 C 5.484375 -6.40625 5.828125 -6.179688 6.109375 -5.890625 C 6.390625 -5.597656 6.601562 -5.238281 6.75 -4.8125 C 6.90625 -4.382812 6.984375 -3.894531 6.984375 -3.34375 C 6.984375 -2.78125 6.90625 -2.285156 6.75 -1.859375 C 6.601562 -1.429688 6.390625 -1.070312 6.109375 -0.78125 C 5.828125 -0.488281 5.484375 -0.265625 5.078125 -0.109375 C 4.671875 0.046875 4.21875 0.125 3.71875 0.125 Z M 3.71875 -1.453125 C 3.914062 -1.453125 4.109375 -1.484375 4.296875 -1.546875 C 4.484375 -1.617188 4.644531 -1.734375 4.78125 -1.890625 C 4.914062 -2.046875 5.019531 -2.242188 5.09375 -2.484375 C 5.175781 -2.722656 5.21875 -3.007812 5.21875 -3.34375 C 5.21875 -3.664062 5.175781 -3.945312 5.09375 -4.1875 C 5.019531 -4.425781 4.914062 -4.625 4.78125 -4.78125 C 4.644531 -4.9375 4.484375 -5.046875 4.296875 -5.109375 C 4.109375 -5.179688 3.914062 -5.21875 3.71875 -5.21875 C 3.507812 -5.21875 3.3125 -5.179688 3.125 -5.109375 C 2.945312 -5.046875 2.785156 -4.9375 2.640625 -4.78125 C 2.503906 -4.625 2.394531 -4.425781 2.3125 -4.1875 C 2.238281 -3.945312 2.203125 -3.664062 2.203125 -3.34375 C 2.203125 -3.007812 2.238281 -2.722656 2.3125 -2.484375 C 2.394531 -2.242188 2.503906 -2.046875 2.640625 -1.890625 C 2.785156 -1.734375 2.945312 -1.617188 3.125 -1.546875 C 3.3125 -1.484375 3.507812 -1.453125 3.71875 -1.453125 Z M 3.71875 -1.453125 "/></g></g><g style="fill:#1a5da9;fill-opacity:1;"><g transform="translate(102.627547, 48.983819)"><path style="stroke:none" d="M 3.21875 0.125 C 2.726562 0.125 2.304688 0.0664062 1.953125 -0.046875 C 1.597656 -0.171875 1.300781 -0.332031 1.0625 -0.53125 C 0.832031 -0.726562 0.648438 -0.957031 0.515625 -1.21875 C 0.390625 -1.488281 0.300781 -1.773438 0.25 -2.078125 L 2.140625 -2.078125 C 2.171875 -1.921875 2.273438 -1.773438 2.453125 -1.640625 C 2.640625 -1.515625 2.894531 -1.453125 3.21875 -1.453125 C 3.644531 -1.453125 3.9375 -1.503906 4.09375 -1.609375 C 4.257812 -1.710938 4.34375 -1.828125 4.34375 -1.953125 C 4.34375 -2.117188 4.25 -2.238281 4.0625 -2.3125 C 3.875 -2.394531 3.632812 -2.460938 3.34375 -2.515625 C 3.0625 -2.578125 2.753906 -2.640625 2.421875 -2.703125 C 2.085938 -2.773438 1.78125 -2.890625 1.5 -3.046875 C 1.21875 -3.203125 0.976562 -3.414062 0.78125 -3.6875 C 0.59375 -3.957031 0.5 -4.320312 0.5 -4.78125 C 0.5 -5.070312 0.554688 -5.335938 0.671875 -5.578125 C 0.796875 -5.816406 0.96875 -6.023438 1.1875 -6.203125 C 1.414062 -6.390625 1.695312 -6.535156 2.03125 -6.640625 C 2.375 -6.742188 2.769531 -6.796875 3.21875 -6.796875 C 3.6875 -6.796875 4.09375 -6.738281 4.4375 -6.625 C 4.78125 -6.519531 5.066406 -6.375 5.296875 -6.1875 C 5.523438 -6 5.703125 -5.78125 5.828125 -5.53125 C 5.960938 -5.28125 6.054688 -5.007812 6.109375 -4.71875 L 4.21875 -4.71875 C 4.1875 -4.84375 4.097656 -4.957031 3.953125 -5.0625 C 3.804688 -5.164062 3.5625 -5.21875 3.21875 -5.21875 C 2.925781 -5.21875 2.703125 -5.175781 2.546875 -5.09375 C 2.398438 -5.007812 2.328125 -4.90625 2.328125 -4.78125 C 2.328125 -4.613281 2.421875 -4.492188 2.609375 -4.421875 C 2.796875 -4.347656 3.03125 -4.28125 3.3125 -4.21875 C 3.601562 -4.15625 3.914062 -4.085938 4.25 -4.015625 C 4.582031 -3.953125 4.890625 -3.84375 5.171875 -3.6875 C 5.460938 -3.539062 5.703125 -3.328125 5.890625 -3.046875 C 6.078125 -2.773438 6.171875 -2.410156 6.171875 -1.953125 C 6.171875 -1.679688 6.117188 -1.421875 6.015625 -1.171875 C 5.921875 -0.929688 5.757812 -0.710938 5.53125 -0.515625 C 5.3125 -0.328125 5.007812 -0.171875 4.625 -0.046875 C 4.25 0.0664062 3.78125 0.125 3.21875 0.125 Z M 3.21875 0.125 "/></g></g><g style="fill:#1a5da9;fill-opacity:1;"><g transform="translate(109.111856, 48.983819)"><path style="stroke:none" d=""/></g></g><g style="fill:#1a5da9;fill-opacity:1;"><g transform="translate(112.00776, 48.983819)"><path style="stroke:none" d="M 3.71875 0.125 C 3.207031 0.125 2.75 0.046875 2.34375 -0.109375 C 1.945312 -0.265625 1.601562 -0.488281 1.3125 -0.78125 C 1.03125 -1.070312 0.8125 -1.429688 0.65625 -1.859375 C 0.507812 -2.285156 0.4375 -2.78125 0.4375 -3.34375 C 0.4375 -3.894531 0.507812 -4.382812 0.65625 -4.8125 C 0.8125 -5.238281 1.03125 -5.597656 1.3125 -5.890625 C 1.601562 -6.179688 1.945312 -6.40625 2.34375 -6.5625 C 2.75 -6.71875 3.207031 -6.796875 3.71875 -6.796875 C 4.207031 -6.796875 4.644531 -6.710938 5.03125 -6.546875 C 5.425781 -6.390625 5.765625 -6.160156 6.046875 -5.859375 C 6.328125 -5.566406 6.539062 -5.210938 6.6875 -4.796875 C 6.84375 -4.390625 6.921875 -3.945312 6.921875 -3.46875 C 6.921875 -3.375 6.914062 -3.285156 6.90625 -3.203125 C 6.90625 -3.117188 6.898438 -3.039062 6.890625 -2.96875 C 6.878906 -2.894531 6.867188 -2.828125 6.859375 -2.765625 L 2.265625 -2.765625 C 2.335938 -2.390625 2.484375 -2.078125 2.703125 -1.828125 C 2.929688 -1.578125 3.269531 -1.453125 3.71875 -1.453125 C 4.0625 -1.453125 4.3125 -1.503906 4.46875 -1.609375 C 4.632812 -1.722656 4.78125 -1.878906 4.90625 -2.078125 L 6.796875 -2.078125 C 6.722656 -1.796875 6.609375 -1.519531 6.453125 -1.25 C 6.296875 -0.988281 6.09375 -0.753906 5.84375 -0.546875 C 5.601562 -0.335938 5.304688 -0.171875 4.953125 -0.046875 C 4.597656 0.0664062 4.1875 0.125 3.71875 0.125 Z M 5.09375 -4.09375 C 5.0625 -4.238281 5.007812 -4.375 4.9375 -4.5 C 4.875 -4.632812 4.785156 -4.753906 4.671875 -4.859375 C 4.554688 -4.972656 4.414062 -5.0625 4.25 -5.125 C 4.09375 -5.1875 3.914062 -5.21875 3.71875 -5.21875 C 3.300781 -5.21875 2.976562 -5.109375 2.75 -4.890625 C 2.519531 -4.679688 2.359375 -4.414062 2.265625 -4.09375 Z M 5.09375 -4.09375 "/></g></g><g style="fill:#1a5da9;fill-opacity:1;"><g transform="translate(119.373435, 48.983819)"><path style="stroke:none" d=""/></g></g><g style="fill:#1a5da9;fill-opacity:1;"><g transform="translate(122.269339, 48.983819)"><path style="stroke:none" d="M 4.65625 0.125 C 4.03125 0.125 3.457031 0.0234375 2.9375 -0.171875 C 2.425781 -0.378906 1.988281 -0.675781 1.625 -1.0625 C 1.269531 -1.445312 0.992188 -1.921875 0.796875 -2.484375 C 0.597656 -3.046875 0.5 -3.6875 0.5 -4.40625 C 0.5 -5.125 0.597656 -5.765625 0.796875 -6.328125 C 0.992188 -6.890625 1.269531 -7.363281 1.625 -7.75 C 1.988281 -8.144531 2.425781 -8.441406 2.9375 -8.640625 C 3.457031 -8.835938 4.03125 -8.9375 4.65625 -8.9375 C 5.207031 -8.9375 5.695312 -8.863281 6.125 -8.71875 C 6.550781 -8.582031 6.921875 -8.382812 7.234375 -8.125 C 7.546875 -7.875 7.804688 -7.570312 8.015625 -7.21875 C 8.234375 -6.863281 8.394531 -6.472656 8.5 -6.046875 L 6.546875 -6.046875 C 6.472656 -6.222656 6.378906 -6.378906 6.265625 -6.515625 C 6.160156 -6.660156 6.035156 -6.785156 5.890625 -6.890625 C 5.742188 -7.003906 5.566406 -7.085938 5.359375 -7.140625 C 5.160156 -7.203125 4.925781 -7.234375 4.65625 -7.234375 C 4.332031 -7.234375 4.03125 -7.175781 3.75 -7.0625 C 3.476562 -6.945312 3.238281 -6.769531 3.03125 -6.53125 C 2.832031 -6.300781 2.675781 -6.003906 2.5625 -5.640625 C 2.445312 -5.285156 2.390625 -4.875 2.390625 -4.40625 C 2.390625 -3.9375 2.445312 -3.519531 2.5625 -3.15625 C 2.675781 -2.800781 2.832031 -2.503906 3.03125 -2.265625 C 3.238281 -2.035156 3.476562 -1.863281 3.75 -1.75 C 4.03125 -1.632812 4.332031 -1.578125 4.65625 -1.578125 C 4.925781 -1.578125 5.160156 -1.601562 5.359375 -1.65625 C 5.566406 -1.71875 5.742188 -1.800781 5.890625 -1.90625 C 6.035156 -2.019531 6.160156 -2.144531 6.265625 -2.28125 C 6.378906 -2.425781 6.472656 -2.585938 6.546875 -2.765625 L 8.5 -2.765625 C 8.394531 -2.335938 8.234375 -1.945312 8.015625 -1.59375 C 7.804688 -1.25 7.546875 -0.945312 7.234375 -0.6875 C 6.921875 -0.425781 6.550781 -0.222656 6.125 -0.078125 C 5.695312 0.0546875 5.207031 0.125 4.65625 0.125 Z M 4.65625 0.125 "/></g></g><g style="fill:#1a5da9;fill-opacity:1;"><g transform="translate(131.145926, 48.983819)"><path style="stroke:none" d="M 3.71875 0.125 C 3.207031 0.125 2.75 0.046875 2.34375 -0.109375 C 1.945312 -0.265625 1.601562 -0.488281 1.3125 -0.78125 C 1.03125 -1.070312 0.8125 -1.429688 0.65625 -1.859375 C 0.507812 -2.285156 0.4375 -2.78125 0.4375 -3.34375 C 0.4375 -3.894531 0.507812 -4.382812 0.65625 -4.8125 C 0.8125 -5.238281 1.03125 -5.597656 1.3125 -5.890625 C 1.601562 -6.179688 1.945312 -6.40625 2.34375 -6.5625 C 2.75 -6.71875 3.207031 -6.796875 3.71875 -6.796875 C 4.21875 -6.796875 4.671875 -6.71875 5.078125 -6.5625 C 5.484375 -6.40625 5.828125 -6.179688 6.109375 -5.890625 C 6.390625 -5.597656 6.601562 -5.238281 6.75 -4.8125 C 6.90625 -4.382812 6.984375 -3.894531 6.984375 -3.34375 C 6.984375 -2.78125 6.90625 -2.285156 6.75 -1.859375 C 6.601562 -1.429688 6.390625 -1.070312 6.109375 -0.78125 C 5.828125 -0.488281 5.484375 -0.265625 5.078125 -0.109375 C 4.671875 0.046875 4.21875 0.125 3.71875 0.125 Z M 3.71875 -1.453125 C 3.914062 -1.453125 4.109375 -1.484375 4.296875 -1.546875 C 4.484375 -1.617188 4.644531 -1.734375 4.78125 -1.890625 C 4.914062 -2.046875 5.019531 -2.242188 5.09375 -2.484375 C 5.175781 -2.722656 5.21875 -3.007812 5.21875 -3.34375 C 5.21875 -3.664062 5.175781 -3.945312 5.09375 -4.1875 C 5.019531 -4.425781 4.914062 -4.625 4.78125 -4.78125 C 4.644531 -4.9375 4.484375 -5.046875 4.296875 -5.109375 C 4.109375 -5.179688 3.914062 -5.21875 3.71875 -5.21875 C 3.507812 -5.21875 3.3125 -5.179688 3.125 -5.109375 C 2.945312 -5.046875 2.785156 -4.9375 2.640625 -4.78125 C 2.503906 -4.625 2.394531 -4.425781 2.3125 -4.1875 C 2.238281 -3.945312 2.203125 -3.664062 2.203125 -3.34375 C 2.203125 -3.007812 2.238281 -2.722656 2.3125 -2.484375 C 2.394531 -2.242188 2.503906 -2.046875 2.640625 -1.890625 C 2.785156 -1.734375 2.945312 -1.617188 3.125 -1.546875 C 3.3125 -1.484375 3.507812 -1.453125 3.71875 -1.453125 Z M 3.71875 -1.453125 "/></g></g><g style="fill:#1a5da9;fill-opacity:1;"><g transform="translate(138.574556, 48.983819)"><path style="stroke:none" d="M 0.75 -6.671875 L 2.265625 -6.671875 L 2.453125 -5.921875 L 2.515625 -5.921875 C 2.710938 -6.203125 2.9375 -6.414062 3.1875 -6.5625 C 3.4375 -6.71875 3.738281 -6.796875 4.09375 -6.796875 C 4.375 -6.796875 4.617188 -6.757812 4.828125 -6.6875 C 5.035156 -6.613281 5.210938 -6.519531 5.359375 -6.40625 C 5.503906 -6.300781 5.617188 -6.1875 5.703125 -6.0625 C 5.796875 -5.9375 5.867188 -5.828125 5.921875 -5.734375 L 5.984375 -5.734375 C 6.035156 -5.828125 6.109375 -5.9375 6.203125 -6.0625 C 6.304688 -6.1875 6.441406 -6.300781 6.609375 -6.40625 C 6.773438 -6.519531 6.972656 -6.613281 7.203125 -6.6875 C 7.429688 -6.757812 7.695312 -6.796875 8 -6.796875 C 8.351562 -6.796875 8.679688 -6.734375 8.984375 -6.609375 C 9.285156 -6.492188 9.546875 -6.320312 9.765625 -6.09375 C 9.984375 -5.863281 10.148438 -5.582031 10.265625 -5.25 C 10.390625 -4.925781 10.453125 -4.5625 10.453125 -4.15625 L 10.453125 0 L 8.6875 0 L 8.6875 -3.90625 C 8.6875 -4.132812 8.65625 -4.332031 8.59375 -4.5 C 8.539062 -4.675781 8.460938 -4.816406 8.359375 -4.921875 C 8.265625 -5.023438 8.144531 -5.097656 8 -5.140625 C 7.863281 -5.191406 7.71875 -5.21875 7.5625 -5.21875 C 7.269531 -5.21875 7.015625 -5.109375 6.796875 -4.890625 C 6.585938 -4.679688 6.484375 -4.351562 6.484375 -3.90625 L 6.484375 0 L 4.71875 0 L 4.71875 -3.90625 C 4.71875 -4.132812 4.6875 -4.332031 4.625 -4.5 C 4.570312 -4.675781 4.492188 -4.816406 4.390625 -4.921875 C 4.296875 -5.023438 4.175781 -5.097656 4.03125 -5.140625 C 3.894531 -5.191406 3.75 -5.21875 3.59375 -5.21875 C 3.300781 -5.21875 3.046875 -5.097656 2.828125 -4.859375 C 2.617188 -4.628906 2.515625 -4.3125 2.515625 -3.90625 L 2.515625 0 L 0.75 0 Z M 0.75 -6.671875 "/></g></g><g style="fill:#1a5da9;fill-opacity:1;"><g transform="translate(149.7175, 48.983819)"><path style="stroke:none" d="M 0.75 -6.671875 L 2.265625 -6.671875 L 2.453125 -5.921875 L 2.515625 -5.921875 C 2.703125 -6.140625 2.945312 -6.335938 3.25 -6.515625 C 3.550781 -6.703125 3.9375 -6.796875 4.40625 -6.796875 C 4.832031 -6.796875 5.222656 -6.722656 5.578125 -6.578125 C 5.929688 -6.429688 6.234375 -6.210938 6.484375 -5.921875 C 6.742188 -5.628906 6.941406 -5.265625 7.078125 -4.828125 C 7.222656 -4.398438 7.296875 -3.90625 7.296875 -3.34375 C 7.296875 -2.769531 7.222656 -2.269531 7.078125 -1.84375 C 6.941406 -1.414062 6.742188 -1.050781 6.484375 -0.75 C 6.234375 -0.457031 5.929688 -0.238281 5.578125 -0.09375 C 5.222656 0.0507812 4.832031 0.125 4.40625 0.125 C 4.15625 0.125 3.929688 0.0976562 3.734375 0.046875 C 3.535156 -0.00390625 3.359375 -0.0703125 3.203125 -0.15625 C 3.054688 -0.25 2.929688 -0.34375 2.828125 -0.4375 C 2.722656 -0.53125 2.640625 -0.613281 2.578125 -0.6875 L 2.515625 -0.6875 L 2.515625 2.515625 L 0.75 2.515625 Z M 4.03125 -1.453125 C 4.226562 -1.453125 4.421875 -1.484375 4.609375 -1.546875 C 4.796875 -1.617188 4.957031 -1.734375 5.09375 -1.890625 C 5.226562 -2.046875 5.335938 -2.242188 5.421875 -2.484375 C 5.503906 -2.722656 5.546875 -3.007812 5.546875 -3.34375 C 5.546875 -3.664062 5.503906 -3.945312 5.421875 -4.1875 C 5.335938 -4.425781 5.226562 -4.625 5.09375 -4.78125 C 4.957031 -4.9375 4.796875 -5.046875 4.609375 -5.109375 C 4.421875 -5.179688 4.226562 -5.21875 4.03125 -5.21875 C 3.832031 -5.21875 3.640625 -5.179688 3.453125 -5.109375 C 3.265625 -5.046875 3.101562 -4.9375 2.96875 -4.78125 C 2.832031 -4.625 2.722656 -4.425781 2.640625 -4.1875 C 2.554688 -3.945312 2.515625 -3.664062 2.515625 -3.34375 C 2.515625 -3.007812 2.554688 -2.722656 2.640625 -2.484375 C 2.722656 -2.242188 2.832031 -2.046875 2.96875 -1.890625 C 3.101562 -1.734375 3.265625 -1.617188 3.453125 -1.546875 C 3.640625 -1.484375 3.832031 -1.453125 4.03125 -1.453125 Z M 4.03125 -1.453125 "/></g></g><g style="fill:#1a5da9;fill-opacity:1;"><g transform="translate(157.460903, 48.983819)"><path style="stroke:none" d="M 0.8125 -8.8125 L 2.578125 -8.8125 L 2.578125 0 L 0.8125 0 Z M 0.8125 -8.8125 "/></g></g><g style="fill:#1a5da9;fill-opacity:1;"><g transform="translate(160.860445, 48.983819)"><path style="stroke:none" d="M 3.71875 0.125 C 3.207031 0.125 2.75 0.046875 2.34375 -0.109375 C 1.945312 -0.265625 1.601562 -0.488281 1.3125 -0.78125 C 1.03125 -1.070312 0.8125 -1.429688 0.65625 -1.859375 C 0.507812 -2.285156 0.4375 -2.78125 0.4375 -3.34375 C 0.4375 -3.894531 0.507812 -4.382812 0.65625 -4.8125 C 0.8125 -5.238281 1.03125 -5.597656 1.3125 -5.890625 C 1.601562 -6.179688 1.945312 -6.40625 2.34375 -6.5625 C 2.75 -6.71875 3.207031 -6.796875 3.71875 -6.796875 C 4.207031 -6.796875 4.644531 -6.710938 5.03125 -6.546875 C 5.425781 -6.390625 5.765625 -6.160156 6.046875 -5.859375 C 6.328125 -5.566406 6.539062 -5.210938 6.6875 -4.796875 C 6.84375 -4.390625 6.921875 -3.945312 6.921875 -3.46875 C 6.921875 -3.375 6.914062 -3.285156 6.90625 -3.203125 C 6.90625 -3.117188 6.898438 -3.039062 6.890625 -2.96875 C 6.878906 -2.894531 6.867188 -2.828125 6.859375 -2.765625 L 2.265625 -2.765625 C 2.335938 -2.390625 2.484375 -2.078125 2.703125 -1.828125 C 2.929688 -1.578125 3.269531 -1.453125 3.71875 -1.453125 C 4.0625 -1.453125 4.3125 -1.503906 4.46875 -1.609375 C 4.632812 -1.722656 4.78125 -1.878906 4.90625 -2.078125 L 6.796875 -2.078125 C 6.722656 -1.796875 6.609375 -1.519531 6.453125 -1.25 C 6.296875 -0.988281 6.09375 -0.753906 5.84375 -0.546875 C 5.601562 -0.335938 5.304688 -0.171875 4.953125 -0.046875 C 4.597656 0.0664062 4.1875 0.125 3.71875 0.125 Z M 5.09375 -4.09375 C 5.0625 -4.238281 5.007812 -4.375 4.9375 -4.5 C 4.875 -4.632812 4.785156 -4.753906 4.671875 -4.859375 C 4.554688 -4.972656 4.414062 -5.0625 4.25 -5.125 C 4.09375 -5.1875 3.914062 -5.21875 3.71875 -5.21875 C 3.300781 -5.21875 2.976562 -5.109375 2.75 -4.890625 C 2.519531 -4.679688 2.359375 -4.414062 2.265625 -4.09375 Z M 5.09375 -4.09375 "/></g></g><g style="fill:#1a5da9;fill-opacity:1;"><g transform="translate(168.22612, 48.983819)"><path style="stroke:none" d="M 0.75 -6.671875 L 2.265625 -6.671875 L 2.453125 -5.921875 L 2.515625 -5.921875 C 2.710938 -6.203125 2.9375 -6.414062 3.1875 -6.5625 C 3.4375 -6.71875 3.738281 -6.796875 4.09375 -6.796875 C 4.375 -6.796875 4.617188 -6.757812 4.828125 -6.6875 C 5.035156 -6.613281 5.210938 -6.519531 5.359375 -6.40625 C 5.503906 -6.300781 5.617188 -6.1875 5.703125 -6.0625 C 5.796875 -5.9375 5.867188 -5.828125 5.921875 -5.734375 L 5.984375 -5.734375 C 6.035156 -5.828125 6.109375 -5.9375 6.203125 -6.0625 C 6.304688 -6.1875 6.441406 -6.300781 6.609375 -6.40625 C 6.773438 -6.519531 6.972656 -6.613281 7.203125 -6.6875 C 7.429688 -6.757812 7.695312 -6.796875 8 -6.796875 C 8.351562 -6.796875 8.679688 -6.734375 8.984375 -6.609375 C 9.285156 -6.492188 9.546875 -6.320312 9.765625 -6.09375 C 9.984375 -5.863281 10.148438 -5.582031 10.265625 -5.25 C 10.390625 -4.925781 10.453125 -4.5625 10.453125 -4.15625 L 10.453125 0 L 8.6875 0 L 8.6875 -3.90625 C 8.6875 -4.132812 8.65625 -4.332031 8.59375 -4.5 C 8.539062 -4.675781 8.460938 -4.816406 8.359375 -4.921875 C 8.265625 -5.023438 8.144531 -5.097656 8 -5.140625 C 7.863281 -5.191406 7.71875 -5.21875 7.5625 -5.21875 C 7.269531 -5.21875 7.015625 -5.109375 6.796875 -4.890625 C 6.585938 -4.679688 6.484375 -4.351562 6.484375 -3.90625 L 6.484375 0 L 4.71875 0 L 4.71875 -3.90625 C 4.71875 -4.132812 4.6875 -4.332031 4.625 -4.5 C 4.570312 -4.675781 4.492188 -4.816406 4.390625 -4.921875 C 4.296875 -5.023438 4.175781 -5.097656 4.03125 -5.140625 C 3.894531 -5.191406 3.75 -5.21875 3.59375 -5.21875 C 3.300781 -5.21875 3.046875 -5.097656 2.828125 -4.859375 C 2.617188 -4.628906 2.515625 -4.3125 2.515625 -3.90625 L 2.515625 0 L 0.75 0 Z M 0.75 -6.671875 "/></g></g><g style="fill:#1a5da9;fill-opacity:1;"><g transform="translate(179.369064, 48.983819)"><path style="stroke:none" d="M 3.71875 0.125 C 3.207031 0.125 2.75 0.046875 2.34375 -0.109375 C 1.945312 -0.265625 1.601562 -0.488281 1.3125 -0.78125 C 1.03125 -1.070312 0.8125 -1.429688 0.65625 -1.859375 C 0.507812 -2.285156 0.4375 -2.78125 0.4375 -3.34375 C 0.4375 -3.894531 0.507812 -4.382812 0.65625 -4.8125 C 0.8125 -5.238281 1.03125 -5.597656 1.3125 -5.890625 C 1.601562 -6.179688 1.945312 -6.40625 2.34375 -6.5625 C 2.75 -6.71875 3.207031 -6.796875 3.71875 -6.796875 C 4.207031 -6.796875 4.644531 -6.710938 5.03125 -6.546875 C 5.425781 -6.390625 5.765625 -6.160156 6.046875 -5.859375 C 6.328125 -5.566406 6.539062 -5.210938 6.6875 -4.796875 C 6.84375 -4.390625 6.921875 -3.945312 6.921875 -3.46875 C 6.921875 -3.375 6.914062 -3.285156 6.90625 -3.203125 C 6.90625 -3.117188 6.898438 -3.039062 6.890625 -2.96875 C 6.878906 -2.894531 6.867188 -2.828125 6.859375 -2.765625 L 2.265625 -2.765625 C 2.335938 -2.390625 2.484375 -2.078125 2.703125 -1.828125 C 2.929688 -1.578125 3.269531 -1.453125 3.71875 -1.453125 C 4.0625 -1.453125 4.3125 -1.503906 4.46875 -1.609375 C 4.632812 -1.722656 4.78125 -1.878906 4.90625 -2.078125 L 6.796875 -2.078125 C 6.722656 -1.796875 6.609375 -1.519531 6.453125 -1.25 C 6.296875 -0.988281 6.09375 -0.753906 5.84375 -0.546875 C 5.601562 -0.335938 5.304688 -0.171875 4.953125 -0.046875 C 4.597656 0.0664062 4.1875 0.125 3.71875 0.125 Z M 5.09375 -4.09375 C 5.0625 -4.238281 5.007812 -4.375 4.9375 -4.5 C 4.875 -4.632812 4.785156 -4.753906 4.671875 -4.859375 C 4.554688 -4.972656 4.414062 -5.0625 4.25 -5.125 C 4.09375 -5.1875 3.914062 -5.21875 3.71875 -5.21875 C 3.300781 -5.21875 2.976562 -5.109375 2.75 -4.890625 C 2.519531 -4.679688 2.359375 -4.414062 2.265625 -4.09375 Z M 5.09375 -4.09375 "/></g></g><g style="fill:#1a5da9;fill-opacity:1;"><g transform="translate(186.734739, 48.983819)"><path style="stroke:none" d="M 0.75 -6.671875 L 2.265625 -6.671875 L 2.453125 -5.921875 L 2.515625 -5.921875 C 2.734375 -6.203125 2.992188 -6.414062 3.296875 -6.5625 C 3.597656 -6.71875 3.925781 -6.796875 4.28125 -6.796875 C 4.644531 -6.796875 4.976562 -6.734375 5.28125 -6.609375 C 5.582031 -6.492188 5.835938 -6.316406 6.046875 -6.078125 C 6.265625 -5.847656 6.429688 -5.566406 6.546875 -5.234375 C 6.671875 -4.898438 6.734375 -4.519531 6.734375 -4.09375 L 6.734375 0 L 4.96875 0 L 4.96875 -3.84375 C 4.96875 -4.289062 4.863281 -4.628906 4.65625 -4.859375 C 4.445312 -5.097656 4.15625 -5.21875 3.78125 -5.21875 C 3.40625 -5.21875 3.097656 -5.085938 2.859375 -4.828125 C 2.628906 -4.578125 2.515625 -4.25 2.515625 -3.84375 L 2.515625 0 L 0.75 0 Z M 0.75 -6.671875 "/></g></g><g style="fill:#1a5da9;fill-opacity:1;"><g transform="translate(194.163369, 48.983819)"><path style="stroke:none" d="M 3.40625 0 C 2.707031 0 2.1875 -0.164062 1.84375 -0.5 C 1.5 -0.832031 1.328125 -1.316406 1.328125 -1.953125 L 1.328125 -5.03125 L 0.25 -5.03125 L 0.25 -6.671875 L 1.328125 -6.671875 L 1.578125 -8.4375 L 3.078125 -8.4375 L 3.078125 -6.671875 L 4.65625 -6.671875 L 4.65625 -5.03125 L 3.078125 -5.03125 L 3.078125 -2.265625 C 3.078125 -2.078125 3.132812 -1.925781 3.25 -1.8125 C 3.363281 -1.695312 3.519531 -1.640625 3.71875 -1.640625 L 4.65625 -1.640625 L 4.65625 0 Z M 3.40625 0 "/></g></g><g style="fill:#1a5da9;fill-opacity:1;"><g transform="translate(199.325641, 48.983819)"><path style="stroke:none" d="M 2.703125 0.125 C 2.347656 0.125 2.023438 0.0703125 1.734375 -0.03125 C 1.441406 -0.132812 1.191406 -0.28125 0.984375 -0.46875 C 0.785156 -0.65625 0.632812 -0.875 0.53125 -1.125 C 0.425781 -1.375 0.375 -1.648438 0.375 -1.953125 C 0.375 -2.253906 0.425781 -2.53125 0.53125 -2.78125 C 0.644531 -3.03125 0.8125 -3.25 1.03125 -3.4375 C 1.25 -3.625 1.515625 -3.769531 1.828125 -3.875 C 2.148438 -3.976562 2.523438 -4.03125 2.953125 -4.03125 L 4.53125 -4.03125 L 4.53125 -4.34375 C 4.53125 -4.664062 4.425781 -4.90625 4.21875 -5.0625 C 4.019531 -5.21875 3.75 -5.296875 3.40625 -5.296875 C 3.144531 -5.296875 2.925781 -5.238281 2.75 -5.125 C 2.582031 -5.019531 2.460938 -4.882812 2.390625 -4.71875 L 0.625 -4.71875 C 0.6875 -4.988281 0.789062 -5.25 0.9375 -5.5 C 1.082031 -5.75 1.269531 -5.96875 1.5 -6.15625 C 1.726562 -6.351562 2.003906 -6.507812 2.328125 -6.625 C 2.660156 -6.738281 3.039062 -6.796875 3.46875 -6.796875 C 4.351562 -6.796875 5.046875 -6.582031 5.546875 -6.15625 C 6.046875 -5.726562 6.296875 -5.101562 6.296875 -4.28125 L 6.296875 0 L 4.78125 0 L 4.59375 -0.75 L 4.53125 -0.75 C 4.46875 -0.65625 4.382812 -0.554688 4.28125 -0.453125 C 4.175781 -0.347656 4.046875 -0.25 3.890625 -0.15625 C 3.742188 -0.0703125 3.570312 -0.00390625 3.375 0.046875 C 3.175781 0.0976562 2.953125 0.125 2.703125 0.125 Z M 3.140625 -1.328125 C 3.554688 -1.328125 3.890625 -1.441406 4.140625 -1.671875 C 4.398438 -1.898438 4.53125 -2.203125 4.53125 -2.578125 L 4.53125 -2.765625 L 3.015625 -2.765625 C 2.703125 -2.765625 2.476562 -2.695312 2.34375 -2.5625 C 2.207031 -2.4375 2.140625 -2.273438 2.140625 -2.078125 C 2.140625 -1.859375 2.21875 -1.675781 2.375 -1.53125 C 2.539062 -1.394531 2.796875 -1.328125 3.140625 -1.328125 Z M 3.140625 -1.328125 "/></g></g><g style="fill:#1a5da9;fill-opacity:1;"><g transform="translate(206.313588, 48.983819)"><path style="stroke:none" d="M 0.75 -6.671875 L 2.265625 -6.671875 L 2.453125 -5.921875 L 2.515625 -5.921875 C 2.710938 -6.203125 2.941406 -6.394531 3.203125 -6.5 C 3.472656 -6.613281 3.769531 -6.671875 4.09375 -6.671875 L 4.90625 -6.671875 L 4.90625 -4.96875 L 4.21875 -4.96875 C 3.675781 -4.96875 3.253906 -4.820312 2.953125 -4.53125 C 2.660156 -4.238281 2.515625 -3.84375 2.515625 -3.34375 L 2.515625 0 L 0.75 0 Z M 0.75 -6.671875 "/></g></g></g></svg>