<svg xmlns="http://www.w3.org/2000/svg" xmlns:xlink="http://www.w3.org/1999/xlink" width="600" zoomAndPan="magnify" viewBox="0 0 450 449.999984" height="600" preserveAspectRatio="xMidYMid meet" version="1.0"><path fill="#000000" d="M 420.125 353.605469 C 424.792969 348 427.59375 340.523438 427.59375 332.113281 C 427.59375 313.429688 412.65625 298.480469 393.984375 298.480469 C 375.3125 298.480469 360.375 313.429688 360.375 332.113281 C 360.375 340.523438 363.175781 347.0625 367.84375 353.605469 C 359.441406 358.277344 352.90625 363.882812 347.304688 371.355469 C 342.636719 363.882812 335.164062 357.339844 326.761719 353.605469 C 331.429688 348 334.230469 340.523438 334.230469 332.113281 C 334.230469 313.429688 319.292969 298.480469 300.621094 298.480469 C 281.949219 298.480469 267.011719 313.429688 267.011719 332.113281 C 267.011719 340.523438 269.8125 347.0625 274.480469 353.605469 C 266.078125 358.277344 259.542969 363.882812 253.941406 371.355469 C 249.273438 363.882812 241.804688 357.339844 233.402344 353.605469 C 238.070312 348 240.871094 340.523438 240.871094 332.113281 C 240.871094 313.429688 225.933594 298.480469 207.261719 298.480469 C 188.589844 298.480469 173.652344 313.429688 173.652344 332.113281 C 173.652344 340.523438 176.453125 347.0625 181.121094 353.605469 C 163.382812 362.945312 151.246094 381.632812 151.246094 402.1875 C 151.246094 407.792969 154.980469 411.53125 160.582031 411.53125 L 435.0625 411.53125 C 440.664062 411.53125 444.398438 407.792969 444.398438 402.1875 C 450 381.632812 437.863281 362.945312 420.125 353.605469 Z M 211.929688 318.101562 C 220.332031 318.101562 226.867188 324.640625 226.867188 333.050781 C 226.867188 341.457031 220.332031 348 211.929688 348 C 203.527344 348 196.992188 341.457031 196.992188 333.050781 C 196.992188 324.640625 203.527344 318.101562 211.929688 318.101562 Z M 176.453125 392.84375 C 180.1875 376.960938 195.125 365.75 211.929688 365.75 C 228.734375 365.75 242.738281 376.960938 247.40625 392.84375 Z M 303.421875 318.101562 C 311.824219 318.101562 318.359375 324.640625 318.359375 333.050781 C 318.359375 341.457031 311.824219 348 303.421875 348 C 295.019531 348 288.484375 341.457031 288.484375 333.050781 C 288.484375 324.640625 295.019531 318.101562 303.421875 318.101562 Z M 267.945312 392.84375 C 271.679688 376.960938 286.617188 365.75 303.421875 365.75 C 320.226562 365.75 334.230469 376.960938 338.898438 392.84375 Z M 394.917969 318.101562 C 403.320312 318.101562 409.855469 324.640625 409.855469 333.050781 C 409.855469 341.457031 403.320312 348 394.917969 348 C 386.515625 348 379.980469 341.457031 379.980469 333.050781 C 379.980469 324.640625 386.515625 318.101562 394.917969 318.101562 Z M 359.441406 392.84375 C 363.175781 376.960938 378.113281 365.75 394.917969 365.75 C 411.722656 365.75 425.726562 376.960938 430.394531 392.84375 Z M 359.441406 392.84375 " fill-opacity="1" fill-rule="nonzero"/><path fill="#000000" d="M 161.515625 344.261719 C 161.515625 343.328125 161.515625 343.328125 161.515625 342.390625 L 161.515625 239.617188 L 437.863281 239.617188 C 443.464844 239.617188 447.199219 235.882812 447.199219 230.273438 L 447.199219 60.230469 C 447.199219 54.625 443.464844 50.886719 437.863281 50.886719 L 157.78125 50.886719 C 152.179688 50.886719 148.445312 54.625 148.445312 60.230469 L 148.445312 144.320312 C 142.84375 136.84375 135.375 130.304688 126.972656 125.632812 C 138.175781 116.289062 144.710938 103.207031 144.710938 88.261719 C 144.710938 61.164062 122.304688 38.742188 95.226562 38.742188 C 68.152344 38.742188 45.746094 61.164062 45.746094 88.261719 C 45.746094 104.144531 53.214844 117.222656 64.417969 126.566406 C 50.414062 134.042969 39.210938 147.121094 33.609375 163.003906 C 25.207031 169.542969 0 191.96875 0 222.800781 L 0 273.253906 C 0 274.1875 0 275.121094 0.933594 276.054688 C 1.867188 277.925781 6.535156 291.003906 18.671875 294.742188 C 20.539062 295.675781 24.273438 296.609375 27.074219 296.609375 C 28.007812 296.609375 28.941406 296.609375 29.875 296.609375 L 29.875 342.390625 C 29.875 343.328125 29.875 343.328125 29.875 344.261719 C 29.875 345.195312 29.875 345.195312 29.875 346.128906 C 29.875 362.011719 42.945312 375.09375 58.816406 375.09375 C 74.6875 375.09375 86.824219 362.945312 87.757812 348 L 95.226562 308.757812 L 103.628906 347.0625 C 104.5625 362.011719 116.703125 374.160156 132.574219 374.160156 C 148.445312 374.160156 161.515625 361.078125 161.515625 345.195312 C 161.515625 345.195312 161.515625 344.261719 161.515625 344.261719 Z M 30.808594 276.992188 C 28.941406 277.925781 27.074219 277.925781 26.140625 276.992188 C 23.339844 276.054688 20.539062 272.320312 19.605469 270.449219 L 19.605469 221.867188 C 19.605469 210.65625 25.207031 200.378906 30.808594 192.902344 Z M 167.117188 69.574219 L 428.527344 69.574219 L 428.527344 219.996094 L 161.515625 219.996094 L 161.515625 214.390625 L 213.796875 156.464844 C 215.664062 154.597656 215.664062 152.726562 216.597656 150.859375 C 217.53125 137.777344 213.796875 128.433594 207.261719 121.894531 C 196.058594 112.550781 181.121094 115.355469 180.1875 115.355469 C 178.320312 115.355469 176.453125 117.222656 174.585938 118.15625 L 168.050781 126.566406 L 168.050781 69.574219 Z M 96.160156 58.363281 C 112.96875 58.363281 126.972656 72.375 126.972656 89.195312 C 126.972656 106.011719 112.96875 120.027344 96.160156 120.027344 C 79.355469 120.027344 65.351562 106.011719 65.351562 89.195312 C 65.351562 72.375 79.355469 58.363281 96.160156 58.363281 Z M 145.644531 205.046875 C 145.644531 205.046875 145.644531 205.984375 144.710938 205.984375 C 144.710938 206.917969 143.777344 206.917969 143.777344 207.851562 C 143.777344 208.785156 143.777344 208.785156 143.777344 209.71875 C 143.777344 209.71875 143.777344 210.65625 143.777344 210.65625 L 143.777344 341.457031 C 143.777344 342.390625 143.777344 342.390625 143.777344 343.328125 C 143.777344 344.261719 143.777344 344.261719 143.777344 345.195312 C 143.777344 350.800781 139.109375 355.472656 133.507812 355.472656 C 127.90625 355.472656 122.304688 351.734375 122.304688 345.195312 C 122.304688 345.195312 122.304688 344.261719 122.304688 344.261719 C 122.304688 344.261719 122.304688 343.328125 122.304688 343.328125 L 105.496094 256.4375 C 104.5625 251.765625 100.828125 248.960938 96.160156 248.960938 C 91.492188 248.960938 87.757812 251.765625 86.824219 256.4375 L 70.019531 343.328125 C 70.019531 343.328125 70.019531 344.261719 70.019531 344.261719 C 70.019531 344.261719 70.019531 345.195312 70.019531 345.195312 C 70.019531 350.800781 65.351562 355.472656 59.75 355.472656 C 54.148438 355.472656 49.480469 350.800781 49.480469 345.195312 C 49.480469 344.261719 49.480469 344.261719 49.480469 343.328125 C 49.480469 342.390625 49.480469 342.390625 49.480469 341.457031 L 49.480469 184.492188 C 49.480469 178.886719 50.414062 174.214844 52.28125 168.609375 C 58.816406 149.925781 76.554688 136.84375 96.160156 136.84375 C 115.769531 136.84375 132.574219 148.054688 139.109375 165.808594 C 139.109375 166.742188 140.042969 166.742188 140.042969 167.675781 C 140.042969 168.609375 140.976562 168.609375 140.976562 169.542969 C 140.976562 169.542969 141.910156 169.542969 141.910156 170.480469 C 142.84375 170.480469 142.84375 171.414062 143.777344 171.414062 C 144.710938 171.414062 144.710938 171.414062 145.644531 171.414062 C 146.578125 171.414062 146.578125 171.414062 147.511719 171.414062 C 148.445312 171.414062 148.445312 171.414062 149.378906 171.414062 C 149.378906 171.414062 150.3125 171.414062 150.3125 171.414062 C 151.246094 171.414062 151.246094 170.480469 152.179688 170.480469 C 153.113281 170.480469 153.113281 169.542969 154.046875 169.542969 L 184.855469 134.042969 C 187.65625 134.042969 191.390625 134.042969 193.257812 136.84375 C 196.058594 138.710938 196.992188 143.382812 196.992188 147.121094 Z M 145.644531 205.046875 " fill-opacity="1" fill-rule="nonzero"/><path fill="#000000" d="M 272.613281 111.617188 L 363.175781 111.617188 C 368.777344 111.617188 372.511719 107.878906 372.511719 102.273438 C 372.511719 96.667969 368.777344 92.929688 363.175781 92.929688 L 272.613281 92.929688 C 267.011719 92.929688 263.277344 96.667969 263.277344 102.273438 C 263.277344 107.878906 267.945312 111.617188 272.613281 111.617188 Z M 272.613281 111.617188 " fill-opacity="1" fill-rule="nonzero"/><path fill="#000000" d="M 272.613281 153.660156 L 363.175781 153.660156 C 368.777344 153.660156 372.511719 149.925781 372.511719 144.320312 C 372.511719 138.710938 368.777344 134.976562 363.175781 134.976562 L 272.613281 134.976562 C 267.011719 134.976562 263.277344 138.710938 263.277344 144.320312 C 263.277344 149.925781 267.945312 153.660156 272.613281 153.660156 Z M 272.613281 153.660156 " fill-opacity="1" fill-rule="nonzero"/><path fill="#000000" d="M 272.613281 195.707031 L 363.175781 195.707031 C 368.777344 195.707031 372.511719 191.96875 372.511719 186.363281 C 372.511719 180.757812 368.777344 177.019531 363.175781 177.019531 L 272.613281 177.019531 C 267.011719 177.019531 263.277344 180.757812 263.277344 186.363281 C 263.277344 191.96875 267.945312 195.707031 272.613281 195.707031 Z M 272.613281 195.707031 " fill-opacity="1" fill-rule="nonzero"/></svg>