<svg xmlns="http://www.w3.org/2000/svg" xmlns:xlink="http://www.w3.org/1999/xlink" width="600" zoomAndPan="magnify" viewBox="0 0 450 449.999984" height="600" preserveAspectRatio="xMidYMid meet" version="1.0"><path fill="#000000" d="M 205.03125 449.550781 L 2.347656 377.765625 C 0.941406 377.273438 0.015625 375.945312 0.015625 374.460938 L 0.015625 214.25 C 0.015625 213.15625 0.527344 212.09375 1.445312 211.425781 C 1.464844 211.402344 1.488281 211.390625 1.511719 211.371094 L 23.808594 195.871094 C 24.703125 195.246094 25.832031 195.078125 26.867188 195.402344 L 55.867188 204.546875 C 67.140625 156.085938 89.460938 129.710938 112.449219 116.492188 C 112.449219 116.492188 112.449219 114.960938 112.449219 114.960938 C 112.460938 113.867188 112.964844 112.816406 113.867188 112.148438 C 113.902344 112.125 113.933594 112.101562 113.957031 112.082031 L 135.171875 97.332031 C 136.042969 96.714844 137.160156 96.539062 138.1875 96.851562 L 169.007812 106.105469 C 172.804688 60.234375 198.015625 34.632812 215.019531 23.636719 C 217.21875 22.214844 219.566406 20.839844 222.023438 19.542969 C 222.023438 19.542969 222.023438 17.898438 222.023438 17.894531 C 222.023438 16.816406 222.527344 15.777344 223.410156 15.101562 C 223.453125 15.070312 223.488281 15.042969 223.53125 15.011719 L 243.929688 0.820312 C 244.789062 0.226562 245.863281 0.0429688 246.867188 0.316406 L 283.308594 10.277344 C 288.367188 11.226562 293.550781 12.617188 298.800781 14.511719 L 363.402344 32.164062 C 374.292969 33.246094 386.324219 36.257812 399.371094 41.996094 L 432.382812 51.015625 C 433.175781 51.234375 433.867188 51.71875 434.335938 52.398438 C 434.75 52.992188 434.972656 53.6875 434.972656 54.40625 L 434.972656 208.21875 C 434.972656 209.371094 434.40625 210.441406 433.464844 211.101562 L 413.078125 225.269531 C 413.066406 225.28125 413.066406 225.28125 413.054688 225.292969 C 412.105469 225.953125 410.921875 226.085938 409.882812 225.71875 L 333.496094 198.664062 L 333.496094 317.992188 C 333.496094 319.144531 332.929688 320.226562 331.988281 320.875 L 310.796875 335.613281 C 310.796875 335.613281 310.789062 335.625 310.777344 335.625 C 309.835938 336.285156 308.652344 336.429688 307.605469 336.050781 L 232.023438 309.285156 L 232.023438 430.738281 C 232.023438 431.886719 231.453125 432.960938 230.515625 433.617188 L 208.238281 449.105469 C 208.226562 449.117188 208.226562 449.117188 208.21875 449.128906 C 207.265625 449.785156 206.082031 449.921875 205.03125 449.550781 Z M 11.398438 213.054688 L 51.871094 225.816406 C 52.59375 220.839844 53.433594 216.046875 54.371094 211.4375 L 26.398438 202.613281 Z M 53.65625 233.757812 L 7.039062 219.050781 L 7.039062 371.96875 L 202.699219 441.265625 L 202.699219 280.765625 C 202.699219 280.765625 157.871094 266.628906 157.847656 266.617188 L 53.769531 233.789062 C 53.722656 233.78125 53.691406 233.769531 53.65625 233.757812 Z M 167.175781 262.195312 L 205.625 274.324219 L 220.628906 263.882812 L 183.09375 252.046875 Z M 209.722656 280.03125 L 209.722656 439.515625 C 215.878906 435.238281 224.996094 428.90625 224.996094 428.90625 C 224.996094 428.90625 224.996094 352.789062 224.996094 304.382812 C 224.996094 292.421875 224.996094 282.160156 224.996094 275.148438 C 224.984375 275.105469 224.984375 275.050781 224.996094 275.003906 C 224.996094 272.792969 224.996094 270.917969 224.996094 269.410156 Z M 131.753906 108.261719 C 135.71875 107.113281 139.617188 106.285156 143.382812 105.75 L 137.785156 104.0625 Z M 171.207031 114.113281 C 143.167969 105.683594 74.523438 116.972656 58.660156 227.960938 L 155.511719 258.511719 C 156.820312 206.132812 169.910156 173.660156 186.925781 154.488281 C 199.167969 140.675781 213.488281 133.609375 227.261719 130.953125 Z M 227.0625 24.855469 C 224.136719 26.3125 221.386719 27.886719 218.839844 29.535156 C 202.765625 39.929688 179.027344 64.386719 175.898438 108.183594 L 249.191406 130.203125 C 255.289062 130.953125 260.910156 132.457031 265.722656 134.445312 C 272.683594 80.316406 288.960938 63.054688 303.570312 49.570312 C 310.875 42.839844 323.097656 35.695312 339.472656 32.90625 C 339.472656 32.90625 296.8125 21.246094 296.789062 21.242188 L 281.789062 17.144531 C 260.699219 13.246094 241.71875 17.574219 227.152344 24.8125 C 227.117188 24.828125 227.085938 24.84375 227.0625 24.855469 Z M 253.660156 9.453125 L 246.601562 7.527344 L 239.519531 12.453125 C 243.996094 11.136719 248.722656 10.105469 253.660156 9.453125 Z M 391.039062 46.148438 C 350.34375 30.390625 321.121094 42.949219 308.339844 54.734375 C 294.054688 67.917969 278.378906 85.03125 272.113281 140.097656 C 271.980469 141.257812 271.289062 142.273438 270.25 142.820312 C 269.210938 143.355469 267.980469 143.347656 266.953125 142.796875 C 261.9375 140.085938 255.503906 138.019531 248.308594 137.136719 C 248.085938 137.125 247.875 137.105469 247.648438 137.058594 C 230.492188 135.148438 209.132812 140.03125 192.175781 159.144531 C 176.121094 177.246094 164.09375 207.828125 162.582031 256.78125 L 179.117188 246.253906 C 179.285156 241.003906 179.941406 234.886719 181.128906 228.332031 C 181.148438 228.140625 181.183594 227.941406 181.238281 227.75 C 184.289062 211.214844 190.644531 191.996094 200.777344 176.976562 C 208.417969 165.632812 218.214844 156.679688 230.210938 152.714844 C 241.820312 148.882812 255.558594 149.632812 271.566406 157.707031 C 271.566406 157.707031 290.34375 145.390625 290.34375 145.390625 C 290.421875 139.148438 291.273438 131.164062 293.027344 122.5 C 293.046875 122.285156 293.09375 122.074219 293.160156 121.863281 C 295.996094 108.117188 301.078125 92.71875 308.988281 79.859375 C 317.402344 66.15625 328.996094 55.347656 344.199219 51.929688 C 353.875 49.757812 365.054688 50.550781 377.878906 55.664062 Z M 423.277344 55.8125 L 398.878906 49.144531 L 386.359375 58.203125 L 410.398438 64.773438 Z M 414.566406 215.679688 C 420.140625 211.804688 427.9375 206.378906 427.9375 206.378906 L 427.9375 61.128906 L 414.566406 70.429688 Z M 333.496094 191.214844 L 407.539062 217.433594 C 407.539062 193.371094 407.539062 89.34375 407.539062 71.277344 C 407.539062 71.277344 377.410156 63.042969 377.398438 63.039062 L 359.179688 58.058594 C 354.375 57.570312 349.894531 57.851562 345.742188 58.785156 C 332.390625 61.785156 322.371094 71.496094 314.976562 83.539062 C 308.015625 94.863281 303.371094 108.261719 300.597656 120.535156 L 375.210938 145.546875 C 377.050781 146.160156 378.046875 148.160156 377.433594 150 C 376.808594 151.832031 374.820312 152.824219 372.976562 152.210938 L 299.203125 127.480469 C 298.085938 133.910156 297.496094 139.816406 297.382812 144.675781 L 330.996094 154.78125 C 331.742188 155.003906 332.402344 155.472656 332.859375 156.128906 C 333.273438 156.722656 333.496094 157.425781 333.496094 158.140625 L 333.496094 163.265625 L 375.210938 177.257812 C 377.050781 177.871094 378.046875 179.859375 377.433594 181.699219 C 376.808594 183.542969 374.820312 184.527344 372.976562 183.910156 L 333.496094 170.679688 Z M 312.285156 326.023438 L 326.460938 316.164062 L 326.460938 193.761719 C 326.460938 193.714844 326.460938 193.671875 326.460938 193.625 L 326.460938 165.867188 C 326.460938 165.824219 326.460938 165.765625 326.460938 165.722656 L 326.460938 164.863281 L 312.285156 174.722656 Z M 232.023438 301.835938 L 305.257812 327.773438 L 305.257812 175.492188 C 305.257812 175.492188 270.761719 165.128906 270.738281 165.128906 L 245.484375 157.539062 C 240.824219 157.394531 236.480469 158.050781 232.425781 159.390625 C 221.84375 162.875 213.34375 170.914062 206.609375 180.898438 C 197.546875 194.320312 191.695312 211.292969 188.644531 226.308594 L 272.347656 254.371094 C 274.191406 254.984375 275.1875 256.972656 274.558594 258.8125 C 273.945312 260.644531 271.957031 261.640625 270.113281 261.023438 L 187.40625 233.300781 C 186.722656 237.742188 186.320312 241.917969 186.164062 245.648438 L 229.5625 259.339844 C 230.300781 259.574219 230.9375 260.042969 231.386719 260.679688 C 231.796875 261.269531 232.023438 261.972656 232.023438 262.6875 L 232.023438 272.546875 L 272.347656 286.070312 C 274.191406 286.683594 275.1875 288.683594 274.558594 290.515625 C 273.945312 292.355469 271.957031 293.351562 270.113281 292.734375 L 232.023438 279.960938 Z M 280 160.574219 L 308.164062 169.039062 L 322.003906 159.414062 L 294.410156 151.117188 Z M 180.121094 315.527344 L 183.886719 316.664062 C 185.742188 317.222656 186.800781 319.1875 186.230469 321.042969 C 185.675781 322.894531 183.707031 323.945312 181.855469 323.386719 L 167.355469 319 C 165.5 318.441406 164.449219 316.484375 165.007812 314.621094 C 165.566406 312.769531 167.53125 311.71875 169.386719 312.277344 L 173.09375 313.40625 L 173.09375 296.265625 C 171.777344 296.789062 170.4375 297.226562 169.410156 297.347656 C 167.476562 297.558594 165.746094 296.164062 165.523438 294.242188 C 165.308594 292.3125 166.707031 290.582031 168.625 290.367188 C 170.617188 290.144531 174.132812 288.078125 174.75 287.710938 C 174.78125 287.6875 174.816406 287.667969 174.847656 287.65625 C 175.386719 287.34375 175.988281 287.175781 176.613281 287.175781 C 177.863281 287.175781 179.015625 287.84375 179.652344 288.929688 C 179.964844 289.464844 180.121094 290.066406 180.121094 290.691406 Z M 33.394531 263.300781 C 31.550781 262.675781 30.566406 260.679688 31.191406 258.847656 C 31.816406 257.003906 33.816406 256.035156 35.648438 256.648438 L 96.6875 277.417969 C 98.519531 278.042969 99.5 280.03125 98.875 281.871094 C 98.25 283.703125 96.25 284.683594 94.417969 284.058594 Z M 33.402344 328.324219 C 31.5625 327.707031 30.578125 325.71875 31.191406 323.878906 C 31.804688 322.035156 33.796875 321.054688 35.636719 321.667969 L 169.488281 366.53125 C 171.332031 367.148438 172.3125 369.144531 171.699219 370.976562 C 171.085938 372.820312 169.097656 373.8125 167.253906 373.1875 Z M 33.402344 360.035156 C 31.5625 359.410156 30.578125 357.421875 31.191406 355.578125 C 31.804688 353.746094 33.796875 352.753906 35.636719 353.367188 L 169.488281 398.234375 C 171.332031 398.859375 172.3125 400.847656 171.699219 402.6875 C 171.085938 404.519531 169.097656 405.511719 167.253906 404.898438 Z M 94.128906 212.476562 C 94.386719 197.734375 101.097656 181.164062 107.613281 171.363281 L 100.09375 168.4375 C 98.867188 167.945312 98.003906 166.816406 97.882812 165.511719 C 97.75 164.191406 98.363281 162.917969 99.46875 162.207031 C 128.410156 143.601562 153.246094 140.710938 153.246094 140.710938 C 154.382812 140.578125 155.523438 141.011719 156.292969 141.871094 C 157.054688 142.742188 157.34375 143.925781 157.066406 145.042969 C 154.214844 156.421875 150.53125 184 150.53125 184 C 150.386719 185.0625 149.78125 186 148.867188 186.546875 C 147.949219 187.09375 146.832031 187.195312 145.839844 186.835938 C 145.839844 186.835938 137.089844 183.609375 137.082031 183.609375 C 125.453125 196.753906 123.832031 220.269531 123.832031 220.269531 C 123.753906 221.339844 123.183594 222.324219 122.289062 222.925781 C 121.386719 223.519531 120.257812 223.675781 119.230469 223.339844 L 96.542969 215.871094 C 95.078125 215.390625 94.09375 214.015625 94.128906 212.476562 Z M 101.265625 210.03125 C 101.265625 210.03125 117.375 215.332031 117.375 215.332031 C 118.648438 206.769531 122.636719 187.808594 133.671875 177.011719 C 134.644531 176.050781 136.074219 175.75 137.347656 176.21875 C 137.347656 176.21875 144.164062 178.730469 144.164062 178.730469 C 145.144531 171.808594 147.167969 158.085938 149.089844 148.59375 C 141.628906 150.214844 126.570312 154.410156 109.253906 164.460938 L 114.425781 166.480469 C 115.476562 166.894531 116.269531 167.777344 116.546875 168.871094 C 116.839844 169.964844 116.582031 171.125 115.855469 171.996094 C 109.679688 179.457031 102.292969 195.425781 101.265625 210.03125 Z M 395.5625 95.878906 C 395.695312 96.011719 395.832031 96.148438 395.953125 96.292969 C 398.390625 98.972656 399.964844 103.058594 399.046875 107.191406 C 398.457031 109.871094 396.847656 112.640625 393.53125 114.972656 C 391.027344 116.75 387.105469 117.304688 383.386719 116.257812 C 377.96875 114.738281 373.066406 110.117188 374.046875 102.390625 C 374.292969 100.457031 376.046875 99.09375 377.980469 99.339844 C 379.902344 99.585938 381.265625 101.339844 381.019531 103.269531 C 380.582031 106.753906 382.839844 108.808594 385.285156 109.5 C 386.816406 109.925781 388.445312 109.96875 389.476562 109.246094 C 391.027344 108.140625 391.910156 106.933594 392.191406 105.671875 C 392.582031 103.894531 391.796875 102.164062 390.75 101.003906 C 390.257812 100.46875 389.765625 99.933594 389.230469 99.933594 C 387.910156 99.933594 386.703125 99.195312 386.101562 98.023438 C 385.84375 97.519531 385.710938 96.972656 385.710938 96.414062 C 385.710938 95.097656 386.449219 93.890625 387.632812 93.289062 C 391.195312 91.460938 392.246094 88.074219 391.542969 85.292969 C 391.128906 83.675781 390.15625 82.234375 388.683594 81.699219 C 385.175781 80.429688 382.347656 82.507812 382.425781 85.242188 C 382.492188 87.179688 380.972656 88.800781 379.03125 88.863281 C 377.097656 88.925781 375.464844 87.402344 375.410156 85.464844 C 375.265625 81.082031 377.769531 77.035156 381.800781 75.226562 C 384.347656 74.089844 387.53125 73.8125 391.074219 75.09375 C 393.820312 76.085938 396.019531 78.1875 397.363281 80.878906 C 399.5625 85.308594 399.417969 91.367188 395.5625 95.878906 Z M 281.242188 207.183594 L 293.628906 211 C 295.484375 211.570312 296.523438 213.535156 295.953125 215.390625 C 295.382812 217.242188 293.417969 218.28125 291.5625 217.710938 L 274.414062 212.429688 C 272.816406 211.9375 271.789062 210.398438 271.957031 208.734375 C 271.957031 208.734375 271.867188 202.996094 284.972656 196.285156 C 288.546875 194.453125 289.597656 191.070312 288.890625 188.277344 C 288.480469 186.671875 287.507812 185.21875 286.03125 184.683594 C 282.527344 183.421875 279.699219 185.496094 279.777344 188.234375 C 279.84375 190.164062 278.3125 191.796875 276.382812 191.851562 C 274.4375 191.917969 272.816406 190.386719 272.761719 188.457031 C 272.617188 184.066406 275.109375 180.027344 279.152344 178.21875 C 281.699219 177.078125 284.882812 176.800781 288.421875 178.082031 C 291.160156 179.078125 293.371094 181.175781 294.703125 183.867188 C 297.59375 189.683594 296.457031 198.292969 288.175781 202.535156 C 284.925781 204.199219 282.703125 205.863281 281.242188 207.183594 Z M 208.585938 101.292969 C 208.84375 88.71875 215.242188 74.621094 221.644531 65.9375 L 214.707031 63.589844 C 213.390625 63.144531 212.460938 61.964844 212.339844 60.582031 C 212.203125 59.199219 212.910156 57.871094 214.125 57.195312 C 242.992188 41.101562 267.757812 38.585938 267.757812 38.585938 C 268.917969 38.464844 270.058594 38.929688 270.808594 39.828125 C 271.554688 40.722656 271.8125 41.929688 271.488281 43.050781 C 268.664062 52.886719 264.988281 76.742188 264.988281 76.742188 C 264.820312 77.753906 264.226562 78.652344 263.355469 79.191406 C 262.484375 79.730469 261.410156 79.863281 260.441406 79.550781 C 260.441406 79.550781 251.449219 76.679688 251.449219 76.679688 C 239.90625 87.914062 238.289062 108.140625 238.289062 108.140625 C 238.199219 109.175781 237.652344 110.136719 236.792969 110.730469 C 235.921875 111.320312 234.835938 111.5 233.832031 111.210938 L 211.132812 104.734375 C 209.601562 104.296875 208.550781 102.878906 208.585938 101.292969 Z M 215.769531 98.761719 C 215.769531 98.761719 231.886719 103.359375 231.886719 103.359375 C 233.238281 95.710938 237.292969 79.394531 248.320312 70.039062 C 249.246094 69.253906 250.507812 69.003906 251.660156 69.371094 C 251.660156 69.371094 258.6875 71.613281 258.6875 71.613281 C 259.660156 65.683594 261.570312 54.46875 263.410156 46.375 C 256.082031 47.753906 241.539062 51.277344 224.726562 59.5625 L 228.738281 60.921875 C 229.875 61.308594 230.738281 62.246094 231.015625 63.410156 C 231.308594 64.574219 230.984375 65.804688 230.15625 66.671875 C 224.136719 72.980469 216.929688 86.382812 215.769531 98.761719 Z M 215.769531 98.761719 " fill-opacity="1" fill-rule="evenodd"/></svg>