<svg xmlns="http://www.w3.org/2000/svg" xmlns:xlink="http://www.w3.org/1999/xlink" width="600" zoomAndPan="magnify" viewBox="0 0 450 449.999984" height="600" preserveAspectRatio="xMidYMid meet" version="1.0"><defs><clipPath id="83f6b45836"><path d="M 46.574219 361 L 403.574219 361 L 403.574219 376 L 46.574219 376 Z M 46.574219 361 " clip-rule="nonzero"/></clipPath></defs><path fill="#545454" d="M 206.933594 78.097656 L 57.363281 130.539062 L 57.363281 143.765625 L 392.636719 143.765625 L 392.636719 130.539062 L 243.0625 78.097656 C 231.386719 74.007812 218.609375 74.007812 206.933594 78.097656 " fill-opacity="1" fill-rule="nonzero"/><path fill="#545454" d="M 382.816406 161.777344 L 67.179688 161.777344 L 67.179688 147.585938 L 382.816406 147.585938 L 382.816406 161.777344 " fill-opacity="1" fill-rule="nonzero"/><path fill="#545454" d="M 122.140625 174.714844 L 67.113281 174.714844 L 67.113281 165.976562 L 122.140625 165.976562 L 122.140625 174.714844 " fill-opacity="1" fill-rule="nonzero"/><path fill="#545454" d="M 115.730469 184.152344 L 73.523438 184.152344 L 73.523438 176.386719 L 115.730469 176.386719 L 115.730469 184.152344 " fill-opacity="1" fill-rule="nonzero"/><path fill="#545454" d="M 111.464844 193.636719 L 77.785156 193.636719 L 77.785156 185.871094 L 111.464844 185.871094 L 111.464844 193.636719 " fill-opacity="1" fill-rule="nonzero"/><path fill="#545454" d="M 67.113281 330.296875 L 122.140625 330.296875 L 122.140625 339.027344 L 67.113281 339.027344 L 67.113281 330.296875 " fill-opacity="1" fill-rule="nonzero"/><path fill="#545454" d="M 73.523438 320.855469 L 115.730469 320.855469 L 115.730469 328.617188 L 73.523438 328.617188 L 73.523438 320.855469 " fill-opacity="1" fill-rule="nonzero"/><path fill="#545454" d="M 77.785156 311.375 L 111.464844 311.375 L 111.464844 319.140625 L 77.785156 319.140625 L 77.785156 311.375 " fill-opacity="1" fill-rule="nonzero"/><path fill="#545454" d="M 111.460938 309.152344 L 77.792969 309.152344 L 77.792969 195.773438 L 111.460938 195.773438 L 111.460938 309.152344 " fill-opacity="1" fill-rule="nonzero"/><path fill="#545454" d="M 208.691406 174.671875 L 153.664062 174.671875 L 153.664062 165.933594 L 208.691406 165.933594 L 208.691406 174.671875 " fill-opacity="1" fill-rule="nonzero"/><path fill="#545454" d="M 202.28125 184.109375 L 160.070312 184.109375 L 160.070312 176.34375 L 202.28125 176.34375 L 202.28125 184.109375 " fill-opacity="1" fill-rule="nonzero"/><path fill="#545454" d="M 198.015625 193.589844 L 164.335938 193.589844 L 164.335938 185.824219 L 198.015625 185.824219 L 198.015625 193.589844 " fill-opacity="1" fill-rule="nonzero"/><path fill="#545454" d="M 153.664062 330.253906 L 208.691406 330.253906 L 208.691406 338.984375 L 153.664062 338.984375 L 153.664062 330.253906 " fill-opacity="1" fill-rule="nonzero"/><path fill="#545454" d="M 160.070312 320.8125 L 202.28125 320.8125 L 202.28125 328.578125 L 160.070312 328.578125 L 160.070312 320.8125 " fill-opacity="1" fill-rule="nonzero"/><path fill="#545454" d="M 164.335938 311.332031 L 198.015625 311.332031 L 198.015625 319.097656 L 164.335938 319.097656 L 164.335938 311.332031 " fill-opacity="1" fill-rule="nonzero"/><path fill="#545454" d="M 198.011719 309.105469 L 164.34375 309.105469 L 164.34375 195.730469 L 198.011719 195.730469 L 198.011719 309.105469 " fill-opacity="1" fill-rule="nonzero"/><path fill="#545454" d="M 295.242188 174.625 L 240.214844 174.625 L 240.214844 165.890625 L 295.242188 165.890625 L 295.242188 174.625 " fill-opacity="1" fill-rule="nonzero"/><path fill="#545454" d="M 288.832031 184.066406 L 246.621094 184.066406 L 246.621094 176.304688 L 288.832031 176.304688 L 288.832031 184.066406 " fill-opacity="1" fill-rule="nonzero"/><path fill="#545454" d="M 284.566406 193.546875 L 250.886719 193.546875 L 250.886719 185.78125 L 284.566406 185.78125 L 284.566406 193.546875 " fill-opacity="1" fill-rule="nonzero"/><path fill="#545454" d="M 240.214844 330.210938 L 295.242188 330.210938 L 295.242188 338.945312 L 240.214844 338.945312 L 240.214844 330.210938 " fill-opacity="1" fill-rule="nonzero"/><path fill="#545454" d="M 246.621094 320.769531 L 288.832031 320.769531 L 288.832031 328.535156 L 246.621094 328.535156 L 246.621094 320.769531 " fill-opacity="1" fill-rule="nonzero"/><path fill="#545454" d="M 250.886719 311.292969 L 284.566406 311.292969 L 284.566406 319.050781 L 250.886719 319.050781 L 250.886719 311.292969 " fill-opacity="1" fill-rule="nonzero"/><path fill="#545454" d="M 284.5625 309.0625 L 250.894531 309.0625 L 250.894531 195.6875 L 284.5625 195.6875 L 284.5625 309.0625 " fill-opacity="1" fill-rule="nonzero"/><path fill="#545454" d="M 382.886719 174.671875 L 327.855469 174.671875 L 327.855469 165.933594 L 382.886719 165.933594 L 382.886719 174.671875 " fill-opacity="1" fill-rule="nonzero"/><path fill="#545454" d="M 376.476562 184.109375 L 334.265625 184.109375 L 334.265625 176.34375 L 376.476562 176.34375 L 376.476562 184.109375 " fill-opacity="1" fill-rule="nonzero"/><path fill="#545454" d="M 372.210938 193.589844 L 338.53125 193.589844 L 338.53125 185.824219 L 372.210938 185.824219 L 372.210938 193.589844 " fill-opacity="1" fill-rule="nonzero"/><path fill="#545454" d="M 327.855469 330.253906 L 382.886719 330.253906 L 382.886719 338.984375 L 327.855469 338.984375 L 327.855469 330.253906 " fill-opacity="1" fill-rule="nonzero"/><path fill="#545454" d="M 334.265625 320.8125 L 376.476562 320.8125 L 376.476562 328.578125 L 334.265625 328.578125 L 334.265625 320.8125 " fill-opacity="1" fill-rule="nonzero"/><path fill="#545454" d="M 338.53125 311.332031 L 372.210938 311.332031 L 372.210938 319.097656 L 338.53125 319.097656 L 338.53125 311.332031 " fill-opacity="1" fill-rule="nonzero"/><path fill="#545454" d="M 372.207031 309.105469 L 338.539062 309.105469 L 338.539062 195.730469 L 372.207031 195.730469 L 372.207031 309.105469 " fill-opacity="1" fill-rule="nonzero"/><path fill="#545454" d="M 386.957031 357.21875 L 63.039062 357.21875 L 63.039062 342.558594 L 386.957031 342.558594 L 386.957031 357.21875 " fill-opacity="1" fill-rule="nonzero"/><g clip-path="url(#83f6b45836)"><path fill="#545454" d="M 403.199219 376 L 46.796875 376 L 46.796875 361.339844 L 403.199219 361.339844 L 403.199219 376 " fill-opacity="1" fill-rule="nonzero"/></g></svg>