<svg xmlns="http://www.w3.org/2000/svg" xmlns:xlink="http://www.w3.org/1999/xlink" width="600" zoomAndPan="magnify" viewBox="0 0 450 449.999984" height="600" preserveAspectRatio="xMidYMid meet" version="1.0"><defs><clipPath id="59e2d91ed0"><path d="M 141 69.21875 L 225 69.21875 L 225 369 L 141 369 Z M 141 69.21875 " clip-rule="nonzero"/></clipPath><clipPath id="c1f71a1b64"><path d="M 45 368 L 405 368 L 405 380.46875 L 45 380.46875 Z M 45 368 " clip-rule="nonzero"/></clipPath></defs><g clip-path="url(#59e2d91ed0)"><path fill="#4e9a06" d="M 141.121094 69.21875 L 225 69.21875 L 225 368.496094 L 141.121094 368.496094 Z M 141.121094 69.21875 " fill-opacity="1" fill-rule="nonzero"/></g><path fill="#f57900" d="M 225 153.015625 L 308.878906 153.015625 L 308.878906 368.496094 L 225 368.496094 Z M 225 153.015625 " fill-opacity="1" fill-rule="nonzero"/><path fill="#cc0000" d="M 308.878906 260.757812 L 392.761719 260.757812 L 392.761719 368.496094 L 308.878906 368.496094 Z M 308.878906 260.757812 " fill-opacity="1" fill-rule="nonzero"/><path fill="#8ae234" d="M 153.101562 81.1875 L 213.015625 81.1875 L 213.015625 368.496094 L 153.101562 368.496094 Z M 153.101562 81.1875 " fill-opacity="1" fill-rule="nonzero"/><path fill="#fcaf3e" d="M 236.984375 164.988281 L 296.898438 164.988281 L 296.898438 368.496094 L 236.984375 368.496094 Z M 236.984375 164.988281 " fill-opacity="1" fill-rule="nonzero"/><path fill="#ef2929" d="M 320.863281 272.726562 L 380.777344 272.726562 L 380.777344 368.496094 L 320.863281 368.496094 Z M 320.863281 272.726562 " fill-opacity="1" fill-rule="nonzero"/><path fill="#204a87" d="M 57.238281 200.902344 L 141.121094 200.902344 L 141.121094 368.496094 L 57.238281 368.496094 Z M 57.238281 200.902344 " fill-opacity="1" fill-rule="nonzero"/><path fill="#729fcf" d="M 69.222656 212.871094 L 129.136719 212.871094 L 129.136719 368.496094 L 69.222656 368.496094 Z M 69.222656 212.871094 " fill-opacity="1" fill-rule="nonzero"/><g clip-path="url(#c1f71a1b64)"><path fill="#555753" d="M 51.25 368.496094 L 398.75 368.496094 C 402.070312 368.496094 404.742188 371.167969 404.742188 374.484375 C 404.742188 377.796875 402.070312 380.46875 398.75 380.46875 L 51.25 380.46875 C 47.929688 380.46875 45.257812 377.796875 45.257812 374.484375 C 45.257812 371.167969 47.929688 368.496094 51.25 368.496094 Z M 51.25 368.496094 " fill-opacity="1" fill-rule="nonzero"/></g></svg>