<svg xmlns="http://www.w3.org/2000/svg" xmlns:xlink="http://www.w3.org/1999/xlink" width="600" zoomAndPan="magnify" viewBox="0 0 450 449.999984" height="600" preserveAspectRatio="xMidYMid meet" version="1.0"><defs><clipPath id="90f28256ee"><path d="M 57.558594 57.558594 L 381.558594 57.558594 L 381.558594 381.558594 L 57.558594 381.558594 Z M 57.558594 57.558594 " clip-rule="nonzero"/></clipPath></defs><g clip-path="url(#90f28256ee)"><path fill="#1a5da9" d="M 219.503906 57.558594 C 308.578125 57.558594 381.453125 130.433594 381.453125 219.503906 C 381.453125 308.578125 308.578125 381.453125 219.503906 381.453125 C 130.433594 381.453125 57.558594 308.578125 57.558594 219.503906 C 57.558594 130.433594 130.433594 57.558594 219.503906 57.558594 " fill-opacity="1" fill-rule="evenodd"/></g><path fill="#fffffe" d="M 154.660156 214.292969 L 217.496094 153.882812 C 218.625 152.796875 220.402344 152.808594 221.515625 153.894531 L 221.535156 153.910156 L 283.707031 214.304688 L 283.726562 214.324219 L 285.757812 216.140625 C 286.394531 216.710938 286.71875 217.503906 286.71875 218.292969 L 286.730469 218.292969 L 286.730469 307.734375 C 286.730469 309.335938 285.433594 310.632812 283.832031 310.632812 L 239.308594 310.632812 L 239.308594 256.25 C 239.308594 254.648438 238.011719 253.351562 236.410156 253.351562 L 202.601562 253.351562 C 201 253.351562 199.703125 254.648438 199.703125 256.25 L 199.703125 310.632812 L 155.175781 310.632812 C 153.578125 310.632812 152.277344 309.335938 152.277344 307.734375 L 152.277344 217.808594 C 152.277344 216.914062 152.6875 216.109375 153.324219 215.578125 L 154.660156 214.292969 " fill-opacity="1" fill-rule="evenodd"/><path fill="#fffffe" d="M 219.503906 139.078125 L 133.613281 220.644531 C 131.296875 222.84375 127.628906 222.753906 125.425781 220.4375 C 123.222656 218.121094 123.316406 214.449219 125.632812 212.25 L 215.515625 126.894531 C 217.75 124.769531 221.261719 124.769531 223.496094 126.894531 L 313.378906 212.25 C 315.695312 214.449219 315.789062 218.121094 313.582031 220.4375 C 311.382812 222.753906 307.714844 222.84375 305.398438 220.644531 L 219.503906 139.078125 " fill-opacity="1" fill-rule="evenodd"/><path fill="#fffffe" d="M 168.078125 181.511719 L 156.679688 197.835938 L 146.46875 197.835938 L 146.46875 147.652344 L 175.261719 147.652344 L 175.261719 180.453125 L 168.078125 181.511719 " fill-opacity="1" fill-rule="evenodd"/></svg>